<?xml version="1.0" encoding="UTF-8" standalone="no"?>
<!-- Created with Inkscape (http://www.inkscape.org/) -->

<svg
   width="32.0px"
   height="32.0px"
   viewBox="0 0 32.0 32.0"
   version="1.1"
   id="SVGRoot"
   sodipodi:docname="brightness-down.svg"
   inkscape:version="1.1.1 (3bf5ae0d25, 2021-09-20)"
   xmlns:inkscape="http://www.inkscape.org/namespaces/inkscape"
   xmlns:sodipodi="http://sodipodi.sourceforge.net/DTD/sodipodi-0.dtd"
   xmlns="http://www.w3.org/2000/svg"
   xmlns:svg="http://www.w3.org/2000/svg">
  <sodipodi:namedview
     id="namedview6755"
     pagecolor="#ffffff"
     bordercolor="#666666"
     borderopacity="1.0"
     inkscape:pageshadow="2"
     inkscape:pageopacity="0.0"
     inkscape:pagecheckerboard="0"
     inkscape:document-units="px"
     showgrid="true"
     inkscape:zoom="11.888233"
     inkscape:cx="13.837212"
     inkscape:cy="21.870365"
     inkscape:window-width="1366"
     inkscape:window-height="748"
     inkscape:window-x="0"
     inkscape:window-y="20"
     inkscape:window-maximized="1"
     inkscape:current-layer="layer1"
     inkscape:snap-global="true"
     inkscape:snap-object-midpoints="true"
     showguides="true"
     inkscape:guide-bbox="true">
    <inkscape:grid
       type="xygrid"
       id="grid6761" />
    <sodipodi:guide
       position="17,19"
       orientation="1,0"
       id="guide82" />
    <sodipodi:guide
       position="17,19"
       orientation="0,-1"
       id="guide84" />
  </sodipodi:namedview>
  <defs
     id="defs6750" />
  <g
     inkscape:label="Layer 1"
     inkscape:groupmode="layer"
     id="layer1">
    <path
       style="color:#000000;fill:#ffffff;stroke:none;stroke-width:2.83002;stroke-linecap:round;-inkscape-stroke:none"
       d="m 16.912726,8.9825462 c 2.237974,0 4.04336,1.8065798 4.043362,4.0458028 10e-7,2.23923 -1.805386,4.045804 -4.043362,4.045804 -2.237977,0 -4.044584,-1.806574 -4.044583,-4.045804 2e-6,-2.239223 1.806608,-4.0458028 4.044583,-4.0458028 z"
       id="path3801"
       inkscape:export-filename="/home/sergio/.config/dunst/icons/brightness-down.png"
       inkscape:export-xdpi="300"
       inkscape:export-ydpi="300" />
    <path
       style="color:#000000;fill:#ffffff;stroke:none;stroke-width:2.83002;stroke-linecap:round;-inkscape-stroke:none"
       d="m 16.912726,8.1733868 c -2.675492,0 -4.853741,2.1785982 -4.853743,4.8549622 -2e-6,2.676365 2.178248,4.854963 4.853743,4.854963 2.675494,0 4.852524,-2.178598 4.852522,-4.854963 -2e-6,-2.676364 -2.177031,-4.8549622 -4.852522,-4.8549622 z"
       id="path3485"
       inkscape:export-filename="/home/sergio/.config/dunst/icons/brightness-down.png"
       inkscape:export-xdpi="300"
       inkscape:export-ydpi="300" />
    <path
       style="color:#000000;fill:#ffffff;stroke:none;stroke-width:2.83002;stroke-linecap:round;-inkscape-stroke:none"
       d="M 16.912726,0.43448948 A 0.40460468,0.40460468 45 0 0 16.507535,0.83846293 V 6.3170791 a 0.40460468,0.40460468 45 0 0 0.405191,0.4039674 0.40460468,0.40460468 45 0 0 0.40397,-0.4039673 V 0.83846318 a 0.40460468,0.40460468 45 0 0 -0.40397,-0.4039737 z"
       id="path3483"
       inkscape:export-filename="/home/sergio/.config/dunst/icons/brightness-down.png"
       inkscape:export-xdpi="300"
       inkscape:export-ydpi="300"
       inkscape:transform-center-y="-9.4389874" />
    <path
       style="color:#000000;fill:#ffffff;stroke:none;stroke-width:2.83002;stroke-linecap:round;-inkscape-stroke:none"
       d="m 16.912726,19.209947 a 0.40460468,0.40460468 0 0 0 -0.405191,0.403967 v 5.478616 a 0.40460468,0.40460468 0 0 0 0.405191,0.403968 0.40460468,0.40460468 0 0 0 0.40397,-0.403968 v -5.478616 a 0.40460468,0.40460468 0 0 0 -0.40397,-0.403967 z"
       id="path3481"
       inkscape:export-filename="/home/sergio/.config/dunst/icons/brightness-down.png"
       inkscape:export-xdpi="300"
       inkscape:export-ydpi="300" />
    <path
       style="color:#000000;fill:#ffffff;stroke:none;stroke-width:2.83002;stroke-linecap:round;-inkscape-stroke:none"
       d="m 25.482749,3.9860126 a 0.40460468,0.40460468 0 0 0 -0.285586,0.118382 l -3.872498,3.8737197 a 0.40460468,0.40460468 0 0 0 0.0012,0.5723891 0.40460468,0.40460468 0 0 0 0.571173,0 L 25.769585,4.67679 a 0.40460468,0.40460468 0 0 0 0,-0.5723954 0.40460468,0.40460468 0 0 0 -0.286806,-0.118382 z"
       id="path3479"
       inkscape:export-filename="/home/sergio/.config/dunst/icons/brightness-down.png"
       inkscape:export-xdpi="300"
       inkscape:export-ydpi="300" />
    <path
       style="color:#000000;fill:#ffffff;stroke:none;stroke-width:2.83002;stroke-linecap:round;-inkscape-stroke:none"
       d="m 11.927174,17.380484 -3.8724985,3.873719 a 0.40460468,0.40460468 0 0 0 0,0.572396 0.40460468,0.40460468 0 0 0 0.5723922,0 l 3.8724983,-3.87372 a 0.40460468,0.40460468 0 0 0 -0.0012,-0.572395 0.40460468,0.40460468 0 0 0 -0.571173,0 z"
       id="path3477"
       inkscape:export-filename="/home/sergio/.config/dunst/icons/brightness-down.png"
       inkscape:export-xdpi="300"
       inkscape:export-ydpi="300" />
    <path
       style="color:#000000;fill:#ffffff;stroke:none;stroke-width:2.83002;stroke-linecap:round;-inkscape-stroke:none"
       d="m 23.558094,12.560914 a 0.40460468,0.40460468 0 0 0 -0.40519,0.403973 0.40460468,0.40460468 0 0 0 0.40519,0.405186 h 5.474954 a 0.40460468,0.40460468 0 0 0 0.40519,-0.405186 0.40460468,0.40460468 0 0 0 -0.40519,-0.403973 z"
       id="path3475"
       inkscape:export-filename="/home/sergio/.config/dunst/icons/brightness-down.png"
       inkscape:export-xdpi="300"
       inkscape:export-ydpi="300" />
    <path
       style="color:#000000;fill:#ffffff;stroke:none;stroke-width:2.83002;stroke-linecap:round;-inkscape-stroke:none"
       d="m 4.7911834,12.560914 a 0.40460468,0.40460468 0 0 0 -0.4051908,0.405192 0.40460468,0.40460468 0 0 0 0.4051908,0.403967 h 5.4749536 a 0.40460468,0.40460468 0 0 0 0.40519,-0.403967 0.40460468,0.40460468 0 0 0 -0.40519,-0.405192 z"
       id="path3473"
       inkscape:export-filename="/home/sergio/.config/dunst/icons/brightness-down.png"
       inkscape:export-xdpi="300"
       inkscape:export-ydpi="300" />
    <path
       style="color:#000000;fill:#ffffff;stroke:none;stroke-width:2.83002;stroke-linecap:round;-inkscape-stroke:none"
       d="m 21.325885,17.380484 a 0.40460468,0.40460468 0 0 0 -0.0012,0.572395 l 3.872498,3.87372 a 0.40460468,0.40460468 0 0 0 0.572393,0 0.40460468,0.40460468 0 0 0 0,-0.572396 l -3.872498,-3.873719 a 0.40460468,0.40460468 0 0 0 -0.571172,0 z"
       id="path3471"
       inkscape:export-filename="/home/sergio/.config/dunst/icons/brightness-down.png"
       inkscape:export-xdpi="300"
       inkscape:export-ydpi="300" />
    <path
       style="color:#000000;fill:#ffffff;stroke:none;stroke-width:2.83002;stroke-linecap:round;-inkscape-stroke:none"
       d="m 8.0546755,4.1043946 a 0.40460468,0.40460468 0 0 0 0,0.5723954 l 3.8724985,3.8737134 a 0.40460468,0.40460468 0 0 0 0.571172,0 0.40460468,0.40460468 0 0 0 0.0013,-0.5723891 L 8.6270971,4.1043946 a 0.40460468,0.40460468 0 0 0 -0.5723922,0 z"
       id="path3267"
       inkscape:export-filename="/home/sergio/.config/dunst/icons/brightness-down.png"
       inkscape:export-xdpi="300"
       inkscape:export-ydpi="300" />
    <path
       style="color:#000000;fill:#ffffff;stroke:none;stroke-width:3.06779;stroke-linecap:round;-inkscape-stroke:none"
       d="m 0.32598383,28.988025 a 0.26896729,0.42222473 0 0 0 -0.2692627,0.422691 0.26896729,0.42222473 0 0 0 0.2692627,0.421027 H 31.749466 a 0.26896729,0.42222473 0 0 0 0.269262,-0.421027 0.26896729,0.42222473 0 0 0 -0.269262,-0.422691 z"
       id="path3269"
       inkscape:export-filename="/home/sergio/.config/dunst/icons/brightness-down.png"
       inkscape:export-xdpi="300"
       inkscape:export-ydpi="300" />
    <g
       id="circle3271"
       style="fill:#ffffff;stroke:none;stroke-width:2.12814"
       inkscape:export-filename="/home/sergio/.config/dunst/icons/brightness-down.png"
       inkscape:export-xdpi="300"
       inkscape:export-ydpi="300"
       transform="matrix(0.62487211,0,0,0.62487211,12.519093,-89.333516)">
      <path
         style="color:#000000;fill:#ffffff;stroke:none;stroke-width:2.1175;stroke-linecap:round;-inkscape-stroke:none"
         d="m -7.2738526,190.0462 a 3.5668504,3.5683911 0 0 1 -3.5668504,3.56839 3.5668504,3.5683911 0 0 1 -3.56685,-3.56839 3.5668504,3.5683911 0 0 1 3.56685,-3.56839 3.5668504,3.5683911 0 0 1 3.5668504,3.56839 z"
         id="path3631" />
      <path
         style="color:#000000;fill:#ffffff;stroke:none;stroke-width:2.12814;stroke-linecap:round;-inkscape-stroke:none"
         d="m -10.839844,185.98047 c -2.2389,0 -4.064453,1.82689 -4.064453,4.0664 0,2.23952 1.825553,4.06446 4.064453,4.06446 2.2389005,0 4.0644534,-1.82494 4.0644534,-4.06446 0,-2.23951 -1.8255529,-4.0664 -4.0644534,-4.0664 z m 0,0.99414 c 1.7009303,0 3.0683596,1.37025 3.0683596,3.07226 0,1.70202 -1.3674293,3.07032 -3.0683596,3.07032 -1.70093,0 -3.070312,-1.3683 -3.070312,-3.07032 0,-1.70201 1.369382,-3.07226 3.070312,-3.07226 z"
         id="path3633" />
    </g>
  </g>
</svg>
