<?xml version="1.0" encoding="UTF-8" standalone="no"?>
<!-- Created with Inkscape (http://www.inkscape.org/) -->

<svg
   width="32"
   height="32"
   viewBox="0 0 32 32"
   version="1.1"
   id="svg5"
   sodipodi:docname="idea.svg"
   inkscape:version="1.1.1 (3bf5ae0d25, 2021-09-20)"
   xmlns:inkscape="http://www.inkscape.org/namespaces/inkscape"
   xmlns:sodipodi="http://sodipodi.sourceforge.net/DTD/sodipodi-0.dtd"
   xmlns="http://www.w3.org/2000/svg"
   xmlns:svg="http://www.w3.org/2000/svg">
  <sodipodi:namedview
     id="namedview7"
     pagecolor="#ffffff"
     bordercolor="#666666"
     borderopacity="1.0"
     inkscape:pageshadow="2"
     inkscape:pageopacity="0.0"
     inkscape:pagecheckerboard="0"
     inkscape:document-units="px"
     showgrid="false"
     inkscape:zoom="4"
     inkscape:cx="26.625"
     inkscape:cy="33.75"
     inkscape:window-width="1366"
     inkscape:window-height="748"
     inkscape:window-x="0"
     inkscape:window-y="20"
     inkscape:window-maximized="1"
     inkscape:current-layer="layer1"
     inkscape:snap-global="false"
     showguides="true"
     inkscape:guide-bbox="true"
     inkscape:snap-center="true" />
  <defs
     id="defs2" />
  <g
     inkscape:label="Layer 1"
     inkscape:groupmode="layer"
     id="layer1">
    <path
       id="path15983"
       style="fill:#ffffff;stroke-width:0.692701"
       d="m 13.724133,15.184033 c -0.940986,0 -1.712807,0.771818 -1.712807,1.712811 0,0.940993 0.771753,1.714164 1.712807,1.714164 h 0.784699 v 4.694671 a 0.06754137,0.06754137 0 0 0 0.06769,0.06765 h 0.794175 a 0.06754137,0.06754137 0 0 0 0.06761,-0.06765 V 18.60289 h 1.24605 v 4.7772 a 0.06754137,0.06754137 0 0 0 0.06768,0.06765 h 0.784698 a 0.06754137,0.06754137 0 0 0 0.06768,-0.06765 v -4.769082 h 0.795518 c 0.941061,0 1.712813,-0.773171 1.712813,-1.714164 0,-0.940993 -0.77182,-1.712811 -1.712813,-1.712811 -0.940986,0 -1.714165,0.771751 -1.714165,1.712811 v 0.7847 h -1.248752 v -0.7847 c 0,-0.940993 -0.771821,-1.712811 -1.712813,-1.712811 z m 0,0.92811 c 0.439755,0 0.784699,0.344951 0.784699,0.784701 v 0.7847 h -0.784699 c -0.439747,0 -0.784697,-0.344951 -0.784697,-0.7847 0,-0.439749 0.34495,-0.784701 0.784697,-0.784701 z m 4.675731,0 c 0.439753,0 0.784697,0.344951 0.784697,0.784701 0,0.439749 -0.344944,0.7847 -0.784697,0.7847 h -0.786049 v -0.7847 c 0,-0.439622 0.346301,-0.784701 0.786049,-0.784701 z m -14.9387237,4.873151 2.6153541,-1.509972 0.5923284,1.02594 -2.615354,1.509973 z m 24.6087567,1.025946 -2.615348,-1.509978 0.592321,-1.025942 2.615355,1.509976 z m 2.199656,-7.024586 -3.019945,2e-6 v -1.184654 l 3.019945,-10e-7 z m 0,0 -3.019945,2e-6 v -1.184654 l 3.019945,-10e-7 z M 28.662218,7.8033639 26.046864,9.3133373 25.454543,8.2873975 28.06989,6.7774241 Z M 23.678582,2.3861113 22.168605,5.0014642 21.142675,4.4091375 22.65265,1.7937846 Z M 16.654015,0.1864582 v 3.0199462 l -1.184657,1.2e-6 V 0.18645589 Z M 9.4707147,1.7937884 10.980691,4.4091404 9.9547533,5.0014653 8.4447828,2.3861135 Z M 4.0534688,6.7774241 6.6688228,8.2873957 6.0764944,9.3133351 3.4611403,7.8033633 Z m -2.1996575,7.0245749 3.0199468,-3e-6 v 1.184654 l -3.0199468,4e-6 z M 16.061686,4.6648428 c -4.833084,7e-7 -8.7615841,3.9298463 -8.7615841,8.7629332 0,1.326654 0.2971824,2.584649 0.8266413,3.712444 0.1132358,0.253621 0.2402147,0.490876 0.3788038,0.717063 0.032976,0.056 0.067398,0.111175 0.1016226,0.166321 0.2684142,0.43402 0.5728287,0.843614 0.9105212,1.22305 0.1416848,0.17821 0.2837714,0.356144 0.4261766,0.542525 0.7432476,0.972405 1.4948286,2.116815 2.0280406,4.039855 0.05168,0.25759 0.04926,0.452201 0.05548,0.726364 v 4.3566 0.694564 c 0.0056,0.162158 0.07491,0.2788 0.152969,0.343642 l 1.776576,1.847782 c 0.0712,0.08275 0.14936,0.104546 0.239674,0.106681 l 3.571697,-2e-6 c 0.137999,-0.0037 0.182187,-0.05368 0.236759,-0.104065 l 1.710842,-1.84599 c 0.127082,-0.134158 0.126813,-0.240719 0.143604,-0.373545 v -4.845788 c 0.0027,-0.461239 0.06283,-0.801308 0.183129,-1.165537 0.607865,-1.686092 1.300401,-2.695641 1.999142,-3.600614 0.200474,-0.259644 0.40257,-0.511575 0.603404,-0.767112 0.835889,-0.959752 1.207848,-1.849919 1.688459,-2.922333 l 0.03519,-0.07168 c 0.293158,-0.874183 0.454584,-1.808332 0.454584,-2.780275 0,-4.8330878 -3.9285,-8.762935 -8.761583,-8.7629342 z m 0,1.0160516 c 4.28425,-10e-7 7.746882,3.4626375 7.746882,7.7468836 0,0.980889 -0.182797,1.917328 -0.514115,2.780273 l -0.412643,0.901052 c -0.03851,0.07128 -0.07975,0.141142 -0.120412,0.211058 -0.0426,0.07165 -0.08539,0.143281 -0.128523,0.213764 -0.261821,0.418545 -0.562481,0.810625 -0.896999,1.170284 -0.639127,0.798237 -1.126429,1.652429 -1.55722,2.45557 -0.331104,0.596538 -0.653667,1.281745 -0.952464,2.098395 l -6.515716,1e-6 c -0.256195,-0.831672 -0.555788,-1.538044 -0.872644,-2.15522 -0.460361,-1.03664 -0.849091,-1.444207 -1.28392,-2.097047 C 10.04195,18.356547 9.6101134,17.791306 9.2415621,17.109098 L 8.8289197,16.208045 C 8.4976083,15.345098 8.3148114,14.408658 8.3148046,13.427772 8.3148114,9.1435234 11.777449,5.6808878 16.061694,5.6808875 Z m -3.13339,18.6501536 6.030016,1e-6 v 0.787904 h -6.030016 z m 0,1.876254 6.030016,2e-6 v 0.842199 h -6.030016 z m 7e-6,1.906198 h 6.030009 v 0.693316 l -6.030016,-1e-6 z m 0.429149,1.699629 5.230444,-2e-6 -1.194645,1.190579 -2.800569,-1e-6 z" />
  </g>
</svg>
