<?xml version="1.0" encoding="UTF-8" standalone="no"?>
<!-- Created with Inkscape (http://www.inkscape.org/) -->

<svg
   width="32"
   height="32"
   viewBox="0 0 32 32"
   version="1.1"
   id="svg5"
   inkscape:version="1.1.1 (3bf5ae0d25, 2021-09-20)"
   sodipodi:docname="lock.svg"
   xmlns:inkscape="http://www.inkscape.org/namespaces/inkscape"
   xmlns:sodipodi="http://sodipodi.sourceforge.net/DTD/sodipodi-0.dtd"
   xmlns="http://www.w3.org/2000/svg"
   xmlns:svg="http://www.w3.org/2000/svg">
  <sodipodi:namedview
     id="namedview7"
     pagecolor="#ffffff"
     bordercolor="#666666"
     borderopacity="1.0"
     inkscape:pageshadow="2"
     inkscape:pageopacity="0.0"
     inkscape:pagecheckerboard="0"
     inkscape:document-units="px"
     showgrid="false"
     inkscape:zoom="5.5488148"
     inkscape:cx="59.742487"
     inkscape:cy="26.852581"
     inkscape:window-width="1366"
     inkscape:window-height="748"
     inkscape:window-x="0"
     inkscape:window-y="20"
     inkscape:window-maximized="1"
     inkscape:current-layer="layer1"
     inkscape:snap-global="false" />
  <defs
     id="defs2" />
  <g
     inkscape:label="Layer 1"
     inkscape:groupmode="layer"
     id="layer1">
    <path
       id="rect3644"
       style="color:#000000;fill:#ffffff;-inkscape-stroke:none"
       d="M 16 0 C 9.8256747 0 4.7851562 5.0405183 4.7851562 11.214844 L 4.7851562 15.064453 L 9.2675781 15.064453 L 9.2675781 11.214844 C 9.2675781 7.4465542 12.231711 4.4824219 16 4.4824219 C 19.768289 4.4824219 22.732422 7.4465542 22.732422 11.214844 L 22.732422 15.064453 L 27.214844 15.064453 L 27.214844 11.214844 C 27.214844 5.0405183 22.174325 0 16 0 z " />
    <path
       id="rect3218"
       style="fill:#ffffff;stroke:none;stroke-width:3.18595;stroke-miterlimit:4;stroke-dasharray:none;stop-color:#000000"
       d="m 3.421875,12.818359 c -1.710126,0 -3.08789062,1.375812 -3.08789062,3.085938 V 28.75 c 0,1.710126 1.37776462,3.087891 3.08789062,3.087891 h 25.15625 c 1.710126,0 3.087891,-1.377765 3.087891,-3.087891 V 15.904297 c 0,-1.710126 -1.377765,-3.085938 -3.087891,-3.085938 z M 16,17.451172 a 3.6242764,3.6242764 0 0 1 3.625,3.625 3.6242764,3.6242764 0 0 1 -2.041016,3.253906 v 3.910156 c 0,0.877984 -0.706,1.583985 -1.583984,1.583985 -0.877984,0 -1.583984,-0.706001 -1.583984,-1.583985 V 24.330078 A 3.6242764,3.6242764 0 0 1 12.375,21.076172 3.6242764,3.6242764 0 0 1 16,17.451172 Z" />
  </g>
</svg>
