<?xml version="1.0" encoding="UTF-8" standalone="no"?>
<svg
   version="1.1"
   id="svg1"
   width="16"
   height="16"
   viewBox="0 0 16 16"
   sodipodi:docname="color-fill-symbolic.svg"
   inkscape:version="1.1 (c68e22c387, 2021-05-23)"
   xmlns:inkscape="http://www.inkscape.org/namespaces/inkscape"
   xmlns:sodipodi="http://sodipodi.sourceforge.net/DTD/sodipodi-0.dtd"
   xmlns="http://www.w3.org/2000/svg"
   xmlns:svg="http://www.w3.org/2000/svg"
   xmlns:rdf="http://www.w3.org/1999/02/22-rdf-syntax-ns#"
   xmlns:cc="http://creativecommons.org/ns#"
   xmlns:dc="http://purl.org/dc/elements/1.1/">
  <style
     id="s0">
   .success { fill: #009909; }
   .warning { fill: #FF1990; }
   .error   { fill: #00AAFF; }
  </style>
  <style
     id="s2"> 
     @import '../../highlights.css'; 
  </style>
  <metadata
     id="metadata852">
    <rdf:RDF>
      <cc:Work
         rdf:about="">
        <dc:format>image/svg+xml</dc:format>
        <dc:type
           rdf:resource="http://purl.org/dc/dcmitype/StillImage" />
        <dc:title />
      </cc:Work>
    </rdf:RDF>
  </metadata>
  <defs
     id="defs850">
    <inkscape:path-effect
       effect="join_type"
       id="path-effect874"
       is_visible="true"
       linecap_type="butt"
       line_width="1.3"
       linejoin_type="extrp_arc"
       miter_limit="100"
       attempt_force_join="true" />
    <inkscape:path-effect
       attempt_force_join="true"
       miter_limit="100"
       linejoin_type="round"
       line_width="1.3"
       linecap_type="round"
       is_visible="true"
       id="path-effect870"
       effect="join_type" />
    <inkscape:path-effect
       attempt_force_join="true"
       miter_limit="100"
       linejoin_type="extrp_arc"
       line_width="1.3"
       linecap_type="round"
       is_visible="true"
       id="path-effect866"
       effect="join_type" />
    <inkscape:path-effect
       effect="join_type"
       id="path-effect873"
       is_visible="true"
       linecap_type="butt"
       line_width="1"
       linejoin_type="extrp_arc"
       miter_limit="100"
       attempt_force_join="true" />
    <inkscape:path-effect
       attempt_force_join="true"
       miter_limit="100"
       linejoin_type="round"
       line_width="1"
       linecap_type="round"
       is_visible="true"
       id="path-effect869"
       effect="join_type" />
    <inkscape:path-effect
       attempt_force_join="true"
       miter_limit="100"
       linejoin_type="extrp_arc"
       line_width="0.87"
       linecap_type="round"
       is_visible="true"
       id="path-effect865"
       effect="join_type" />
    <inkscape:path-effect
       attempt_force_join="true"
       miter_limit="100"
       linejoin_type="extrp_arc"
       line_width="1.5"
       linecap_type="butt"
       is_visible="true"
       id="path-effect134"
       effect="join_type" />
    <inkscape:path-effect
       attempt_force_join="true"
       miter_limit="100"
       linejoin_type="round"
       line_width="1.5"
       linecap_type="butt"
       is_visible="true"
       id="path-effect131"
       effect="join_type" />
    <inkscape:path-effect
       attempt_force_join="true"
       miter_limit="100"
       linejoin_type="extrp_arc"
       line_width="1.3"
       linecap_type="round"
       is_visible="true"
       id="path-effect241"
       effect="join_type" />
    <inkscape:path-effect
       attempt_force_join="true"
       miter_limit="100"
       linejoin_type="extrp_arc"
       line_width="1.2"
       linecap_type="round"
       is_visible="true"
       id="path-effect239"
       effect="join_type" />
    <inkscape:path-effect
       attempt_force_join="true"
       miter_limit="100"
       linejoin_type="round"
       line_width="1.3"
       linecap_type="round"
       is_visible="true"
       id="path-effect237"
       effect="join_type" />
    <inkscape:path-effect
       attempt_force_join="true"
       miter_limit="100"
       linejoin_type="extrp_arc"
       line_width="2.8299999"
       linecap_type="butt"
       is_visible="true"
       id="path-effect6020"
       effect="join_type" />
    <inkscape:path-effect
       effect="join_type"
       id="path-effect6006"
       is_visible="true"
       linecap_type="round"
       line_width="2.8299999"
       linejoin_type="round"
       miter_limit="100"
       attempt_force_join="true" />
    <inkscape:path-effect
       attempt_force_join="true"
       miter_limit="100"
       linejoin_type="round"
       line_width="2.8299999"
       linecap_type="butt"
       is_visible="true"
       id="path-effect5987"
       effect="join_type" />
    <inkscape:path-effect
       effect="join_type"
       id="path-effect134-3"
       is_visible="true"
       linecap_type="butt"
       line_width="1.3"
       linejoin_type="extrp_arc"
       miter_limit="100"
       attempt_force_join="true" />
  </defs>
  <sodipodi:namedview
     inkscape:snap-others="false"
     inkscape:snap-global="true"
     objecttolerance="10"
     gridtolerance="10"
     guidetolerance="10"
     id="namedview"
     showgrid="true"
     inkscape:zoom="28.712104"
     inkscape:cx="12.085496"
     inkscape:cy="9.7345706"
     inkscape:window-width="1920"
     inkscape:window-height="1013"
     inkscape:window-x="-9"
     inkscape:window-y="-9"
     inkscape:window-maximized="1"
     inkscape:current-layer="g0"
     inkscape:document-rotation="0"
     pagecolor="#ffffff"
     bordercolor="#999999"
     borderopacity="1"
     inkscape:pageshadow="0"
     inkscape:pageopacity="0"
     inkscape:pagecheckerboard="0"
     inkscape:snap-smooth-nodes="true">
    <inkscape:grid
       type="xygrid"
       id="grid"
       spacingx="0.66666667"
       spacingy="0.66667" />
  </sodipodi:namedview>
  <g
     id="g0"
     inkscape:label="color-fill">
    <!--Add this to all icons at dirst place and do not change the id or style-->
    <path
       id="background"
       d="M 16,0 V 16 H 0 V 0 Z"
       style="opacity:0"
       inkscape:connector-curvature="0" />
    <path
       sodipodi:nodetypes="cccc"
       inkscape:connector-curvature="0"
       class="error"
       d="M 3.99994,8.6666667 C 3.7111417,8.353007 3.7847888,7.6070908 4.3329454,6.6667 L 8,6.6667 C 6.377493,8.160601 4.482685,9.1909704 3.99994,8.6666667 Z"
       id="fillinside" />
    <g
       id="g854"
       transform="rotate(90,8,8)">
      <path
         inkscape:path-effect="#path-effect241"
         inkscape:original-d="M 8.0274027,4.471357 C 5.543312,2.1576021 2.259295,2.6666666 2.00001,3.9999999 1.740725,5.3333333 3.3787483,6.306832 4.66669,6.6666666"
         d="M 8.4704253,3.9957196 C 5.7993851,1.5078345 1.7672039,1.7920303 1.3619623,3.8759228 1.0036837,5.7183157 3.0633241,6.8935985 4.4917862,7.2926927 A 0.65,0.65 0 1 0 4.8415938,6.0406405 C 3.699018,5.7214193 2.4811799,4.9307972 2.6380577,4.1240771 2.748969,3.5537325 5.2903348,2.8102534 7.5843801,4.9469944 A 0.65,0.65 0 1 0 8.4704253,3.9957196 Z"
         id="hold"
         inkscape:connector-curvature="0"
         sodipodi:nodetypes="czc"
         style="stroke-width:0.818913" />
      <path
         sodipodi:nodetypes="ccccc"
         inkscape:original-d="M 8.6666667,12.00006 13.333333,7.33337 C 13.806195,6.8624674 13.143215,5.0806985 11.686886,3.6243695 10.230558,2.1680405 8.467815,1.528127 8,2.00001 L 3.3333334,6.6667"
         inkscape:path-effect="#path-effect237"
         id="body"
         d="M 9.1262873,12.459678 13.791997,7.7939427 C 14.712686,6.8770684 13.669039,4.6872837 12.146506,3.1647503 10.623734,1.6419774 8.4458676,0.62702107 7.5403794,1.5403917 l -4.6666666,4.66669 A 0.65000006,0.65000006 0 1 0 3.792954,7.1263183 L 8.4616048,2.4576354 c 0,0 -0.087567,0.048491 -0.048187,0.042928 0.0044,-6.211e-4 0.00947,-0.00123 0.015317,-0.00176 0.00649,-5.979e-4 0.013802,-0.0011 0.021998,-0.00145 0.4809281,-0.020338 1.6705312,0.4806344 2.7765332,1.5866366 1.106214,1.1062147 1.623513,2.3124749 1.606612,2.8001118 -2.9e-4,0.00837 -7.47e-4,0.015835 -0.0013,0.022474 -5.04e-4,0.00598 -0.0011,0.011169 -0.0017,0.01567 -0.0054,0.040322 0.04378,-0.049448 0.04282,-0.048494 L 8.2070461,11.540442 a 0.65,0.65 0 1 0 0.9192412,0.919236 z"
         inkscape:connector-curvature="0"
         style="stroke-width:0.81891" />
      <path
         sodipodi:nodetypes="zzzzz"
         inkscape:connector-curvature="0"
         id="border"
         d="m 8.1636712,11.564517 c -1.572e-4,0.0076 -4.821e-4,0.01426 -9.055e-4,0.02012 -3.803e-4,0.0053 -8.344e-4,0.0098 -0.0013,0.01356 -0.0042,0.03405 0.045584,-0.05776 0.045584,-0.05776 0,0 0.086672,-0.04353 0.031189,-0.03848 -0.00619,5.63e-4 -0.013168,10e-4 -0.021029,0.0014 C 7.7468171,11.522306 6.578293,11.013487 5.454732,9.8899256 4.3311725,8.7663661 3.8141704,7.5881324 3.831351,7.1146847 c 2.881e-4,-0.00794 7.354e-4,-0.014991 0.00128,-0.021239 0.00487,-0.056025 -0.039676,0.032873 -0.039677,0.032873 0,0 -0.089917,0.045067 -0.0391,0.040762 0.00567,-4.802e-4 0.012129,-8.743e-4 0.019471,-0.00112 C 4.2264045,7.1510114 5.3730953,7.672306 6.5001719,8.7993827 7.6272471,9.9264578 8.1732596,11.1021 8.1636712,11.564517 Z M 2.873714,6.2070805 c -0.9099747,0.9099746 0.1254327,3.0657374 1.6617792,4.6020835 1.536345,1.536345 3.6848996,2.556409 4.5907929,1.650515 C 10.040341,11.545625 8.9518018,9.4125348 7.4194107,7.8801439 5.8870212,6.3477541 3.7755277,5.3052673 2.873714,6.2070805 Z"
         inkscape:path-effect="#path-effect134-3"
         inkscape:original-d="M 6.9597913,8.3397633 C 8.4336601,9.8136319 9.1429388,11.523788 8.6666667,12.00006 8.1903947,12.476332 6.4689816,11.823414 4.9951126,10.349545 3.5212437,8.8756761 2.8570613,7.142972 3.3333334,6.6667 3.8096056,6.190428 5.4859225,6.8658943 6.9597913,8.3397633 Z"
         style="stroke-width:0.922609" />
    </g>
    <path
       inkscape:connector-curvature="0"
       id="path843"
       d="m 5,13.593897 c 0,0.9596 -0.5977692,1.739513 -1.3333,1.739513 -0.7355311,0 -1.3337,-0.779913 -1.3337,-1.739513 0,-0.9596 1.0003334,-2.927177 1.3337,-2.927177 0.3333666,0 1.3333,1.967577 1.3333,2.927177 z"
       class="error"
       inkscape:label="drop"
       style="fill:#05a2eb;stroke-width:1"
       sodipodi:nodetypes="ssszs" />
  </g>
</svg>
