<?xml version="1.0" encoding="UTF-8" standalone="no"?>
<svg
   xmlns:dc="http://purl.org/dc/elements/1.1/"
   xmlns:cc="http://creativecommons.org/ns#"
   xmlns:rdf="http://www.w3.org/1999/02/22-rdf-syntax-ns#"
   xmlns:svg="http://www.w3.org/2000/svg"
   xmlns="http://www.w3.org/2000/svg"
   xmlns:sodipodi="http://sodipodi.sourceforge.net/DTD/sodipodi-0.dtd"
   xmlns:inkscape="http://www.inkscape.org/namespaces/inkscape"
   inkscape:version="1.0.1 (3bc2e813f5, 2020-09-07)"
   sodipodi:docname="dialog-text-and-font-symbolic.svg"
   viewBox="0 0 16 16"
   height="16"
   width="16"
   id="svg1"
   version="1.1">
  <metadata
     id="metadata6476">
    <rdf:RDF>
      <cc:Work
         rdf:about="">
        <dc:format>image/svg+xml</dc:format>
        <dc:type
           rdf:resource="http://purl.org/dc/dcmitype/StillImage" />
        <dc:title />
      </cc:Work>
    </rdf:RDF>
  </metadata>
  <defs
     id="defs6474" />
  <style
     id="s0">
.success { fill:#009909; }
.warning { fill:#FF1990; }
.error { fill:#00AAFF; }
</style>
  <style
     id="s2">
@import '../../highlights.css';
</style>
  <sodipodi:namedview
     inkscape:document-rotation="0"
     inkscape:current-layer="dialog-text-and-font"
     inkscape:window-maximized="1"
     inkscape:window-y="-9"
     inkscape:window-x="-9"
     inkscape:window-height="1013"
     inkscape:window-width="1920"
     inkscape:cy="8.31445"
     inkscape:cx="10.760226"
     inkscape:zoom="41.125"
     showgrid="true"
     id="namedview"
     guidetolerance="10"
     gridtolerance="10"
     objecttolerance="10">
    <inkscape:grid
       id="grid"
       type="xygrid"
       spacingx="0.66667"
       spacingy="0.66667" />
  </sodipodi:namedview>
  <g
     id="dialog-text-and-font"
     inkscape:label="00091"
     transform="translate(-195,-527.3622)">
    <path
       d="m 202.33344,530.69556 c 0,0 -7e-5,7.63465 -7e-5,8.6667 0,1.03205 -1.33334,1.33334 -1.33334,1.33334 v 0.66667 h 4.00002 v -0.66667 c 0,0 -1.33334,-0.31611 -1.33334,-1.33334 0,-1.01723 7e-5,-8.6667 7e-5,-8.6667 0,0 1.33327,-10e-6 2.66661,-10e-6 1.33334,0 1.33334,1.33334 1.33334,1.33334 h 0.66667 v -2.66668 h -10.66672 v 2.66668 h 0.66667 c 0,0 0,-1.33334 1.33334,-1.33334 z"
       id="path74842"
       inkscape:connector-curvature="0"
       sodipodi:nodetypes="czcccczczcccccccc" />
  </g>
</svg>
