<?xml version="1.0" encoding="UTF-8" standalone="no"?>
<svg
   xmlns:dc="http://purl.org/dc/elements/1.1/"
   xmlns:cc="http://creativecommons.org/ns#"
   xmlns:rdf="http://www.w3.org/1999/02/22-rdf-syntax-ns#"
   xmlns:svg="http://www.w3.org/2000/svg"
   xmlns="http://www.w3.org/2000/svg"
   xmlns:sodipodi="http://sodipodi.sourceforge.net/DTD/sodipodi-0.dtd"
   xmlns:inkscape="http://www.inkscape.org/namespaces/inkscape"
   inkscape:version="1.0.1 (3bc2e813f5, 2020-09-07)"
   sodipodi:docname="dialog-fill-and-stroke-symbolic.svg"
   viewBox="0 0 16 16"
   height="16"
   width="16"
   id="svg1"
   version="1.1">
  <style
     id="s0">
   .success { fill: #009909; }
   .warning { fill: #FF1990; }
   .error   { fill: #00AAFF; }
  </style>
  <style
     id="s2"> 
     @import '../../highlights.css'; 
  </style>
  <metadata
     id="metadata1160">
    <rdf:RDF>
      <cc:Work
         rdf:about="">
        <dc:format>image/svg+xml</dc:format>
        <dc:type
           rdf:resource="http://purl.org/dc/dcmitype/StillImage" />
        <dc:title />
      </cc:Work>
    </rdf:RDF>
  </metadata>
  <defs
     id="defs1158" />
  <sodipodi:namedview
     inkscape:document-rotation="0"
     inkscape:current-layer="g0"
     inkscape:window-maximized="1"
     inkscape:window-y="-9"
     inkscape:window-x="-9"
     inkscape:window-height="1013"
     inkscape:window-width="1920"
     inkscape:cy="6.4934578"
     inkscape:cx="17.991198"
     inkscape:zoom="32"
     showgrid="true"
     id="namedview"
     guidetolerance="10"
     gridtolerance="10"
     objecttolerance="10"
     inkscape:snap-bbox="true"
     inkscape:bbox-nodes="true"
     inkscape:snap-smooth-nodes="true">
    <inkscape:grid
       id="grid"
       type="xygrid"
       spacingx="0.66667"
       spacingy="0.66667" />
  </sodipodi:namedview>
  <g
     inkscape:label="dialog-fill-and-stroke"
     id="g0"
     transform="matrix(0.75000376,0,0,0.75000376,2.00001,2.00001)">
    <path
       inkscape:connector-curvature="0"
       d="m -0.06490712,-14.222089 h 0.953796 C 0,-19.555422 2.1944424,-25.777644 7.111111,-23.110977 c 2.6666666,1.345256 4.878899,0 5.333333,-2.666667 v -1.777778 c -1.890501,5.165935 -3.4285642,2.750753 -6.2222219,1.777778 -5.33333322,-1.777778 -7.9999999,4.444444 -6.28712922,11.555555 z"
       id="path845"
       class="error"
       sodipodi:nodetypes="ccccccc"
       style="stroke-width:1.07223" />
    <!--Add this to all icons at dirst place and do not change the id or style-->
    <path
       inkscape:connector-curvature="0"
       d="m -26.770977,9.5325107 h 0.953796 c 3.525071,-4.7838962 -0.329268,-10.5601702 8.039403,-12.1991773 2.682666,-0.525401 5.29393,-0.1817746 5.29393,-0.1817746 v -0.952381 c 0,0 -2.765251,-0.6279818 -5.815706,-0.2127461 -10.676612,1.4533275 -5.271093,9.1016349 -8.471423,13.546079 z"
       id="rect44369"
       class="error"
       sodipodi:nodetypes="ccsccsc"
       style="stroke-width:1.07223" />
    <g
       id="g847"
       transform="matrix(1.3278926,0.1489105,0.37443527,1.2955691,-15.866052,-39.441786)">
      <g
         id="g852">
        <g
           id="g857">
          <path
             inkscape:label="tip"
             class="error"
             d="M 7.1479848,39.608227 C 5.5639141,42.068397 3.8457479,43.010287 0.30961075,42.672318 2.0277771,41.730427 4.3145874,38.771904 6.4118558,38.62592 Z"
             id="path838"
             inkscape:connector-curvature="0"
             sodipodi:nodetypes="cccc"
             style="stroke-width:1.02901" />
          <g
             id="g849"
             transform="matrix(1.0622767,-0.09619536,0.09798557,0.98791245,-3.2010245,1.5012683)">
            <path
               inkscape:label="mid"
               id="path840"
               d="m 7.2956478,35.729773 -1.2684351,1.900469 0.9998302,0.986236 1.9274127,-1.187482 z"
               inkscape:connector-curvature="0"
               sodipodi:nodetypes="ccccc" />
            <path
               inkscape:label="top"
               d="M 14.900331,30.794892 8.9544556,37.428996 7.2956477,35.729773 14.070927,29.94528 c 1.05076,-0.196124 1.05076,-0.196124 0.829404,0.849612 z"
               id="path842"
               inkscape:connector-curvature="0"
               sodipodi:nodetypes="ccccc" />
          </g>
        </g>
      </g>
    </g>
    <path
       style="fill:none;stroke:#21b083;stroke-width:0.266665;stroke-linecap:butt;stroke-linejoin:miter;stroke-miterlimit:4;stroke-dasharray:none;stroke-opacity:1"
       d="M 23.312537,12.243018 32.888888,2.6666666"
       id="path841" />
    <path
       inkscape:connector-curvature="0"
       d="M 1.55861,1.789587 C -2.1195821,4.9771447 0.80817188,13.315422 0.88888888,13.333333 L 1.7777778,12.444444 c 0,0 -1.66877242,-7.559613 1.0888372,-9.1574173 3.4923799,-2.0235423 7.800052,0.2685288 10.466718,-3.22353458 v -0.952381 C 10.18003,2.2822012 4.1839352,-0.48554579 1.55861,1.789587 Z"
       id="path843"
       class="error"
       sodipodi:nodetypes="sccsccs"
       style="stroke-width:1.07223" />
  </g>
</svg>
