<?xml version="1.0" encoding="UTF-8" standalone="no"?>
<svg
   xmlns:dc="http://purl.org/dc/elements/1.1/"
   xmlns:cc="http://creativecommons.org/ns#"
   xmlns:rdf="http://www.w3.org/1999/02/22-rdf-syntax-ns#"
   xmlns:svg="http://www.w3.org/2000/svg"
   xmlns="http://www.w3.org/2000/svg"
   xmlns:sodipodi="http://sodipodi.sourceforge.net/DTD/sodipodi-0.dtd"
   xmlns:inkscape="http://www.inkscape.org/namespaces/inkscape"
   inkscape:version="1.0.1 (3bc2e813f5, 2020-09-07)"
   sodipodi:docname="distribute-horizontal-baseline-symbolic.svg"
   viewBox="0 0 16 16"
   height="16"
   width="16"
   id="svg1"
   version="1.1">
  <style
     id="s0">
   .success { fill: #009909; }
   .warning { fill: #FF1990; }
   .error   { fill: #00AAFF; }
  </style>
  <style
     id="s2"> 
     @import '../../highlights.css'; 
  </style>
  <metadata
     id="metadata2306">
    <rdf:RDF>
      <cc:Work
         rdf:about="">
        <dc:format>image/svg+xml</dc:format>
        <dc:type
           rdf:resource="http://purl.org/dc/dcmitype/StillImage" />
        <dc:title></dc:title>
      </cc:Work>
    </rdf:RDF>
  </metadata>
  <defs
     id="defs2304" />
  <sodipodi:namedview
     inkscape:document-rotation="0"
     inkscape:current-layer="distribute-horizontal-baseline"
     inkscape:window-maximized="1"
     inkscape:window-y="-9"
     inkscape:window-x="-9"
     inkscape:window-height="1013"
     inkscape:window-width="1920"
     inkscape:cy="4.2663655"
     inkscape:cx="27.74989"
     inkscape:zoom="15.477856"
     showgrid="true"
     id="namedview"
     guidetolerance="10"
     gridtolerance="10"
     objecttolerance="10">
    <inkscape:grid
       id="grid"
       type="xygrid"
       spacingx="0.66667"
       spacingy="0.66667" />
  </sodipodi:namedview>
  <g
     id="distribute-horizontal-baseline"
     inkscape:label="00287"
     transform="matrix(0.666667,0,0,0.666667,-696,-523.57479)">
    <path
       d="m 1052.9995,799.28686 c -0.5076,0 -0.8905,0.0843 -1.1489,0.25299 -0.2537,0.16866 -0.3807,0.41721 -0.3807,0.74565 0,0.30181 0.102,0.53927 0.306,0.71236 0.2084,0.16867 0.4962,0.253 0.8632,0.253 0.4578,0 0.843,-0.15978 1.1557,-0.47935 0.3127,-0.324 0.469,-0.7279 0.469,-1.21169 v -0.27296 h -1.2643 m 3.7183,-0.89878 v 4.25422 h -2.454 v -1.10517 c -0.3263,0.45273 -0.6933,0.78339 -1.1012,0.99199 -0.4078,0.20417 -0.9041,0.30625 -1.4887,0.30625 -0.7885,0 -1.4298,-0.22414 -1.9237,-0.67242 -0.4895,-0.45271 -0.7342,-1.03858 -0.7342,-1.75761 0,-0.87437 0.3059,-1.51572 0.9177,-1.92406 0.6163,-0.40832 1.5816,-0.61249 2.8958,-0.6125 h 1.4343 v -0.18642 c 0,-0.37725 -0.1518,-0.65243 -0.4555,-0.82554 -0.3035,-0.17753 -0.7771,-0.2663 -1.4206,-0.2663 -0.5213,0 -1.0061,0.051 -1.4548,0.15312 -0.4486,0.10209 -0.8655,0.25522 -1.2507,0.45938 v -1.81753 c 0.5211,-0.12428 1.0446,-0.21748 1.5703,-0.27963 0.5257,-0.0666 1.0513,-0.0998 1.577,-0.0999 1.3732,1e-5 2.3633,0.26632 2.9706,0.79892 0.6118,0.52818 0.9177,1.38923 0.9177,2.58316"
       id="path22457"
       inkscape:connector-curvature="0"
       class="error"
       style="opacity:0.9;fill:#00aaff;stroke-width:1.46145" />
    <path
       sodipodi:nodetypes="ccccccccccccccccc"
       id="path22455-7-4"
       d="m 1059.2589,795.36184 c 0.7492,-0.53907 2.0229,-0.34582 2.591,0.27753 0.9385,0.94405 1.2099,2.15171 1.5552,3.28174 0.2561,0.96371 0.417,1.94239 0.482,2.92479 0.7585,-1.24235 1.6323,-2.57674 1.6482,-3.97572 0.021,-0.70712 -0.493,-1.3065 -0.8363,-1.93182 -0.2836,-0.52412 0.4971,-1.0695 1.1666,-0.90135 0.8199,0.132 0.9566,0.88078 0.9329,1.4177 -0.086,1.59688 -0.8776,3.16485 -1.6784,4.62427 -1.1348,1.92728 -2.7592,3.71457 -4.8838,5.0707 -0.8355,0.49693 -2.9487,1.07326 -3.9921,0.77395 -1.9243,-0.79243 -1.9243,-2.37731 0,-2.37731 0.9543,-0.0532 2.4429,0.99048 3.1512,0.9708 1.1689,-0.007 2.0022,-0.83719 2.3177,-1.62779 0.3206,-1.04593 0.02,-2.12656 -0.1774,-3.16941 -0.3226,-1.35566 -0.6857,-2.73878 -1.5361,-3.96519 -0.174,-0.47631 -1.5367,-0.7594 -0.7407,-1.39289 z"
       inkscape:connector-curvature="0"
       class="error"
       style="opacity:0.9;fill:#00aaff;stroke-width:1.41421" />
    <rect
       id="rect1404-2"
       width="1.0000032"
       height="17.000086"
       x="1047.9995"
       y="787.36182"
       class="base"
       style="fill:#4d4d4d;stroke-width:1.10195" />
    <rect
       id="rect1404-2-5"
       width="1.0000032"
       height="20.00009"
       x="1057.9995"
       y="787.36182"
       class="base"
       style="fill:#4d4d4d;stroke-width:1.19523" />
    <g
       id="g884"
       transform="rotate(90,1055.9997,797.3619)">
      <path
         id="rect873"
         style="opacity:0.8;fill:#4d4d4d;stroke-width:0.509625"
         d="m 1047.9996,809.36199 -1e-4,-3.0001 h -1 l 1.0001,-0.9998 h 0.9999 l 1.0001,0.9998 h -1.0001 v 3.0001 z"
         class="base"
         sodipodi:nodetypes="ccccccccc" />
      <path
         id="rect875"
         style="opacity:0.8;fill:#4d4d4d;stroke-width:0.507093"
         d="m 1047.9996,794.36183 -1.0001,-1 h 1 l 1e-4,-3.0001 h 0.9999 v 3.0001 h 1.0001 l -1.0001,1 z"
         class="base"
         sodipodi:nodetypes="ccccccccc" />
    </g>
  </g>
</svg>
