<?xml version="1.0" encoding="UTF-8" standalone="no"?>
<svg
   xmlns:dc="http://purl.org/dc/elements/1.1/"
   xmlns:cc="http://creativecommons.org/ns#"
   xmlns:rdf="http://www.w3.org/1999/02/22-rdf-syntax-ns#"
   xmlns:svg="http://www.w3.org/2000/svg"
   xmlns="http://www.w3.org/2000/svg"
   xmlns:sodipodi="http://sodipodi.sourceforge.net/DTD/sodipodi-0.dtd"
   xmlns:inkscape="http://www.inkscape.org/namespaces/inkscape"
   version="1.1"
   id="svg1"
   width="16"
   height="16"
   viewBox="0 0 16 16"
   sodipodi:docname="draw-cuboid-symbolic.svg"
   inkscape:version="1.0.1 (3bc2e813f5, 2020-09-07)">
  <style
     id="s0">
   .success { fill: #009909; }
   .warning { fill: #FF1990; }
   .error   { fill: #00AAFF; }
  </style>
  <style
     id="s2"> 
     @import '../../highlights.css'; 
  </style>
  <metadata
     id="metadata1282">
    <rdf:RDF>
      <cc:Work
         rdf:about="">
        <dc:format>image/svg+xml</dc:format>
        <dc:type
           rdf:resource="http://purl.org/dc/dcmitype/StillImage" />
        <dc:title />
      </cc:Work>
    </rdf:RDF>
  </metadata>
  <defs
     id="defs1280">
    <inkscape:path-effect
       effect="join_type"
       id="path-effect848"
       is_visible="true"
       lpeversion="1"
       linecap_type="butt"
       line_width="1.2"
       linejoin_type="extrp_arc"
       miter_limit="100"
       attempt_force_join="true" />
    <inkscape:path-effect
       effect="join_type"
       id="path-effect979"
       is_visible="true"
       linecap_type="butt"
       line_width="1.2"
       linejoin_type="round"
       miter_limit="100"
       attempt_force_join="true" />
  </defs>
  <sodipodi:namedview
     inkscape:snap-others="false"
     objecttolerance="10"
     gridtolerance="10"
     guidetolerance="10"
     id="namedview"
     showgrid="true"
     inkscape:zoom="45.714286"
     inkscape:cx="15.250551"
     inkscape:cy="7.7269239"
     inkscape:window-width="1920"
     inkscape:window-height="1013"
     inkscape:window-x="-9"
     inkscape:window-y="-9"
     inkscape:window-maximized="1"
     inkscape:current-layer="g0"
     inkscape:document-rotation="0"
     showguides="false">
    <inkscape:grid
       type="xygrid"
       id="grid"
       spacingx="0.66666667"
       spacingy="0.66667" />
  </sodipodi:namedview>
  <g
     inkscape:label="draw-cuboid"
     id="g0">
    <path
       id="background"
       d="M 0,0 H 16 V 16 H 0 Z"
       style="opacity:0"
       inkscape:connector-curvature="0" />
    <path
       sodipodi:nodetypes="ccccc"
       class="base"
       d="M 13.791406,10.418965 8,13.776371 V 7 l 5.791406,-2.3621408 z"
       inkscape:label="right"
       style="opacity:0.3"
       id="polygon1116"
       inkscape:connector-curvature="0" />
    <path
       sodipodi:nodetypes="ccccc"
       class="base"
       d="M 2.2133298,4.6378592 V 11.418965 L 8,13.776371 V 7 Z"
       inkscape:label="left"
       style="opacity:0.5"
       id="polygon1118"
       inkscape:connector-curvature="0" />
    <path
       sodipodi:nodetypes="ccccc"
       d="M 8,7 2.2133298,4.6378592 9,2.5 13.791406,4.6378592 Z"
       inkscape:label="top"
       style="opacity:0.1"
       id="polygon1122"
       inkscape:connector-curvature="0"
       class="base" />
    <path
       style="stroke-width:1"
       sodipodi:nodetypes="ccccccc"
       inkscape:connector-curvature="0"
       id="path946"
       d="M 1.8225882,4.093519 A 0.6,0.6 0 0 0 1.4000036,4.6646055 l -0.023459,6.7522735 a 0.6,0.6 0 0 0 0.3636739,0.553584 l 6.0234588,2.581106 a 0.6,0.6 0 0 0 0.5277094,-0.02701 l 6.0000001,-3.33335 A 0.6,0.6 0 0 0 14.6,10.66672 V 4.66669 A 0.6,0.6 0 0 0 14.238567,4.1161577 L 9.2385736,1.9494677 A 0.6,0.6 0 0 0 8.8225949,1.926829 Z M 13.761433,5.2172223 13.4,4.66669 v 6.00003 l 0.308613,-0.524494 -5.9999999,3.33335 0.5277094,-0.02701 L 2.2128637,10.867465 2.5765376,11.421049 2.5999964,4.6687745 2.1774118,5.239861 9.1774185,3.073171 8.7614398,3.0505323 Z"
       inkscape:path-effect="#path-effect979"
       inkscape:original-d="M 9.0000067,2.5 2,4.66669 1.9765412,11.418964 8,14.00007 14,10.66672 V 4.66669 Z"
       inkscape:label="outline" />
    <g
       id="g868"
       style="font-variation-settings:normal;opacity:1;vector-effect:none;fill:#000000;fill-opacity:1;stroke-width:1;stroke-linecap:butt;stroke-linejoin:miter;stroke-miterlimit:4;stroke-dasharray:none;stroke-dashoffset:0;stroke-opacity:1;stop-color:#000000;stop-opacity:1"
       transform="translate(11.57362,0.25883842)" />
    <path
       d="M 8,7.6437728 14.217466,5.2258935 13.782534,4.1074865 7.4,6.5895582 V 14.00007 H 8.6 V 6.5895582 L 2.2174659,4.1074865 1.7825341,5.2258935 Z M 7.7825341,7.5592035 7.4,7 v 7.00007 H 8.6 V 7 l -0.3825341,0.5592035 6.0000001,-2.33331 -0.434932,-1.118407 -5.9999999,2.33331 h 0.4349318 l -6,-2.33331 -0.4349318,1.118407 z"
       id="path842"
       style="fill:#000000;fill-rule:nonzero;stroke:none;stroke-width:1px;stroke-linecap:butt;stroke-linejoin:miter;stroke-opacity:1"
       inkscape:path-effect="#path-effect848"
       inkscape:original-d="M 2,4.66669 8,7 14,4.66669 8,7 V 14.00007 7 Z" />
  </g>
</svg>
