<?xml version="1.0" encoding="UTF-8" standalone="no"?>
<svg
   xmlns:dc="http://purl.org/dc/elements/1.1/"
   xmlns:cc="http://creativecommons.org/ns#"
   xmlns:rdf="http://www.w3.org/1999/02/22-rdf-syntax-ns#"
   xmlns:svg="http://www.w3.org/2000/svg"
   xmlns="http://www.w3.org/2000/svg"
   xmlns:sodipodi="http://sodipodi.sourceforge.net/DTD/sodipodi-0.dtd"
   xmlns:inkscape="http://www.inkscape.org/namespaces/inkscape"
   inkscape:version="1.0.1 (3bc2e813f5, 2020-09-07)"
   sodipodi:docname="edit-paste-style-symbolic.svg"
   viewBox="0 0 16 16"
   height="16"
   width="16"
   id="svg1"
   version="1.1">
  <metadata
     id="metadata7580">
    <rdf:RDF>
      <cc:Work
         rdf:about="">
        <dc:format>image/svg+xml</dc:format>
        <dc:type
           rdf:resource="http://purl.org/dc/dcmitype/StillImage" />
        <dc:title />
      </cc:Work>
    </rdf:RDF>
  </metadata>
  <defs
     id="defs7578">
    <inkscape:path-effect
       effect="fillet_chamfer"
       id="path-effect843"
       is_visible="true"
       lpeversion="1"
       satellites_param="F,0,0,1,0,0,0,1 @ F,0,0,1,0,0.4,0,1 @ F,0,0,1,0,0.4,0,1 @ F,0,0,1,0,0.4,0,1 @ F,0,0,1,0,0.4,0,1 @ F,0,0,1,0,0,0,1"
       unit="px"
       method="auto"
       mode="F"
       radius="0.4"
       chamfer_steps="1"
       flexible="false"
       use_knot_distance="true"
       apply_no_radius="true"
       apply_with_radius="true"
       only_selected="false"
       hide_knots="false" />
    <inkscape:path-effect
       effect="join_type"
       id="path-effect846"
       is_visible="true"
       lpeversion="1"
       linecap_type="butt"
       line_width="1.329996"
       linejoin_type="extrp_arc"
       miter_limit="100"
       attempt_force_join="true" />
  </defs>
  <style
     id="s0">
.success { fill:#009909; }
.warning { fill:#FF1990; }
.error { fill:#00AAFF; }
</style>
  <style
     id="s2">
@import '../../highlights.css';
</style>
  <sodipodi:namedview
     inkscape:document-rotation="0"
     inkscape:current-layer="svg1"
     inkscape:window-maximized="1"
     inkscape:window-y="-9"
     inkscape:window-x="-9"
     inkscape:window-height="1013"
     inkscape:window-width="1920"
     inkscape:cy="3.0963852"
     inkscape:cx="18.774635"
     inkscape:zoom="29.375"
     showgrid="true"
     id="namedview"
     guidetolerance="10"
     gridtolerance="10"
     objecttolerance="10"
     showguides="false">
    <inkscape:grid
       id="grid"
       type="xygrid"
       spacingx="0.66667"
       spacingy="0.66667" />
  </sodipodi:namedview>
  <rect
     id="rect838"
     width="4.00002"
     height="2.6665928"
     x="6.0000286"
     y="2.000056"
     ry="0.66659993"
     class="base"
     style="fill:#616161;stroke-width:1.15471" />
  <path
     style="fill:#000000;fill-rule:nonzero;stroke:none;stroke-width:0.999997px;stroke-linecap:butt;stroke-linejoin:miter;stroke-opacity:1"
     d="m 10.666718,3.9983556 h 0.93334 c 0,0 -0.04217,-0.00344 -0.04217,-0.00344 0,0 -0.0374,-0.0089 -0.0374,-0.0089 0,0 -0.03182,-0.012312 -0.03182,-0.012312 0,0 -0.02657,-0.014155 -0.02657,-0.014155 0,0 -0.02204,-0.014969 -0.02204,-0.014969 0,0 -0.01827,-0.015149 -0.01827,-0.015149 0,0 -0.01516,-0.014939 -0.01516,-0.014939 0,0 -0.0126,-0.014485 -0.0126,-0.014485 0,0 -0.05898,-0.1666483 -0.05898,-0.1666483 v 9.2000404 c 0,0 0.05898,-0.166648 0.05898,-0.166648 0,0 0.0126,-0.01449 0.0126,-0.01449 0,0 0.01516,-0.01494 0.01516,-0.01494 0,0 0.01827,-0.01515 0.01827,-0.01515 0,0 0.02204,-0.01497 0.02204,-0.01497 0,0 0.02657,-0.01415 0.02657,-0.01415 0,0 0.03182,-0.01231 0.03182,-0.01231 0,0 0.0374,-0.0089 0.0374,-0.0089 0,0 0.04217,-0.0034 0.04217,-0.0034 h -7.20004 c 0,0 0.04217,0.0034 0.04217,0.0034 0,0 0.0374,0.0089 0.0374,0.0089 0,0 0.031817,0.01231 0.031817,0.01231 0,0 0.026566,0.01415 0.026566,0.01415 0,0 0.02204,0.01497 0.02204,0.01497 0,0 0.018271,0.01515 0.018271,0.01515 0,0 0.015163,0.01494 0.015163,0.01494 0,0 0.012595,0.01449 0.012595,0.01449 0,0 0.058976,0.166648 0.058976,0.166648 V 3.7333576 c 0,0 -0.058976,0.1666483 -0.058976,0.1666483 0,0 -0.012595,0.014485 -0.012595,0.014485 0,0 -0.015163,0.014939 -0.015163,0.014939 0,0 -0.018271,0.015149 -0.018271,0.015149 0,0 -0.02204,0.014969 -0.02204,0.014969 0,0 -0.026566,0.014155 -0.026566,0.014155 0,0 -0.031817,0.012312 -0.031817,0.012312 0,0 -0.0374,0.0089 -0.0374,0.0089 0,0 -0.04217,0.00344 -0.04217,0.00344 h 0.93334 v -1.329996 l -0.93334,0 c -0.5915365,0 -1.064998,0.4734615 -1.064998,1.064998 v 9.2000404 c 0,0.591536 0.4734615,1.064998 1.064998,1.064998 h 7.20004 c 0.591536,0 1.064998,-0.473462 1.064998,-1.064998 V 3.7333576 c 0,-0.5915365 -0.473462,-1.064998 -1.064998,-1.064998 l -0.93334,0 z"
     id="path841"
     inkscape:path-effect="#path-effect843;#path-effect846"
     inkscape:original-d="m 10.666718,3.3333576 h 1.33334 V 13.333398 H 4.000018 V 3.3333576 h 1.33334"
     sodipodi:nodetypes="cccccc" />
</svg>
