<?xml version="1.0" encoding="UTF-8" standalone="no"?>
<svg
   version="1.1"
   id="svg1"
   width="16"
   height="16"
   viewBox="0 0 16 16"
   sodipodi:docname="gradient-library-symbolic.svg"
   inkscape:version="1.2-dev (a566a326bc, 2021-06-15)"
   xmlns:inkscape="http://www.inkscape.org/namespaces/inkscape"
   xmlns:sodipodi="http://sodipodi.sourceforge.net/DTD/sodipodi-0.dtd"
   xmlns="http://www.w3.org/2000/svg"
   xmlns:svg="http://www.w3.org/2000/svg"
   xmlns:rdf="http://www.w3.org/1999/02/22-rdf-syntax-ns#"
   xmlns:cc="http://creativecommons.org/ns#"
   xmlns:dc="http://purl.org/dc/elements/1.1/">
  <metadata
     id="metadata13829">
    <rdf:RDF>
      <cc:Work
         rdf:about="">
        <dc:format>image/svg+xml</dc:format>
        <dc:type
           rdf:resource="http://purl.org/dc/dcmitype/StillImage" />
        <dc:title />
      </cc:Work>
    </rdf:RDF>
  </metadata>
  <defs
     id="defs13827" />
  <style
     id="s0">
.success { fill:#009909; }
.warning { fill:#FF1990; }
.error { fill:#00AAFF; }
</style>
  <style
     id="s2">
@import '../../highlights.css';
</style>
  <sodipodi:namedview
     objecttolerance="10"
     gridtolerance="10"
     guidetolerance="10"
     id="namedview"
     showgrid="false"
     inkscape:zoom="30.628513"
     inkscape:cx="8.4888221"
     inkscape:cy="8.4888221"
     inkscape:window-width="1500"
     inkscape:window-height="933"
     inkscape:window-x="0"
     inkscape:window-y="0"
     inkscape:window-maximized="1"
     inkscape:current-layer="svg1"
     inkscape:document-rotation="0"
     pagecolor="#ffffff"
     bordercolor="#666666"
     borderopacity="1.0"
     inkscape:pageshadow="2"
     inkscape:pageopacity="0.0"
     inkscape:pagecheckerboard="false">
    <inkscape:grid
       type="xygrid"
       id="grid" />
  </sodipodi:namedview>
  <g
     id="g1842"
     transform="matrix(-1,0,0,1,16,0)">
    <rect y="11" x="13" height="3" width="2" id="rect1138" style="opacity:1" />
    <rect y="11" x="12" height="3" width="1" id="rect1158" style="opacity:0.95" />
    <rect y="11" x="11" height="3" width="1" id="rect1160" style="opacity:0.90" />
    <rect y="11" x="10" height="3" width="1" id="rect1162" style="opacity:0.85" />
    <rect y="11" x="9" height="3" width="1" id="rect1164" style="opacity:0.80" />
    <rect y="11" x="8" height="3" width="1" id="rect1166" style="opacity:0.75" />
    <rect y="11" x="7" height="3" width="1" id="rect1168" style="opacity:0.70" />
    <rect y="11" x="6" height="3" width="1" id="rect1170" style="opacity:0.65" />
    <rect y="11" x="5" height="3" width="1" id="rect1172" style="opacity:0.60" />
    <rect y="11" x="4" height="3" width="1" id="rect1174" style="opacity:0.55" />
    <rect y="11" x="3" height="3" width="1" id="rect831" style="opacity:0.50" />
    <rect y="11" x="2" height="3" width="1" id="rect1176" style="opacity:0.45" />
    <rect y="11" x="1" height="3" width="1" id="rect1268" style="opacity:0.40" />
  </g>
  
  <rect
     y="6"
     x="1"
     height="3"
     width="14"
     id="rect1487"
     style="stroke-width:1" />
  <rect
     y="1"
     x="1"
     height="3"
     width="14"
     id="rect1540"
     style="stroke-width:1" />
  <g
     id="g1664"
     transform="matrix(-1,0,0,1,16,0)">
    <rect y="1" x="13" height="3" width="2" id="rect1461" class="error" style="opacity:1.00" />
    <rect y="1" x="12" height="3" width="1" id="rect1463" class="error" style="opacity:0.95" />
    <rect y="1" x="11" height="3" width="1" id="rect1465" class="error" style="opacity:0.90" />
    <rect y="1" x="10" height="3" width="1" id="rect1467" class="error" style="opacity:0.85" />
    <rect y="1" x="9"  height="3" width="1" id="rect1469" class="error" style="opacity:0.80" />
    <rect y="1" x="8"  height="3" width="1" id="rect1471" class="error" style="opacity:0.75" />
    <rect y="1" x="7"  height="3" width="1" id="rect1473" class="error" style="opacity:0.70" />
    <rect y="1" x="6"  height="3" width="1" id="rect1475" class="error" style="opacity:0.60" />
    <rect y="1" x="5"  height="3" width="1" id="rect1477" class="error" style="opacity:0.50" />
    <rect y="1" x="4"  height="3" width="1" id="rect1479" class="error" style="opacity:0.40" />
    <rect y="1" x="3"  height="3" width="1" id="rect1459" class="error" style="opacity:0.30" />
    <rect y="1" x="2"  height="3" width="1" id="rect1481" class="error" style="opacity:0.20" />
    <rect y="1" x="1"  height="3" width="1" id="rect1483" class="error" style="opacity:0.05" />
  </g>
  
  <g
     id="g1557">
    <rect y="6" x="13" height="3" width="2" id="rect1544" class="warning" style="opacity:1" />
    <rect y="6" x="12" height="3" width="1" id="rect1546" class="warning" style="opacity:0.95" />
    <rect y="6" x="11" height="3" width="1" id="rect1548" class="warning" style="opacity:0.90" />
    <rect y="6" x="10" height="3" width="1" id="rect1550" class="warning" style="opacity:0.85" />
    <rect y="6" x="9"  height="3" width="1" id="rect1552" class="warning" style="opacity:0.80" />
    <rect y="6" x="8"  height="3" width="1" id="rect1554" class="warning" style="opacity:0.75" />
    <rect y="6" x="7"  height="3" width="1" id="rect1556" class="warning" style="opacity:0.70" />
    <rect y="6" x="6"  height="3" width="1" id="rect1558" class="warning" style="opacity:0.60" />
    <rect y="6" x="5"  height="3" width="1" id="rect1560" class="warning" style="opacity:0.50" />
    <rect y="6" x="4"  height="3" width="1" id="rect1562" class="warning" style="opacity:0.40" />
    <rect y="6" x="3"  height="3" width="1" id="rect1542" class="warning" style="opacity:0.30" />
    <rect y="6" x="2"  height="3" width="1" id="rect1564" class="warning" style="opacity:0.20" />
    <rect y="6" x="1"  height="3" width="1" id="rect1566" class="warning" style="opacity:0.05" />
  </g>
  
</svg>
