<?xml version="1.0" encoding="UTF-8" standalone="no"?>
<svg
   inkscape:version="1.1 (c68e22c387, 2021-05-23)"
   sodipodi:docname="layer-delete-symbolic.svg"
   viewBox="0 0 16 16"
   height="16"
   width="16"
   id="svg1"
   version="1.1"
   xmlns:inkscape="http://www.inkscape.org/namespaces/inkscape"
   xmlns:sodipodi="http://sodipodi.sourceforge.net/DTD/sodipodi-0.dtd"
   xmlns="http://www.w3.org/2000/svg"
   xmlns:svg="http://www.w3.org/2000/svg"
   xmlns:rdf="http://www.w3.org/1999/02/22-rdf-syntax-ns#"
   xmlns:cc="http://creativecommons.org/ns#"
   xmlns:dc="http://purl.org/dc/elements/1.1/">
  <metadata
     id="metadata3474">
    <rdf:RDF>
      <cc:Work
         rdf:about="">
        <dc:format>image/svg+xml</dc:format>
        <dc:type
           rdf:resource="http://purl.org/dc/dcmitype/StillImage" />
      </cc:Work>
    </rdf:RDF>
  </metadata>
  <defs
     id="defs3472" />
  <style
     id="s0">
.success { fill:#009909; }
.warning { fill:#FF1990; }
.error { fill:#00AAFF; }
</style>
  <style
     id="s2">
@import '../../highlights.css';
</style>
  <sodipodi:namedview
     inkscape:document-rotation="0"
     inkscape:current-layer="svg1"
     inkscape:window-maximized="1"
     inkscape:window-y="-9"
     inkscape:window-x="-9"
     inkscape:window-height="1013"
     inkscape:window-width="1920"
     inkscape:cy="8.5433526"
     inkscape:cx="7.8265896"
     inkscape:zoom="43.25"
     showgrid="true"
     id="namedview"
     guidetolerance="10"
     gridtolerance="10"
     objecttolerance="10"
     pagecolor="#ffffff"
     bordercolor="#999999"
     borderopacity="1"
     inkscape:pageshadow="0"
     inkscape:pageopacity="0"
     inkscape:pagecheckerboard="0">
    <inkscape:grid
       id="grid"
       type="xygrid" />
  </sodipodi:namedview>
  <g
     id="layer-delete"
     inkscape:label="00052"
     transform="translate(-85,-727.36218)">
    <path
       style="opacity:0;fill:none"
       d="m 105,727.36218 h 16 v 16 h -16 z"
       id="rect39839"
       inkscape:connector-curvature="0" />
    <path
       style="opacity:1"
       d="m 109,739.3622 -3,3 h 11 l 3,-3 z"
       id="path39841"
       inkscape:connector-curvature="0" />
    <path
       class="warning"
       inkscape:connector-curvature="0"
       style="opacity:1"
       d="m 111,728.3622 c -0.554,0 -1,0.446 -1,1 v 7 c 0,0.554 0.446,1 1,1 h 7 c 0.554,0 1,-0.446 1,-1 v -7 c 0,-0.554 -0.446,-1 -1,-1 z m 1.9063,0.7187 1.7812,2.1563 1.7813,-2.1563 1.5312,1.2813 -2.0312,2.4375 2.0312,2.4687 -1.5312,1.2813 -1.7813,-2.1563 -1.7812,2.1563 -1.5313,-1.2813 2.0313,-2.4687 -2.0313,-2.4375 z"
       id="path39843" />
  </g>
  <path
     d="m 3,3 h 1 l 4,4 4,-4 h 1 v 1 l -4,4 4,4 v 1 H 12 L 8,9 4,13 H 3 V 12 L 7,8 3,4 Z"
     id="path845" />
</svg>
