<?xml version="1.0" encoding="UTF-8" standalone="no"?>
<svg
   inkscape:version="1.1 (c68e22c387, 2021-05-23)"
   sodipodi:docname="object-ungroup-symbolic.svg"
   viewBox="0 0 16 16"
   height="16"
   width="16"
   id="svg1"
   version="1.1"
   xmlns:inkscape="http://www.inkscape.org/namespaces/inkscape"
   xmlns:sodipodi="http://sodipodi.sourceforge.net/DTD/sodipodi-0.dtd"
   xmlns="http://www.w3.org/2000/svg"
   xmlns:svg="http://www.w3.org/2000/svg"
   xmlns:rdf="http://www.w3.org/1999/02/22-rdf-syntax-ns#"
   xmlns:cc="http://creativecommons.org/ns#"
   xmlns:dc="http://purl.org/dc/elements/1.1/">
  <metadata
     id="metadata3639">
    <rdf:RDF>
      <cc:Work
         rdf:about="">
        <dc:format>image/svg+xml</dc:format>
        <dc:type
           rdf:resource="http://purl.org/dc/dcmitype/StillImage" />
        <dc:title />
      </cc:Work>
    </rdf:RDF>
  </metadata>
  <defs
     id="defs3637">
    <inkscape:path-effect
       effect="join_type"
       id="path-effect869"
       is_visible="true"
       lpeversion="1"
       linecap_type="butt"
       line_width="0.77"
       linejoin_type="extrp_arc"
       miter_limit="100"
       attempt_force_join="true" />
    <inkscape:path-effect
       effect="join_type"
       id="path-effect854"
       is_visible="true"
       lpeversion="1"
       linecap_type="butt"
       line_width="0.77"
       linejoin_type="extrp_arc"
       miter_limit="100"
       attempt_force_join="true" />
    <inkscape:path-effect
       effect="join_type"
       id="path-effect893"
       is_visible="true"
       lpeversion="1"
       linecap_type="butt"
       line_width="0.77"
       linejoin_type="extrp_arc"
       miter_limit="100"
       attempt_force_join="true" />
  </defs>
  <style
     id="s0">
.success { fill:#009909; }
.warning { fill:#FF1990; }
.error { fill:#00AAFF; }
</style>
  <style
     id="s2">
@import '../../highlights.css';
</style>
  <sodipodi:namedview
     inkscape:document-rotation="0"
     inkscape:current-layer="svg1"
     inkscape:window-maximized="1"
     inkscape:window-y="-9"
     inkscape:window-x="-9"
     inkscape:window-height="1013"
     inkscape:window-width="1920"
     inkscape:cy="7.0178723"
     inkscape:cx="5.5046808"
     inkscape:zoom="41.964286"
     showgrid="true"
     id="namedview"
     guidetolerance="10"
     gridtolerance="10"
     objecttolerance="10"
     inkscape:snap-bbox="true"
     inkscape:bbox-nodes="true"
     pagecolor="#ffffff"
     bordercolor="#999999"
     borderopacity="1"
     inkscape:pageshadow="0"
     inkscape:pageopacity="0"
     inkscape:pagecheckerboard="0">
    <inkscape:grid
       id="grid"
       type="xygrid"
       spacingx="0.66667"
       spacingy="0.66667" />
  </sodipodi:namedview>
  <rect
     id="rect846"
     width="1.9999986"
     height="2.0000315"
     x="2.0000215"
     y="1.9999673"
     style="fill:#4d4d4d;stroke-width:5.66929" />
  <rect
     id="rect854"
     width="1.9999667"
     height="1.9999882"
     x="4.6664753"
     y="-14.000057"
     transform="matrix(-1.3439179e-6,1,-1,-2.1502227e-5,0,0)"
     style="fill:#4d4d4d;stroke-width:5.66922" />
  <rect
     id="rect868"
     width="1.9999771"
     height="1.9999794"
     x="-14.000029"
     y="4.6669784"
     transform="matrix(2.1502481e-5,-1,1,1.343902e-6,0,0)"
     style="fill:#4d4d4d;stroke-width:5.66922" />
  <rect
     id="rect860"
     width="1.9999667"
     height="1.9999882"
     x="1.9997663"
     y="-11.333393"
     transform="matrix(-1.3439179e-6,1,-1,-2.1502227e-5,0,0)"
     style="fill:#4d4d4d;stroke-width:5.66922" />
  <rect
     id="rect863"
     width="1.9999771"
     height="1.9999794"
     x="-11.333387"
     y="2.0002537"
     transform="matrix(2.1502481e-5,-1,1,1.343902e-6,0,0)"
     style="fill:#4d4d4d;stroke-width:5.66922" />
  <rect
     id="rect862-5"
     width="2.0000098"
     height="1.9999627"
     x="-14.00007"
     y="-14.000023"
     transform="scale(-1)"
     style="fill:#4d4d4d;stroke-width:5.66922" />
  <path
     id="path870-1"
     inkscape:path-effect="#path-effect869"
     sodipodi:type="arc"
     sodipodi:cx="6.6691623"
     sodipodi:cy="6.6691618"
     sodipodi:rx="3"
     sodipodi:ry="3"
     class="base"
     style="fill:#404040;stroke-width:0.909878"
     d="m 6.6691623,9.2841618 c -1.4422827,0 -2.615,-1.1727174 -2.615,-2.615 0,-1.4422826 1.1727173,-2.615 2.615,-2.615 1.4422826,0 2.615,1.1727174 2.615,2.615 0,1.4422826 -1.1727174,2.615 -2.615,2.615 z m 0,-6 c -1.8714259,0 -3.385,1.5135741 -3.385,3.385 0,1.8714259 1.5135741,3.3850002 3.385,3.3850002 1.8714258,0 3.3849997,-1.5135743 3.3849997,-3.3850002 0,-1.8714259 -1.5135739,-3.385 -3.3849997,-3.385 z" />
  <path
     id="rect923-1"
     style="opacity:0.9;fill:#4d4d4d;stroke:none;stroke-width:0.667;stroke-miterlimit:4;stroke-dasharray:none;stroke-opacity:1;stop-color:#000000"
     d="m 10.66672,6.6666999 c 0,0.2407549 0,0.4313941 0,0.66667 l 0.667324,6.74e-4 -6.54e-4,3.9993461 H 7.33337 v -0.66667 c -0.1862866,0 -0.458661,0 -0.66667,0 l 0.00133,1.33334 h 5.332032 V 6.6680283 Z"
     sodipodi:nodetypes="ccccccccccc" />
</svg>
