<?xml version="1.0" encoding="UTF-8" standalone="no"?>
<svg
   inkscape:version="1.1 (c68e22c387, 2021-05-23)"
   sodipodi:docname="object-hidden-symbolic.svg"
   viewBox="0 0 16 16"
   height="16"
   width="16"
   id="svg1"
   version="1.1"
   xmlns:inkscape="http://www.inkscape.org/namespaces/inkscape"
   xmlns:sodipodi="http://sodipodi.sourceforge.net/DTD/sodipodi-0.dtd"
   xmlns="http://www.w3.org/2000/svg"
   xmlns:svg="http://www.w3.org/2000/svg"
   xmlns:rdf="http://www.w3.org/1999/02/22-rdf-syntax-ns#"
   xmlns:cc="http://creativecommons.org/ns#"
   xmlns:dc="http://purl.org/dc/elements/1.1/">
  <metadata
     id="metadata17682">
    <rdf:RDF>
      <cc:Work
         rdf:about="">
        <dc:format>image/svg+xml</dc:format>
        <dc:type
           rdf:resource="http://purl.org/dc/dcmitype/StillImage" />
        <dc:title />
      </cc:Work>
    </rdf:RDF>
  </metadata>
  <defs
     id="defs17680" />
  <style
     id="s0">
.success { fill:#009909; }
.warning { fill:#FF1990; }
.error { fill:#00AAFF; }
</style>
  <style
     id="s2">
@import '../../highlights.css';
</style>
  <sodipodi:namedview
     inkscape:document-rotation="0"
     inkscape:current-layer="svg1"
     inkscape:window-maximized="1"
     inkscape:window-y="-9"
     inkscape:window-x="-9"
     inkscape:window-height="1013"
     inkscape:window-width="1920"
     inkscape:cy="10.715155"
     inkscape:cx="11.934385"
     inkscape:zoom="21.324936"
     showgrid="true"
     id="namedview"
     guidetolerance="10"
     gridtolerance="10"
     objecttolerance="10"
     inkscape:snap-global="false"
     pagecolor="#ffffff"
     bordercolor="#999999"
     borderopacity="1"
     inkscape:pageshadow="0"
     inkscape:pageopacity="0"
     inkscape:pagecheckerboard="0">
    <inkscape:grid
       id="grid"
       type="xygrid"
       spacingx="0.66667"
       spacingy="0.66667" />
  </sodipodi:namedview>
  <g
     id="g852"
     transform="matrix(0.83333773,0,0,0.83333773,-136.16739,-815.30614)"
     style="stroke-width:1.19999">
    <path
       style="opacity:1;stroke-width:1.19999"
       d="m 165,986.3622 c 0,0 3.5817,6 8,6 4.4183,0 8,-6 8,-6 h -2 c 0,0 -2.134,4 -6,4 -3.866,0 -6,-4 -6,-4 z"
       id="path31334"
       inkscape:connector-curvature="0" />
    <path
       style="opacity:1;stroke-width:1.19999;stroke-linecap:round"
       d="m 166.61018,987.55702 a 0.50005,0.50005 0 0 0 -0.35101,0.13259 l -1.04991,0.94746 a 0.50005,0.50005 0 1 0 0.66989,0.74232 l 1.04992,-0.94746 a 0.50005,0.50005 0 0 0 -0.31889,-0.87491 z"
       id="path8543"
       inkscape:connector-curvature="0" />
    <path
       style="opacity:1;stroke-width:1.19999;stroke-linecap:round"
       d="m 179.44901,987.51292 a 0.50005,0.50005 0 0 0 -0.34766,0.85742 l 1,1 a 0.50005,0.50005 0 1 0 0.70704,-0.70703 l -1,-1 a 0.50005,0.50005 0 0 0 -0.35938,-0.15039 z"
       id="path8545"
       inkscape:connector-curvature="0" />
    <path
       style="opacity:1;stroke-width:1.19999;stroke-linecap:round"
       d="m 169.35892,989.47882 a 0.50005,0.50005 0 0 0 -0.48222,0.16662 l -1.8043,2.06779 a 0.50099556,0.50099556 0 1 0 0.75505,0.6587 l 1.80428,-2.06779 a 0.50005,0.50005 0 0 0 -0.27281,-0.82532 z"
       id="path8572"
       inkscape:connector-curvature="0"
       inkscape:transform-center-x="-0.86130929"
       inkscape:transform-center-y="-0.91261881" />
    <path
       style="opacity:1;stroke-width:1.19999;stroke-linecap:round"
       d="m 171.49979,990.55038 a 0.53343257,0.46875653 49.445797 0 0 -0.48371,0.34355 l -0.62667,2.94907 a 0.53447904,0.46967612 49.445797 1 0 0.97492,0.33353 l 0.62666,-2.94906 a 0.53343257,0.46875653 49.445797 0 0 -0.4912,-0.67709 z"
       id="path8574"
       inkscape:connector-curvature="0" />
    <path
       style="opacity:1;stroke-width:1.19999;stroke-linecap:round"
       d="m 176.66888,989.38507 a 0.50005,0.50005 0 0 0 -0.31078,0.82885 l 1.65485,1.91749 a 0.50005,0.50005 0 1 0 0.75621,-0.65271 l -1.65293,-1.9178 a 0.50005,0.50005 0 0 0 -0.44735,-0.17583 z"
       id="path8580"
       inkscape:connector-curvature="0"
       inkscape:transform-center-x="0.80010253"
       inkscape:transform-center-y="-0.90834312" />
    <path
       style="opacity:1;stroke-width:1.19999;stroke-linecap:round"
       d="m 174.44572,990.34912 a 0.50005,0.50005 0 0 0 -0.49809,0.63102 l 0.78207,3.02276 a 0.50005,0.50005 0 1 0 0.96817,-0.24875 l -0.78206,-3.02276 a 0.50005,0.50005 0 0 0 -0.47009,-0.38227 z"
       id="path8582"
       inkscape:connector-curvature="0" />
  </g>
</svg>
