<?xml version="1.0" encoding="UTF-8" standalone="no"?>
<svg
   xmlns:dc="http://purl.org/dc/elements/1.1/"
   xmlns:cc="http://creativecommons.org/ns#"
   xmlns:rdf="http://www.w3.org/1999/02/22-rdf-syntax-ns#"
   xmlns:svg="http://www.w3.org/2000/svg"
   xmlns="http://www.w3.org/2000/svg"
   xmlns:sodipodi="http://sodipodi.sourceforge.net/DTD/sodipodi-0.dtd"
   xmlns:inkscape="http://www.inkscape.org/namespaces/inkscape"
   inkscape:version="1.0.1 (3bc2e813f5, 2020-09-07)"
   sodipodi:docname="paint-gradient-linear-symbolic.svg"
   viewBox="0 0 16 16"
   height="16"
   width="16"
   id="svg1"
   version="1.1">
  <metadata
     id="metadata13829">
    <rdf:RDF>
      <cc:Work
         rdf:about="">
        <dc:format>image/svg+xml</dc:format>
        <dc:type
           rdf:resource="http://purl.org/dc/dcmitype/StillImage" />
        <dc:title></dc:title>
      </cc:Work>
    </rdf:RDF>
  </metadata>
  <defs
     id="defs13827" />
  <style
     id="s0">
.success { fill:#009909; }
.warning { fill:#FF1990; }
.error { fill:#00AAFF; }
</style>
  <style
     id="s2">
@import '../../highlights.css';
</style>
  <sodipodi:namedview
     inkscape:document-rotation="0"
     inkscape:current-layer="g1156"
     inkscape:window-maximized="1"
     inkscape:window-y="-9"
     inkscape:window-x="-9"
     inkscape:window-height="1013"
     inkscape:window-width="1920"
     inkscape:cy="7.0538528"
     inkscape:cx="30.921532"
     inkscape:zoom="20.982143"
     showgrid="true"
     id="namedview"
     guidetolerance="10"
     gridtolerance="10"
     objecttolerance="10">
    <inkscape:grid
       id="grid"
       type="xygrid"
       spacingx="0.66666667"
       spacingy="0.66667" />
  </sodipodi:namedview>
  <g
     id="g915"
     transform="translate(0,20)">
    <g
       id="g951"
       transform="translate(-0.66667,-0.66667)">
      <g
         id="g1156">
        <rect
           style="opacity:0.8;fill:#252525;stroke-width:0.67;stroke-miterlimit:4;stroke-dasharray:none;stop-color:#000000"
           id="rect855"
           width="12.000001"
           height="12.000061"
           x="2.6666698"
           y="-17.333321" />
        <g
           id="g875">
          <path
             d="m 4.6666783,-5.33326 v -0.750004 -0.750003 -0.750004 -0.7500039 -0.750004 -0.7500029 -0.7500042 -0.750004 -0.750004 -0.750004 -0.750002 -0.750005 -0.750004 -0.750004 -0.750003 -0.750004 h 0.6666661 v 6.00003 6.00003 z"
             id="path858"
             class="error"
             style="opacity:0.8;stroke-width:0.999998" />
          <path
             d="m 6.0000106,-5.33326 v -6.00003 -6.00003 h 0.6666661 v 6.00003 6.00003 z"
             id="path860"
             class="error"
             style="opacity:0.7;stroke-width:0.999998" />
          <path
             d="m 7.3333426,-5.3332609 v -6.0000311 -6.000029 l 0.6666663,1e-6 v 6.00003 6.00003 z"
             id="path862"
             class="error"
             style="opacity:0.6;stroke-width:0.999988" />
          <path
             d="m 8.6666747,-5.333259 v -6.00003 -6.000029 l 0.6666664,-2e-6 v 6.000029 6.0000309 z"
             id="path864"
             class="error"
             style="opacity:0.5;stroke-width:0.999988" />
          <path
             d="m 10.000007,-17.33332 0.666666,-2e-6 v 6.00003 6.0000319 l -0.666666,1.1e-6 v -6.000031 z"
             id="path898"
             class="error"
             style="opacity:0.4;stroke-width:0.999998" />
          <path
             d="m 11.333339,-17.33332 h 0.666667 v 6.00003 6.00003 h -0.666667 v -6.00003 z"
             id="path900"
             class="error"
             style="opacity:0.3;stroke-width:0.999998" />
          <path
             d="m 12.666672,-5.33326 v -6.00003 -6.00003 h 0.666666 v 6.00003 6.00003 z"
             id="path902"
             class="error"
             style="opacity:0.2;stroke-width:0.999998" />
          <path
             d="m 14.000004,-5.33326 v -6.00003 -6.00003 h 0.666666 v 6.00003 6.00003 z"
             id="path904"
             class="error"
             style="opacity:0.1;stroke-width:0.999998" />
          <path
             d="m 3.3333461,-5.33326 v -0.750004 -0.750003 -0.750004 -0.7500039 -0.750004 -0.7500029 -0.7500042 -0.750004 -0.750004 -0.750004 -0.750002 -0.750005 -0.750004 -0.750004 -0.750003 -0.750004 h 0.6666661 v 6.00003 6.00003 z"
             id="path1184"
             class="error"
             style="opacity:0.9;stroke-width:0.999998" />
          <path
             d="m 4.0000122,-5.33326 v -0.750004 -0.750003 -0.750004 -0.7500039 -0.750004 -0.7500029 -0.7500042 -0.750004 -0.750004 -0.750004 -0.750002 -0.750005 -0.750004 -0.750004 -0.750003 -0.750004 h 0.6666661 v 6.00003 6.00003 z"
             id="path1186"
             class="error"
             style="opacity:0.85;stroke-width:0.999998" />
          <path
             d="m 5.3333444,-5.33326 v -6.00003 -6.00003 h 0.6666662 v 6.00003 6.00003 z"
             id="path1188"
             class="error"
             style="opacity:0.75;stroke-width:0.999998" />
          <path
             d="m 6.6666765,-5.3332609 v -6.0000311 -6.000029 l 0.6666663,1e-6 v 6.00003 6.00003 z"
             id="path1190"
             class="error"
             style="opacity:0.65;stroke-width:0.999988" />
          <path
             d="m 8.0000086,-5.333259 v -6.00003 -6.000029 l 0.6666664,-2e-6 v 6.000029 6.0000309 z"
             id="path1192"
             class="error"
             style="opacity:0.55;stroke-width:0.999988" />
          <path
             d="m 9.3333411,-17.33332 0.6666659,-2e-6 v 6.00003 6.0000319 l -0.6666659,1.1e-6 v -6.000031 z"
             id="path1194"
             class="error"
             style="opacity:0.45;stroke-width:0.999998" />
          <path
             d="m 10.666673,-17.33332 h 0.666666 v 6.00003 6.00003 h -0.666666 v -6.00003 z"
             id="path1196"
             class="error"
             style="opacity:0.35;stroke-width:0.999998" />
          <path
             d="m 12.000006,-5.33326 v -6.00003 -6.00003 h 0.666666 v 6.00003 6.00003 z"
             id="path1198"
             class="error"
             style="opacity:0.25;stroke-width:0.999998" />
          <path
             d="m 13.333338,-5.33326 v -6.00003 -6.00003 h 0.666666 v 6.00003 6.00003 z"
             id="path1200"
             class="error"
             style="opacity:0.15;stroke-width:0.999998" />
          <path
             d="m 2.66668,-5.33326 v -0.750004 -0.750003 -0.750004 -0.7500039 -0.750004 -0.7500029 -0.7500042 -0.750004 -0.750004 -0.750004 -0.750002 -0.750005 -0.750004 -0.750004 -0.750003 -0.750004 h 0.6666661 v 6.00003 6.00003 z"
             id="path1230"
             class="error"
             style="opacity:0.95;stroke-width:0.999998" />
        </g>
      </g>
    </g>
  </g>
</svg>
