<?xml version="1.0" encoding="UTF-8" standalone="no"?>
<svg
   xmlns:dc="http://purl.org/dc/elements/1.1/"
   xmlns:cc="http://creativecommons.org/ns#"
   xmlns:rdf="http://www.w3.org/1999/02/22-rdf-syntax-ns#"
   xmlns:svg="http://www.w3.org/2000/svg"
   xmlns="http://www.w3.org/2000/svg"
   xmlns:sodipodi="http://sodipodi.sourceforge.net/DTD/sodipodi-0.dtd"
   xmlns:inkscape="http://www.inkscape.org/namespaces/inkscape"
   inkscape:version="1.0.1 (3bc2e813f5, 2020-09-07)"
   sodipodi:docname="paint-gradient-radial-symbolic.svg"
   viewBox="0 0 16 16"
   height="16"
   width="16"
   id="svg1"
   version="1.1">
  <metadata
     id="metadata15106">
    <rdf:RDF>
      <cc:Work
         rdf:about="">
        <dc:format>image/svg+xml</dc:format>
        <dc:type
           rdf:resource="http://purl.org/dc/dcmitype/StillImage" />
        <dc:title />
      </cc:Work>
    </rdf:RDF>
  </metadata>
  <defs
     id="defs15104" />
  <style
     id="s0">
.success { fill:#009909; }
.warning { fill:#FF1990; }
.error { fill:#00AAFF; }
</style>
  <style
     id="s2">
@import '../../highlights.css';
</style>
  <sodipodi:namedview
     inkscape:document-rotation="0"
     inkscape:current-layer="g1075"
     inkscape:window-maximized="1"
     inkscape:window-y="-9"
     inkscape:window-x="-9"
     inkscape:window-height="1013"
     inkscape:window-width="1920"
     inkscape:cy="13.921735"
     inkscape:cx="25.712649"
     inkscape:zoom="20.982143"
     showgrid="true"
     id="namedview"
     guidetolerance="10"
     gridtolerance="10"
     objecttolerance="10"
     inkscape:snap-bbox="true"
     inkscape:snap-bbox-midpoints="false"
     inkscape:bbox-paths="true">
    <inkscape:grid
       id="grid"
       type="xygrid"
       spacingx="0.66666667"
       spacingy="0.66667" />
  </sodipodi:namedview>
  <g
     id="paint-gradient-radial"
     inkscape:label="00304"
     transform="matrix(0.800004,0,0,0.799999,-916.80458,-743.489)">
    <g
       id="g1075"
       transform="translate(57.499695)">
      <ellipse
         style="opacity:0.8"
         id="path845"
         cx="1098.5004"
         cy="939.36237"
         rx="8.7499561"
         ry="8.7500105"
         class="base" />
      <g
         id="g954"
         transform="matrix(0.95358536,0,0,0.9535856,50.986494,43.599949)"
         style="stroke-width:1.04868">
        <path
           id="path1077"
           style="opacity:0.1;stroke-width:1.04868"
           d="m 1098.5003,930.18651 a 9.1750833,9.1751405 0 0 0 -9.1759,9.17591 9.1750833,9.1751405 0 0 0 9.1759,9.1759 9.1750833,9.1751405 0 0 0 9.1758,-9.1759 9.1750833,9.1751405 0 0 0 -9.1758,-9.17591 z m 0,1.66901 a 7.5068487,7.5069333 0 0 1 7.5068,7.5069 7.5068487,7.5069333 0 0 1 -7.5068,7.50689 7.5068487,7.5069333 0 0 1 -7.5069,-7.50689 7.5068487,7.5069333 0 0 1 7.5069,-7.5069 z"
           class="error" />
        <path
           id="path1079"
           style="opacity:0.1;stroke-width:1.04868"
           d="m 1098.4367,931.02224 a 8.3409851,8.3410367 0 0 0 -8.2766,8.34018 8.3409851,8.3410367 0 0 0 8.3402,8.34018 8.3409851,8.3410367 0 0 0 8.3401,-8.34018 8.3409851,8.3410367 0 0 0 -8.3401,-8.34018 8.3409851,8.3410367 0 0 0 -0.063,0 z m 0.029,1.66657 a 6.672788,6.6728299 0 0 1 0.034,0 6.672788,6.6728299 0 0 1 6.6735,6.67361 6.672788,6.6728299 0 0 1 -6.6735,6.67361 6.672788,6.6728299 0 0 1 -6.6736,-6.67361 6.672788,6.6728299 0 0 1 6.6394,-6.67361 z"
           class="error" />
        <path
           id="path1081"
           style="opacity:0.2;stroke-width:1.04868"
           d="m 1098.5003,931.85552 a 7.5068487,7.5069333 0 0 0 -7.5069,7.5069 7.5068487,7.5069333 0 0 0 7.5069,7.50689 7.5068487,7.5069333 0 0 0 7.5068,-7.50689 7.5068487,7.5069333 0 0 0 -7.5068,-7.5069 z m -0.081,1.66902 a 5.8386603,5.8387254 0 0 1 0.081,0 5.8386603,5.8387254 0 0 1 5.8379,5.83788 5.8386603,5.8387254 0 0 1 -5.8379,5.83788 5.8386603,5.8387254 0 0 1 -5.8379,-5.83788 5.8386603,5.8387254 0 0 1 5.7572,-5.83788 z"
           class="error" />
        <path
           id="path1083"
           style="opacity:0.3;stroke-width:1.04868"
           d="m 1098.4661,932.68881 a 6.672788,6.6728299 0 0 0 -6.6394,6.67361 6.672788,6.6728299 0 0 0 6.6736,6.67361 6.672788,6.6728299 0 0 0 6.6735,-6.67361 6.672788,6.6728299 0 0 0 -6.6735,-6.67361 6.672788,6.6728299 0 0 0 -0.034,0 z m -0.041,1.66902 a 5.0045659,5.0046222 0 0 1 0.076,0 5.0045659,5.0046222 0 0 1 5.0045,5.00459 5.0045659,5.0046222 0 0 1 -5.0045,5.0046 5.0045659,5.0046222 0 0 1 -5.0046,-5.0046 5.0045659,5.0046222 0 0 1 4.9288,-5.00459 z"
           class="error" />
        <path
           id="path1085"
           style="opacity:0.4;stroke-width:1.04868"
           d="m 1098.4196,933.52454 a 5.8386603,5.8387254 0 0 0 -5.7572,5.83788 5.8386603,5.8387254 0 0 0 5.8379,5.83788 5.8386603,5.8387254 0 0 0 5.8379,-5.83788 5.8386603,5.8387254 0 0 0 -5.8379,-5.83788 5.8386603,5.8387254 0 0 0 -0.081,0 z m 0.061,1.66657 a 4.1704716,4.1705182 0 0 1 0.02,0 4.1704716,4.1705182 0 0 1 4.1712,4.17131 4.1704716,4.1705182 0 0 1 -4.1712,4.17131 4.1704716,4.1705182 0 0 1 -4.1713,-4.17131 4.1704716,4.1705182 0 0 1 4.1517,-4.17131 z"
           class="error" />
        <path
           id="path1087"
           style="opacity:0.5;stroke-width:1.04868"
           d="m 1098.4245,934.35783 a 5.0045659,5.0046222 0 0 0 -4.9288,5.00459 5.0045659,5.0046222 0 0 0 5.0046,5.0046 5.0045659,5.0046222 0 0 0 5.0045,-5.0046 5.0045659,5.0046222 0 0 0 -5.0045,-5.00459 5.0045659,5.0046222 0 0 0 -0.076,0 z m -0.01,1.66901 a 3.3363773,3.336415 0 0 1 0.085,0 3.3363773,3.336415 0 0 1 3.3356,3.33558 3.3363773,3.336415 0 0 1 -3.3356,3.33559 3.3363773,3.336415 0 0 1 -3.3356,-3.33559 3.3363773,3.336415 0 0 1 3.25,-3.33558 z"
           class="error" />
        <path
           id="path1089"
           style="opacity:0.6;stroke-width:1.04868"
           d="m 1098.4807,935.19111 a 4.1704716,4.1705182 0 0 0 -4.1517,4.17131 4.1704716,4.1705182 0 0 0 4.1713,4.17131 4.1704716,4.1705182 0 0 0 4.1712,-4.17131 4.1704716,4.1705182 0 0 0 -4.1712,-4.17131 4.1704716,4.1705182 0 0 0 -0.02,0 z m -0.042,1.66901 a 2.5022829,2.5023111 0 0 1 0.061,0 2.5022829,2.5023111 0 0 1 2.5023,2.5023 2.5022829,2.5023111 0 0 1 -2.5023,2.5023 2.5022829,2.5023111 0 0 1 -2.5023,-2.5023 2.5022829,2.5023111 0 0 1 2.4411,-2.5023 z"
           class="error" />
        <path
           id="path1091"
           style="opacity:0.7;stroke-width:1.04868"
           d="m 1098.4147,936.02684 a 3.3363773,3.336415 0 0 0 -3.25,3.33558 3.3363773,3.336415 0 0 0 3.3356,3.33559 3.3363773,3.336415 0 0 0 3.3356,-3.33559 3.3363773,3.336415 0 0 0 -3.3356,-3.33558 3.3363773,3.336415 0 0 0 -0.085,0 z m 0.085,1.66657 a 1.6681887,1.6682075 0 0 1 1.6689,1.66901 1.6681887,1.6682075 0 0 1 -1.6689,1.66902 1.6681887,1.6682075 0 0 1 -1.669,-1.66902 1.6681887,1.6682075 0 0 1 1.669,-1.66901 z"
           class="error" />
        <path
           id="path1093"
           style="opacity:0.8;stroke-width:1.04868"
           d="m 1098.4391,936.86012 a 2.5022829,2.5023111 0 0 0 -2.4411,2.5023 2.5022829,2.5023111 0 0 0 2.5023,2.5023 2.5022829,2.5023111 0 0 0 2.5023,-2.5023 2.5022829,2.5023111 0 0 0 -2.5023,-2.5023 2.5022829,2.5023111 0 0 0 -0.061,0 z m 0.039,1.66901 a 0.83409431,0.83410373 0 0 1 0.022,0 0.83409431,0.83410373 0 0 1 0.8333,0.83329 0.83409431,0.83410373 0 0 1 -0.8333,0.83328 0.83409431,0.83410373 0 0 1 -0.8333,-0.83328 0.83409431,0.83410373 0 0 1 0.8113,-0.83329 z"
           class="error" />
        <ellipse
           style="opacity:0.9;stroke-width:1.04868"
           id="ellipse1095"
           cx="1098.5004"
           cy="939.36249"
           rx="1.6681886"
           ry="1.6682074"
           class="error" />
        <ellipse
           style="stroke-width:1.04868"
           id="ellipse1097"
           cx="1098.5004"
           cy="939.36249"
           rx="0.83409429"
           ry="0.8341037"
           class="error" />
      </g>
    </g>
  </g>
</svg>
