<?xml version="1.0" encoding="UTF-8" standalone="no"?>
<svg
   version="1.1"
   id="svg1"
   width="16"
   height="16"
   viewBox="0 0 16 16"
   sodipodi:docname="path-reverse-symbolic.svg"
   inkscape:version="1.1 (c68e22c387, 2021-05-23)"
   xmlns:inkscape="http://www.inkscape.org/namespaces/inkscape"
   xmlns:sodipodi="http://sodipodi.sourceforge.net/DTD/sodipodi-0.dtd"
   xmlns="http://www.w3.org/2000/svg"
   xmlns:svg="http://www.w3.org/2000/svg"
   xmlns:rdf="http://www.w3.org/1999/02/22-rdf-syntax-ns#"
   xmlns:cc="http://creativecommons.org/ns#"
   xmlns:dc="http://purl.org/dc/elements/1.1/">
  <metadata
     id="metadata1577">
    <rdf:RDF>
      <cc:Work
         rdf:about="">
        <dc:format>image/svg+xml</dc:format>
        <dc:type
           rdf:resource="http://purl.org/dc/dcmitype/StillImage" />
        <dc:title />
      </cc:Work>
    </rdf:RDF>
  </metadata>
  <defs
     id="defs1575">
    <inkscape:path-effect
       effect="join_type"
       id="path-effect840"
       is_visible="true"
       lpeversion="1"
       linecap_type="butt"
       line_width="1"
       linejoin_type="extrp_arc"
       miter_limit="100"
       attempt_force_join="true" />
    <marker
       id="Arrow2Sstart"
       inkscape:isstock="true"
       inkscape:stockid="Arrow2Sstart"
       orient="auto"
       refX="0"
       refY="0"
       style="overflow:visible">
      <path
         d="M 8.72,4.03 -2.21,0.02 8.72,-4 c -1.75,2.37 -1.74,5.62 0,8.03 z"
         id="Arrow2SstartPath"
         style="fill:#000000;fill-opacity:1;stroke:#000000;stroke-opacity:1"
         transform="matrix(0.3,0,0,0.3,-0.69,0)" />
    </marker>
    <marker
       id="Arrow2Send"
       inkscape:isstock="true"
       inkscape:stockid="Arrow2Send"
       orient="auto"
       refX="0"
       refY="0"
       style="overflow:visible">
      <path
         d="M 8.72,4.03 -2.21,0.02 8.72,-4 c -1.75,2.37 -1.74,5.62 0,8.03 z"
         id="Arrow2SendPath"
         style="fill:#000000;fill-opacity:1;stroke:#000000;stroke-opacity:1"
         transform="matrix(-0.3,0,0,-0.3,0.69,0)" />
    </marker>
  </defs>
  <style
     id="s0">
.success { fill:#009909; }
.warning { fill:#FF1990; }
.error { fill:#00AAFF; }
</style>
  <style
     id="s2">
@import '../../highlights.css';
</style>
  <sodipodi:namedview
     objecttolerance="10"
     gridtolerance="10"
     guidetolerance="10"
     id="namedview"
     showgrid="true"
     inkscape:zoom="24.040812"
     inkscape:cx="-2.0382007"
     inkscape:cy="9.296691"
     inkscape:window-width="1920"
     inkscape:window-height="1013"
     inkscape:window-x="-9"
     inkscape:window-y="-9"
     inkscape:window-maximized="1"
     inkscape:current-layer="path-reverse"
     inkscape:document-rotation="0"
     inkscape:snap-global="true"
     inkscape:snap-bbox="true"
     inkscape:bbox-nodes="true"
     inkscape:snap-nodes="false"
     pagecolor="#ffffff"
     bordercolor="#999999"
     borderopacity="1"
     inkscape:pageshadow="0"
     inkscape:pageopacity="0"
     inkscape:pagecheckerboard="0">
    <inkscape:grid
       type="xygrid"
       id="grid"
       spacingx="0.66666667"
       spacingy="0.66667" />
  </sodipodi:namedview>
  <g
     transform="matrix(0.988179,0,0,0.9858,-162.93565,-835.21727)"
     inkscape:label="00089"
     id="path-reverse">
    <path
       inkscape:connector-curvature="0"
       id="rect15611"
       d="m 165.00001,847.3622 h 16 v 16 h -16 z"
       style="opacity:0;fill:none" />
    <path
       inkscape:connector-curvature="0"
       id="path15627"
       d="m 164.88476,852.32022 1.83938,1.14578 c 0.24667,-1.43442 1.02471,-2.0991 2.20847,-2.16019 v 2.02881 l 3.0557,-2.97242 -3.0557,-3.11401 v 2.02881 c -1.23699,0.0882 -3.58089,0.80165 -4.04785,3.04322 z"
       style="opacity:1"
       sodipodi:nodetypes="cccccccc"
       class="success" />
    <path
       inkscape:connector-curvature="0"
       id="rect15633"
       d="m 170.95654,853.33469 h 4.04785 v 4.05764 h -4.04785 z"
       style="opacity:1;stroke-width:1"
       sodipodi:nodetypes="ccccc" />
    <path
       sodipodi:nodetypes="cccccccc"
       style="opacity:1"
       d="m 181.07616,858.40664 -1.83938,-1.14578 c -0.24667,1.43442 -1.02471,2.0991 -2.20847,2.16019 v -2.02881 l -3.0557,2.97242 3.0557,3.11401 v -2.02881 c 1.23699,-0.0882 3.58089,-0.80165 4.04785,-3.04322 z"
       id="path2140"
       inkscape:connector-curvature="0"
       class="success" />
    <path
       style="fill:#000000;fill-rule:nonzero;stroke:none;stroke-width:1.01318px;stroke-linecap:butt;stroke-linejoin:miter;stroke-opacity:1"
       d="m 166.7085,861.60769 c 0.4792,-1.44108 1.53349,-2.90871 1.53349,-2.90871 1.04342,-1.44823 2.60545,-2.83551 4.73847,-2.83551 2.58947,0 4.40065,-1.65595 5.54982,-3.25095 0,0 1.13674,-1.57091 1.67106,-3.17774 l -0.94892,-0.31554 c -0.4792,1.44109 -1.53349,2.90872 -1.53349,2.90872 -1.04342,1.44823 -2.60545,2.83551 -4.73847,2.83551 -2.58947,0 -4.40065,1.65595 -5.54982,3.25094 0,0 -1.13674,1.57092 -1.67106,3.17774 z"
       id="path838"
       inkscape:path-effect="#path-effect840"
       inkscape:original-d="m 166.23404,861.44992 c 0,0 2.02393,-6.08645 6.74642,-6.08645 4.72249,0 6.74642,-6.08646 6.74642,-6.08646" />
  </g>
</svg>
