<?xml version="1.0" encoding="UTF-8" standalone="no"?>
<svg
   xmlns:dc="http://purl.org/dc/elements/1.1/"
   xmlns:cc="http://creativecommons.org/ns#"
   xmlns:rdf="http://www.w3.org/1999/02/22-rdf-syntax-ns#"
   xmlns:svg="http://www.w3.org/2000/svg"
   xmlns="http://www.w3.org/2000/svg"
   xmlns:sodipodi="http://sodipodi.sourceforge.net/DTD/sodipodi-0.dtd"
   xmlns:inkscape="http://www.inkscape.org/namespaces/inkscape"
   inkscape:version="1.0.1 (3bc2e813f5, 2020-09-07)"
   sodipodi:docname="path-offset-linked-symbolic.svg"
   viewBox="0 0 16 16"
   height="16"
   width="16"
   id="svg1"
   version="1.1">
  <metadata
     id="metadata2473">
    <rdf:RDF>
      <cc:Work
         rdf:about="">
        <dc:format>image/svg+xml</dc:format>
        <dc:type
           rdf:resource="http://purl.org/dc/dcmitype/StillImage" />
      </cc:Work>
    </rdf:RDF>
  </metadata>
  <defs
     id="defs2471" />
  <style
     id="s0">
.success { fill:#009909; }
.warning { fill:#FF1990; }
.error { fill:#00AAFF; }
</style>
  <style
     id="s2">
@import '../../highlights.css';
</style>
  <sodipodi:namedview
     inkscape:document-rotation="0"
     inkscape:current-layer="svg1"
     inkscape:window-maximized="1"
     inkscape:window-y="-9"
     inkscape:window-x="-9"
     inkscape:window-height="1013"
     inkscape:window-width="1920"
     inkscape:cy="7.0503045"
     inkscape:cx="15.946042"
     inkscape:zoom="29.079766"
     showgrid="true"
     id="namedview"
     guidetolerance="10"
     gridtolerance="10"
     objecttolerance="10">
    <inkscape:grid
       id="grid"
       type="xygrid" />
  </sodipodi:namedview>
  <path
     id="path27786"
     d="m 6,2 v 9 h 8 V 2 Z m 3.46875,1 h 1 C 11.32017,3 12,3.7099 12,4.5625 V 6 h 0.46875 c 0.27497,0 0.5,0.2493 0.5,0.5625 V 6.875 9.9687 H 7 V 6.875 6.5625 C 7,6.2493 7.22503,6 7.5,6 H 7.96875 V 4.5625 C 7.96875,3.7099 8.61733,3 9.46875,3 Z m 0,1.0312 C 9.21133,4.0312 9,4.2293 9,4.5625 V 6 h 1.96875 V 4.5625 c 0,-0.3332 -0.24258,-0.5313 -0.5,-0.5313 z"
     class="base" />
  <path
     style="opacity:0;fill:none;stroke-width:0.999994"
     d="M 1,1.000002 H 15 V 14.999999 H 1 Z"
     id="rect19698"
     inkscape:connector-curvature="0" />
  <path
     id="path19700"
     d="M 1 1 L 1 3 C 2.4259782 2.9944209 3.763797 3.2097622 5 3.5976562 L 5 1.5429688 C 3.7412603 1.1952577 2.4034382 1 1 1 z M 12.667969 12 C 12.880936 12.950856 13.004108 13.949968 13 15 L 15 15 C 15 13.962746 14.894184 12.961292 14.701172 12 L 12.667969 12 z "
     class="base" />
  <path
     id="path19751"
     style="opacity:0.5"
     d="M 1 5 L 1 7 C 2.5316657 7 3.8724407 7.2840667 5 7.8183594 L 5 5.6875 C 3.8040057 5.241042 2.4626865 5 1 5 z M 8.5644531 12 C 8.8456678 12.897563 9 13.897072 9 15 L 11 15 C 11 13.931454 10.867434 12.930383 10.625 12 L 8.5644531 12 z " />
  <path
     id="path19607"
     d="M 1,9.0000032 V 11 c 1.999996,0 4.000001,1.999997 4.000001,4.000003 H 6.999997 C 6.999997,11.653179 4.36994,9.0000032 1,9.0000032 Z"
     class="base" />
</svg>
