<?xml version="1.0" encoding="UTF-8" standalone="no"?>
<svg
   xmlns:dc="http://purl.org/dc/elements/1.1/"
   xmlns:cc="http://creativecommons.org/ns#"
   xmlns:rdf="http://www.w3.org/1999/02/22-rdf-syntax-ns#"
   xmlns:svg="http://www.w3.org/2000/svg"
   xmlns="http://www.w3.org/2000/svg"
   xmlns:sodipodi="http://sodipodi.sourceforge.net/DTD/sodipodi-0.dtd"
   xmlns:inkscape="http://www.inkscape.org/namespaces/inkscape"
   version="1.1"
   id="svg1"
   width="16"
   height="16"
   viewBox="0 0 16 16"
   sodipodi:docname="snap-nodes-rotation-center-symbolic.svg"
   inkscape:version="1.0.1 (3bc2e813f5, 2020-09-07)">
  <style
     id="s0">
   .success { fill: #009909; }
   .warning { fill: #FF1990; }
   .error   { fill: #00AAFF; }
  </style>
  <style
     id="s2"> 
     @import '../../highlights.css'; 
  </style>
  <metadata
     id="metadata2317">
    <rdf:RDF>
      <cc:Work
         rdf:about="">
        <dc:format>image/svg+xml</dc:format>
        <dc:type
           rdf:resource="http://purl.org/dc/dcmitype/StillImage" />
      </cc:Work>
    </rdf:RDF>
  </metadata>
  <defs
     id="defs2315" />
  <sodipodi:namedview
     objecttolerance="10"
     gridtolerance="10"
     guidetolerance="10"
     id="namedview"
     showgrid="true"
     inkscape:zoom="13.583094"
     inkscape:cx="39.769721"
     inkscape:cy="12.985656"
     inkscape:window-width="1920"
     inkscape:window-height="1013"
     inkscape:window-x="-9"
     inkscape:window-y="-9"
     inkscape:window-maximized="1"
     inkscape:current-layer="snap-nodes-rotation-center"
     inkscape:document-rotation="0"
     inkscape:snap-nodes="true"
     inkscape:snap-grids="true"
     inkscape:snap-to-guides="false"
     inkscape:snap-center="false"
     inkscape:snap-bbox="true"
     inkscape:bbox-nodes="true">
    <inkscape:grid
       type="xygrid"
       id="grid" />
  </sodipodi:namedview>
  <g
     transform="matrix(1,0,0,0.999999,-949,-506.36188)"
     id="snap-nodes-rotation-center"
     inkscape:label="00332">
    <g
       id="g2895"
       transform="translate(-1.03069,1.9631924)">
      <path
         style="opacity:1;stroke-width:1.34839"
         d="m 957.03069,510.3992 h 2 v 10.00001 h -2 z"
         id="rect22925"
         inkscape:connector-curvature="0" />
      <path
         style="opacity:1;stroke-width:1.34841"
         d="m 953.03069,514.39921 h 10 v 2 h -10 z"
         id="rect22927"
         inkscape:connector-curvature="0" />
    </g>
    <path
       d="m 950,507.36239 v 6 h 6 z"
       id="path845"
       sodipodi:nodetypes="cccc" />
    <path
       id="path854"
       d="M 956.94727,507.36434 A 6,5.999988 0 0 0 954,508.16708 a 6,5.999988 0 0 0 -2.12305,2.07226 l 1.47657,1.47657 A 4,3.999992 0 0 1 955,509.89755 a 4,3.999992 0 0 1 4,0 4,3.999992 0 0 1 2,3.46484 h 2 a 6,5.999988 0 0 0 -3,-5.19531 6,5.999988 0 0 0 -3.05273,-0.80274 z" />
  </g>
</svg>
