<?xml version="1.0" encoding="UTF-8" standalone="no"?>
<svg
   inkscape:version="1.1 (c68e22c387, 2021-05-23)"
   sodipodi:docname="snap-nodes-smooth-symbolic.svg"
   viewBox="0 0 16 16"
   height="16"
   width="16"
   id="svg1"
   version="1.1"
   xmlns:inkscape="http://www.inkscape.org/namespaces/inkscape"
   xmlns:sodipodi="http://sodipodi.sourceforge.net/DTD/sodipodi-0.dtd"
   xmlns="http://www.w3.org/2000/svg"
   xmlns:svg="http://www.w3.org/2000/svg"
   xmlns:rdf="http://www.w3.org/1999/02/22-rdf-syntax-ns#"
   xmlns:cc="http://creativecommons.org/ns#"
   xmlns:dc="http://purl.org/dc/elements/1.1/">
  <style
     id="s0">
   .success { fill: #009909; }
   .warning { fill: #FF1990; }
   .error   { fill: #00AAFF; }
  </style>
  <style
     id="s2"> 
     @import '../../highlights.css'; 
  </style>
  <metadata
     id="metadata3102">
    <rdf:RDF>
      <cc:Work
         rdf:about="">
        <dc:format>image/svg+xml</dc:format>
        <dc:type
           rdf:resource="http://purl.org/dc/dcmitype/StillImage" />
      </cc:Work>
    </rdf:RDF>
  </metadata>
  <defs
     id="defs3100" />
  <sodipodi:namedview
     inkscape:snap-smooth-nodes="true"
     inkscape:snap-to-guides="false"
     inkscape:snap-grids="true"
     inkscape:document-rotation="0"
     inkscape:current-layer="snap-nodes-smooth"
     inkscape:window-maximized="1"
     inkscape:window-y="-9"
     inkscape:window-x="-9"
     inkscape:window-height="1013"
     inkscape:window-width="1920"
     inkscape:cy="7.3804984"
     inkscape:cx="15.239533"
     inkscape:zoom="27.166187"
     showgrid="true"
     id="namedview"
     guidetolerance="10"
     gridtolerance="10"
     objecttolerance="10"
     inkscape:snap-bbox="true"
     inkscape:bbox-nodes="true"
     pagecolor="#ffffff"
     bordercolor="#999999"
     borderopacity="1"
     inkscape:pageshadow="0"
     inkscape:pageopacity="0"
     inkscape:pagecheckerboard="0">
    <inkscape:grid
       id="grid"
       type="xygrid" />
  </sodipodi:namedview>
  <g
     inkscape:label="00328"
     id="snap-nodes-smooth"
     transform="matrix(0.998641,0,0,0.999601,-827.85172,-506.16007)">
    <path
       style="opacity:0;fill:none"
       d="m 829,506.36221 h 16 v 16 h -16 z"
       id="rect22719"
       inkscape:connector-curvature="0" />
    <path
       style="opacity:1;stroke-width:1.07574"
       d="m 844.30441,521.36069 a 0.5140439,0.59263227 0 0 1 -0.4063,-0.68716 c 0.2334,-1.84705 -0.061,-4.30836 -1.125,-6.25621 -0.6325,-1.15769 -1.5307,-2.13532 -2.7812,-2.74842 v -1.30189 c 1.6552,0.68775 2.8607,1.94335 3.6562,3.39937 1.2267,2.24491 1.518,4.93106 1.25,7.05181 a 0.5140439,0.59263227 0 0 1 -0.5937,0.5425 z m -14.7188,-0.14465 a 0.5240784,0.60420097 0 0 1 -0.5,-0.50628 c -0.2977,-2.11438 -0.053,-4.80181 1.125,-7.01571 0.7918,-1.4882 2.0393,-2.74264 3.7813,-3.39936 v 1.22955 c -1.3469,0.58036 -2.2728,1.59409 -2.9063,2.78453 -1.0134,1.9048 -1.2297,4.33046 -0.9687,6.18401 a 0.5240784,0.60420097 0 0 1 -0.5313,0.72326 z"
       id="path22717"
       inkscape:connector-curvature="0" />
    <path
       class="error"
       style="opacity:1;stroke-width:0.8"
       d="m 838.99191,510.36291 a 2,2 0 0 1 -2,2 2,2 0 0 1 -2,-2 2,2 0 0 1 2,-2 2,2 0 0 1 2,2 z"
       id="path22731"
       inkscape:connector-curvature="0" />
  </g>
</svg>
