<?xml version="1.0" encoding="UTF-8" standalone="no"?>
<svg
   inkscape:version="1.1 (c68e22c387, 2021-05-23)"
   sodipodi:docname="snap-nodes-symbolic.svg"
   viewBox="0 0 16 16"
   height="16"
   width="16"
   id="svg1"
   version="1.1"
   xmlns:inkscape="http://www.inkscape.org/namespaces/inkscape"
   xmlns:sodipodi="http://sodipodi.sourceforge.net/DTD/sodipodi-0.dtd"
   xmlns="http://www.w3.org/2000/svg"
   xmlns:svg="http://www.w3.org/2000/svg"
   xmlns:rdf="http://www.w3.org/1999/02/22-rdf-syntax-ns#"
   xmlns:cc="http://creativecommons.org/ns#"
   xmlns:dc="http://purl.org/dc/elements/1.1/">
  <style
     id="s0">
   .success { fill: #009909; }
   .warning { fill: #FF1990; }
   .error   { fill: #00AAFF; }
  </style>
  <style
     id="s2"> 
     @import '../../highlights.css'; 
  </style>
  <metadata
     id="metadata1767">
    <rdf:RDF>
      <cc:Work
         rdf:about="">
        <dc:format>image/svg+xml</dc:format>
        <dc:type
           rdf:resource="http://purl.org/dc/dcmitype/StillImage" />
      </cc:Work>
    </rdf:RDF>
  </metadata>
  <defs
     id="defs1765" />
  <sodipodi:namedview
     inkscape:document-rotation="0"
     inkscape:current-layer="snap-nodes"
     inkscape:window-maximized="1"
     inkscape:window-y="-9"
     inkscape:window-x="-9"
     inkscape:window-height="1013"
     inkscape:window-width="1920"
     inkscape:cy="7.8348214"
     inkscape:cx="11.696429"
     inkscape:zoom="22.4"
     showgrid="true"
     id="namedview"
     guidetolerance="10"
     gridtolerance="10"
     objecttolerance="10"
     pagecolor="#ffffff"
     bordercolor="#999999"
     borderopacity="1"
     inkscape:pageshadow="0"
     inkscape:pageopacity="0"
     inkscape:pagecheckerboard="0">
    <inkscape:grid
       id="grid"
       type="xygrid" />
  </sodipodi:namedview>
  <g
     inkscape:label="00326"
     id="snap-nodes"
     transform="matrix(0.998641,0,0,0.9996,-737.97402,-506.15331)">
    <path
       style="opacity:0;fill:none"
       d="m 739,506.3558 h 16 v 16 h -16 z"
       id="rect22660"
       inkscape:connector-curvature="0" />
    <path
       style="opacity:0.5"
       d="m 754.29896,521.35668 a 0.5140439,0.5121131 0 0 1 -0.4063,-0.5937 c 0.2334,-1.5961 -0.061,-3.7231 -1.125,-5.4063 -0.6325,-1.0004 -1.5307,-1.8451 -2.7812,-2.375 v -1.125 c 1.6552,0.5943 2.8607,1.6793 3.6562,2.9375 1.2267,1.94 1.518,4.2611 1.25,6.0938 a 0.5140439,0.5121131 0 0 1 -0.5937,0.4687 z m -14.7188,-0.125 a 0.5240784,0.52211 0 0 1 -0.5,-0.4375 c -0.2977,-1.827 -0.053,-4.1493 1.125,-6.0625 0.7918,-1.2859 2.0393,-2.37 3.7813,-2.9375 v 1.0625 c -1.3469,0.5016 -2.2728,1.3776 -2.9063,2.4063 -1.0134,1.6459 -1.2297,3.742 -0.9687,5.3437 a 0.5240784,0.52211 0 0 1 -0.5313,0.625 z"
       id="path22658"
       inkscape:connector-curvature="0" />
    <path
       class="error"
       style="opacity:1"
       d="m 744.98646,513.35665 h 4 v -5 h -4 z"
       id="rect22662"
       inkscape:connector-curvature="0" />
    <path
       class="error"
       style="opacity:1"
       d="m 749.98646,510.35668 h 2 v -1 h -2 z"
       id="rect22664"
       inkscape:connector-curvature="0" />
    <path
       class="error"
       style="opacity:1"
       d="m 741.98646,510.35668 h 2 v -1 h -2 z"
       id="rect22666"
       inkscape:connector-curvature="0" />
    <path
       class="error"
       style="opacity:1;stroke-width:1.0052"
       d="m 754.48646,509.80982 a 1.5,1.5156255 0 0 0 -1.5,-1.51562 1.5,1.5156255 0 0 0 -1.5,1.51562 1.5,1.5156255 0 0 0 1.5,1.51563 1.5,1.5156255 0 0 0 1.5,-1.51563 z"
       id="path22668"
       inkscape:connector-curvature="0" />
    <path
       class="error"
       style="opacity:1;stroke-width:1.0052"
       d="m 742.48646,509.84102 a 1.5,1.5156255 0 0 0 -1.5,-1.51562 1.5,1.5156255 0 0 0 -1.5,1.51562 1.5,1.5156255 0 0 0 1.5,1.51563 1.5,1.5156255 0 0 0 1.5,-1.51563 z"
       id="path22670"
       inkscape:connector-curvature="0" />
  </g>
</svg>
