<?xml version="1.0" encoding="UTF-8" standalone="no"?>
<svg
   xmlns:dc="http://purl.org/dc/elements/1.1/"
   xmlns:cc="http://creativecommons.org/ns#"
   xmlns:rdf="http://www.w3.org/1999/02/22-rdf-syntax-ns#"
   xmlns:svg="http://www.w3.org/2000/svg"
   xmlns="http://www.w3.org/2000/svg"
   xmlns:sodipodi="http://sodipodi.sourceforge.net/DTD/sodipodi-0.dtd"
   xmlns:inkscape="http://www.inkscape.org/namespaces/inkscape"
   inkscape:version="1.0.1 (3bc2e813f5, 2020-09-07)"
   sodipodi:docname="tool-spray-symbolic.svg"
   viewBox="0 0 16 16"
   height="16"
   width="16"
   id="svg1"
   version="1.1">
  <style
     id="s0">
   .success { fill: #009909; }
   .warning { fill: #FF1990; }
   .error   { fill: #00AAFF; }
  </style>
  <style
     id="s2"> 
     @import '../../highlights.css'; 
  </style>
  <metadata
     id="metadata2833">
    <rdf:RDF>
      <cc:Work
         rdf:about="">
        <dc:format>image/svg+xml</dc:format>
        <dc:type
           rdf:resource="http://purl.org/dc/dcmitype/StillImage" />
        <dc:title />
      </cc:Work>
    </rdf:RDF>
  </metadata>
  <defs
     id="defs2831" />
  <sodipodi:namedview
     inkscape:snap-global="true"
     inkscape:document-rotation="0"
     inkscape:current-layer="g1009"
     inkscape:window-maximized="1"
     inkscape:window-y="-9"
     inkscape:window-x="-9"
     inkscape:window-height="1013"
     inkscape:window-width="1920"
     inkscape:cy="7.859417"
     inkscape:cx="10.52839"
     inkscape:zoom="64"
     showgrid="true"
     id="namedview"
     guidetolerance="10"
     gridtolerance="10"
     objecttolerance="10"
     inkscape:snap-bbox="true"
     inkscape:bbox-nodes="true">
    <inkscape:grid
       id="grid"
       type="xygrid"
       spacingx="0.66666667"
       spacingy="0.66667" />
  </sodipodi:namedview>
  <g
     id="g0"
     inkscape:label="tool-spray">
    <path
       inkscape:connector-curvature="0"
       style="opacity:0"
       d="M -3.3137084,8 7.9999998,-3.3137084 19.313708,7.9999998 8,19.313708 Z"
       id="background" />
    <path
       inkscape:connector-curvature="0"
       id="path2411"
       d="M 9.772199,5.3562286 6.6489558,8.4794715 C 6.04038,9.0880473 6.027994,10.075935 6.6365747,10.677181 L 10,14.00007 15.333333,8.666738 11.969902,5.3438529 C 11.361322,4.7426061 10.380771,4.7476555 9.7721952,5.356232 Z"
       sodipodi:nodetypes="sssccsss"
       style="stroke-width:0.942802"
       class="base" />
    <path
       id="polygon2413"
       d="M 9.5759809,4.4714598 8.1617631,4.0000501 5.3333354,6.8284779 5.8047448,8.242696 Z"
       inkscape:connector-curvature="0"
       sodipodi:nodetypes="ccccc"
       class="base"
       style="opacity:0.9" />
    <path
       inkscape:connector-curvature="0"
       id="path2415"
       d="M 6,2.781072 C 5.5285931,2.3096652 3.6429751,4.1952832 4.114382,4.66669 L 5.3333335,5.8856661 7.2189515,4.000048 Z"
       sodipodi:nodetypes="zzccz"
       class="base" />
    <g
       transform="rotate(-45,8.727112,9.4929514)"
       style="opacity:0.7"
       id="g1009"
       class="base">
      <path
         style="stroke-width:0.999995"
         id="circle2421"
         d="m 6.1643801,4.1523907 a 0.66699998,0.66700002 0 0 1 -0.6669999,0.667 0.66699998,0.66700002 0 0 1 -0.667,-0.667 0.66699998,0.66700002 0 0 1 0.6669999,-0.6670001 0.66699998,0.66700002 0 0 1 0.667,0.6670001"
         inkscape:connector-curvature="0" />
      <path
         style="stroke-width:1"
         id="circle2429"
         d="M 7.5807283,2.7376988 A 0.66072562,0.66072562 0 0 1 6.9200027,3.3984243 0.66072562,0.66072562 0 0 1 6.2592771,2.7376988 0.66072562,0.66072562 0 0 1 6.9200027,2.0769731 0.66072562,0.66072562 0 0 1 7.5807283,2.7376988"
         inkscape:connector-curvature="0" />
      <path
         id="circle2431"
         d="m 5.083169,2.2662988 a 1,0.99999993 0 0 1 -1,1 1,0.99999993 0 0 1 -1,-1 1,0.99999993 0 0 1 1,-0.9999999 1,0.99999993 0 0 1 1,0.9999999"
         inkscape:connector-curvature="0"
         style="stroke-width:1" />
      <path
         id="path850"
         d="m 6.4973755,6.5089466 a 1,0.99999993 0 0 1 -1,1 1,0.99999993 0 0 1 -1,-1 1,0.99999993 0 0 1 1,-0.9999999 1,0.99999993 0 0 1 1,0.9999999"
         inkscape:connector-curvature="0"
         style="stroke-width:1" />
      <path
         id="path852"
         d="m 4.1403505,5.0947353 a 1,0.99999993 0 0 1 -1,1 1,0.99999993 0 0 1 -1,-1 1,0.99999993 0 0 1 1,-0.9999999 1,0.99999993 0 0 1 1,0.9999999"
         inkscape:connector-curvature="0"
         style="stroke-width:1" />
      <path
         id="path854"
         d="m 8.659312,3.6802744 a 0.33350008,0.33349999 0 0 1 -0.3335,0.3335 0.33350008,0.33349999 0 0 1 -0.3335,-0.3335 0.33350008,0.33349999 0 0 1 0.3335,-0.3335001 0.33350008,0.33349999 0 0 1 0.3335,0.3335001"
         inkscape:connector-curvature="0"
         style="stroke-width:1" />
      <path
         id="path856"
         d="m 7.7164982,4.6230881 a 0.33350008,0.33349999 0 0 1 -0.3335,0.3335 0.33350008,0.33349999 0 0 1 -0.3335,-0.3335 0.33350008,0.33349999 0 0 1 0.3335,-0.3335001 0.33350008,0.33349999 0 0 1 0.3335,0.3335001"
         inkscape:connector-curvature="0"
         style="stroke-width:1" />
    </g>
    <path
       inkscape:connector-curvature="0"
       id="path847"
       d="m 30.978697,7.3463365 h -4.684865 c -0.912863,0 -1.663069,0.7316262 -1.657568,1.6389964 l 0.0304,5.0147371 h 8.000001 l -0.03041,-5.0147371 c -0.0055,-0.9073702 -0.7447,-1.6389964 -1.657565,-1.6389964 z"
       sodipodi:nodetypes="sssccsss"
       style="stroke-width:0.999993"
       class="base" />
    <path
       id="path849"
       d="M 31.333333,6.6667 30.666667,5.33336 H 26.666666 L 26,6.6667 Z"
       inkscape:connector-curvature="0"
       sodipodi:nodetypes="ccccc"
       class="base"
       style="opacity:0.9" />
    <path
       inkscape:connector-curvature="0"
       id="path851"
       d="m 30,3.33335 c 0,-0.66667 -2.666667,-0.66667 -2.666667,0 V 4.66669 H 30 Z"
       sodipodi:nodetypes="zzccz"
       class="base" />
    <g
       transform="translate(18,0.66667)"
       style="opacity:0.6"
       id="g867"
       class="base">
      <path
         style="stroke-width:0.999995"
         id="path853"
         d="m 6,4.00002 a 0.66699998,0.66700002 0 0 1 -0.6669999,0.667 0.66699998,0.66700002 0 0 1 -0.667,-0.667 A 0.66699998,0.66700002 0 0 1 5.333,3.3330199 0.66699998,0.66700002 0 0 1 6,4.00002"
         inkscape:connector-curvature="0" />
      <path
         style="stroke-width:1"
         id="path855"
         d="M 7.3333334,2.66668 A 0.66072562,0.66072562 0 0 1 6.6726078,3.3274055 0.66072562,0.66072562 0 0 1 6.0118822,2.66668 0.66072562,0.66072562 0 0 1 6.6726078,2.0059543 0.66072562,0.66072562 0 0 1 7.3333334,2.66668"
         inkscape:connector-curvature="0" />
      <path
         id="path857"
         d="m 5.333,1.6669999 a 1,0.99999993 0 0 1 -1,1 1,0.99999993 0 0 1 -1,-1 1,0.99999993 0 0 1 1,-0.99999992 1,0.99999993 0 0 1 1,0.99999992"
         inkscape:connector-curvature="0"
         style="stroke-width:1" />
      <path
         id="path859"
         d="m 6,6.3248898 a 1,0.99999993 0 0 1 -1,1 1,0.99999993 0 0 1 -1,-1 1,0.99999993 0 0 1 1,-0.9999999 1,0.99999993 0 0 1 1,0.9999999"
         inkscape:connector-curvature="0"
         style="stroke-width:1" />
      <path
         id="path861"
         d="m 4,4.3329999 a 1,0.99999993 0 0 1 -1,1 1,0.99999993 0 0 1 -1,-1 A 1,0.99999993 0 0 1 3,3.333 1,0.99999993 0 0 1 4,4.3329999"
         inkscape:connector-curvature="0"
         style="stroke-width:1" />
      <path
         id="path863"
         d="m 8.6666667,3.6665001 a 0.33350008,0.33349999 0 0 1 -0.3335,0.3335 0.33350008,0.33349999 0 0 1 -0.3335,-0.3335 0.33350008,0.33349999 0 0 1 0.3335,-0.3335001 0.33350008,0.33349999 0 0 1 0.3335,0.3335001"
         inkscape:connector-curvature="0"
         style="stroke-width:1" />
      <path
         id="path865"
         d="M 7.334,4.3335001 A 0.33350008,0.33349999 0 0 1 7.0005,4.6670001 0.33350008,0.33349999 0 0 1 6.667,4.3335001 0.33350008,0.33349999 0 0 1 7.0005,4 0.33350008,0.33349999 0 0 1 7.334,4.3335001"
         inkscape:connector-curvature="0"
         style="stroke-width:1" />
    </g>
  </g>
</svg>
