<?xml version="1.0" encoding="UTF-8" standalone="no"?>
<svg
   inkscape:version="1.1 (c68e22c387, 2021-05-23)"
   sodipodi:docname="align-vertical-baseline-symbolic.svg"
   viewBox="0 0 16 16"
   height="16"
   width="16"
   id="svg1"
   version="1.1"
   xmlns:inkscape="http://www.inkscape.org/namespaces/inkscape"
   xmlns:sodipodi="http://sodipodi.sourceforge.net/DTD/sodipodi-0.dtd"
   xmlns="http://www.w3.org/2000/svg"
   xmlns:svg="http://www.w3.org/2000/svg"
   xmlns:rdf="http://www.w3.org/1999/02/22-rdf-syntax-ns#"
   xmlns:cc="http://creativecommons.org/ns#"
   xmlns:dc="http://purl.org/dc/elements/1.1/">
  <style
     id="s0">
   .success { fill: #009909; }
   .warning { fill: #FF1990; }
   .error   { fill: #00AAFF; }
  </style>
  <style
     id="s2"> 
     @import '../../highlights.css'; 
  </style>
  <metadata
     id="metadata893">
    <rdf:RDF>
      <cc:Work
         rdf:about="">
        <dc:format>image/svg+xml</dc:format>
        <dc:type
           rdf:resource="http://purl.org/dc/dcmitype/StillImage" />
      </cc:Work>
    </rdf:RDF>
  </metadata>
  <defs
     id="defs891" />
  <sodipodi:namedview
     inkscape:snap-global="true"
     inkscape:document-rotation="0"
     inkscape:current-layer="g1423"
     inkscape:window-maximized="1"
     inkscape:window-y="32"
     inkscape:window-x="-8"
     inkscape:window-height="1017"
     inkscape:window-width="1920"
     inkscape:cy="8.2599479"
     inkscape:cx="-0.023008211"
     inkscape:zoom="21.731372"
     showgrid="true"
     id="namedview"
     guidetolerance="10"
     gridtolerance="10"
     objecttolerance="10"
     pagecolor="#ffffff"
     bordercolor="#000000"
     borderopacity="1"
     inkscape:pageshadow="0"
     inkscape:pageopacity="0"
     inkscape:pagecheckerboard="0">
    <inkscape:grid
       id="grid"
       type="xygrid"
       spacingx="0.66667"
       spacingy="0.66667" />
  </sodipodi:namedview>
  <g
     id="g1423"
     transform="translate(-80.000001,-20)">
    <path
       sodipodi:nodetypes="ccccccccccccccccc"
       id="path22455-7"
       d="m 88.666711,24.266912 c 0.49947,-0.404307 1.3486,-0.259368 1.7273,0.208144 0.62565,0.708039 0.8066,1.613783 1.03681,2.461302 0.17075,0.722789 0.27799,1.456793 0.32135,2.193596 0.50564,-0.931757 1.08819,-1.932552 1.09877,-2.98179 0.014,-0.530336 -0.32866,-0.979874 -0.55753,-1.448867 -0.18903,-0.393091 0.33143,-0.802125 0.77774,-0.676012 0.54662,0.099 0.63771,0.660587 0.62193,1.063274 -0.0575,1.197658 -0.58505,2.373644 -1.11891,3.468211 -0.75657,1.445461 -1.8395,2.785926 -3.2559,3.803016 -0.55702,0.372706 -1.96579,0.804949 -2.66142,0.580471 -1.28286,-0.594324 -1.28286,-1.782982 0,-1.782982 0.6362,-0.03993 1.62865,0.742852 2.10081,0.728096 0.77927,-0.0056 1.33481,-0.627887 1.54514,-1.220843 0.21372,-0.784446 0.0137,-1.59492 -0.11828,-2.377056 -0.21507,-1.016746 -0.45708,-2.054088 -1.02404,-2.973891 -0.11597,-0.357236 -1.02449,-0.569556 -0.49377,-1.044669 z"
       inkscape:connector-curvature="0"
       class="error"
       style="opacity:0.8;fill:#00aeff;fill-opacity:1" />
    <path
       d="m 85.237425,26.953904 c -0.35647,0 -0.62541,0.05622 -0.80681,0.168658 -0.17824,0.112443 -0.26736,0.278143 -0.26736,0.497101 0,0.20121 0.0716,0.359514 0.21484,0.47491 0.1464,0.112443 0.3485,0.168665 0.6063,0.168665 0.32145,0 0.59198,-0.106521 0.81159,-0.319569 0.2196,-0.216 0.32941,-0.485263 0.32941,-0.807789 v -0.181976 h -0.88797 m 2.6114,-0.599186 v 2.836148 h -1.72343 v -0.736778 c -0.22916,0.301814 -0.48696,0.522257 -0.77339,0.661322 -0.28645,0.136115 -0.63496,0.204168 -1.04552,0.204168 -0.55379,0 -1.00415,-0.149425 -1.35105,-0.448281 -0.34374,-0.301808 -0.51561,-0.692389 -0.51561,-1.171742 0,-0.582909 0.21484,-1.010478 0.6445,-1.282705 0.43285,-0.272215 1.11076,-0.408329 2.03375,-0.408335 h 1.00732 v -0.124276 c 0,-0.251502 -0.10663,-0.434958 -0.31986,-0.550365 -0.21324,-0.118352 -0.54584,-0.177532 -0.99778,-0.177532 -0.36601,0 -0.70656,0.03403 -1.02165,0.102084 -0.31508,0.06806 -0.60789,0.170144 -0.87842,0.306251 V 24.35299 c 0.36601,-0.08285 0.73362,-0.144988 1.10281,-0.18642 0.36919,-0.04437 0.73838,-0.06657 1.10758,-0.06657 0.96435,6e-6 1.65977,0.177545 2.08626,0.53261 0.42965,0.35212 0.64449,0.926156 0.64449,1.722107"
       id="path22457-7"
       inkscape:connector-curvature="0"
       class="error"
       style="opacity:0.8;fill:#00aeff;fill-opacity:1" />
    <rect
       id="rect1404-2-0"
       width="0.66667038"
       height="13.333398"
       x="30.00005"
       y="-94.66674"
       transform="rotate(90)"
       class="base"
       style="stroke-width:0.796823;opacity:0.8" />
  </g>
</svg>
