<?xml version="1.0" encoding="UTF-8" standalone="no"?>
<svg
   inkscape:version="1.1 (c68e22c387, 2021-05-23)"
   sodipodi:docname="align-horizontal-baseline-symbolic.svg"
   viewBox="0 0 16 16"
   height="16"
   width="16"
   id="svg1"
   version="1.1"
   xmlns:inkscape="http://www.inkscape.org/namespaces/inkscape"
   xmlns:sodipodi="http://sodipodi.sourceforge.net/DTD/sodipodi-0.dtd"
   xmlns="http://www.w3.org/2000/svg"
   xmlns:svg="http://www.w3.org/2000/svg"
   xmlns:rdf="http://www.w3.org/1999/02/22-rdf-syntax-ns#"
   xmlns:cc="http://creativecommons.org/ns#"
   xmlns:dc="http://purl.org/dc/elements/1.1/">
  <style
     id="s0">
   .success { fill: #009909; }
   .warning { fill: #FF1990; }
   .error   { fill: #00AAFF; }
  </style>
  <style
     id="s2"> 
     @import '../../highlights.css'; 
  </style>
  <metadata
     id="metadata895">
    <rdf:RDF>
      <cc:Work
         rdf:about="">
        <dc:format>image/svg+xml</dc:format>
        <dc:type
           rdf:resource="http://purl.org/dc/dcmitype/StillImage" />
        <dc:title />
      </cc:Work>
    </rdf:RDF>
  </metadata>
  <defs
     id="defs893" />
  <sodipodi:namedview
     inkscape:snap-global="true"
     inkscape:document-rotation="0"
     inkscape:current-layer="g1428"
     inkscape:window-maximized="1"
     inkscape:window-y="32"
     inkscape:window-x="-8"
     inkscape:window-height="1017"
     inkscape:window-width="1920"
     inkscape:cy="5.328125"
     inkscape:cx="6.078125"
     inkscape:zoom="32"
     showgrid="true"
     id="namedview"
     guidetolerance="10"
     gridtolerance="10"
     objecttolerance="10"
     pagecolor="#ffffff"
     bordercolor="#000000"
     borderopacity="1"
     inkscape:pageshadow="0"
     inkscape:pageopacity="0"
     inkscape:pagecheckerboard="0"
     inkscape:snap-page="true">
    <inkscape:grid
       id="grid"
       type="xygrid"
       spacingx="0.66667"
       spacingy="0.66667" />
  </sodipodi:namedview>
  <g
     id="align-horizontal-baseline"
     inkscape:label="00277"
     transform="matrix(0.666667,0,0,0.666666,-696.00001,-446.9076)">
    <g
       id="g1428"
       transform="matrix(1.4999993,0,0,1.5000015,923.9995,670.36204)">
      <path
         sodipodi:nodetypes="ccccccccccccccccc"
         id="path22455"
         d="m 85.972034,7.7140313 c 0.499479,-0.324175 1.348605,-0.2079623 1.727304,0.1668916 0.625651,0.5677088 0.806599,1.2939396 1.036808,1.9734845 0.170749,0.5795356 0.277996,1.1680636 0.321357,1.7588366 0.505639,-0.747087 1.088185,-1.549531 1.098769,-2.3908147 0.01398,-0.4252269 -0.328668,-0.7856678 -0.557531,-1.1617096 -0.18903,-0.3151818 0.331427,-0.6431482 0.777734,-0.5420289 0.546627,0.079382 0.637709,0.5296609 0.62193,0.8525374 -0.05748,0.9602889 -0.585049,1.9032008 -1.11891,2.7808288 -0.756566,1.15898 -1.839493,2.233771 -3.255898,3.049279 -0.557017,0.298837 -1.965789,0.645412 -2.661419,0.465424 -1.28286,-0.476532 -1.28286,-1.429604 0,-1.429604 0.636205,-0.03201 1.628653,0.595623 2.10081,0.583792 0.779273,-0.0045 1.334815,-0.503443 1.545139,-0.978879 0.213726,-0.628972 0.01373,-1.278815 -0.118279,-1.905936 C 87.274776,10.120901 87.032766,9.289155 86.465805,8.5516525 86.349835,8.2652195 85.441314,8.0949803 85.972034,7.7140313 Z"
         inkscape:connector-curvature="0"
         class="error"
         style="opacity:0.8;stroke-width:0.949753" />
      <path
         d="m 88.546997,4.1869268 c -0.356461,0 -0.625404,0.056223 -0.80681,0.1686584 -0.178237,0.112443 -0.267352,0.278143 -0.267352,0.4971013 0,0.2012092 0.07161,0.3595139 0.214833,0.4749094 0.146407,0.112443 0.348507,0.1686651 0.606308,0.1686651 0.321448,0 0.591975,-0.1065213 0.811588,-0.3195685 0.2196,-0.2160005 0.329403,-0.4852633 0.32941,-0.8077897 V 4.1869268 H 88.547003 M 91.158404,3.587741 v 2.8361479 h -1.72343 V 5.6871106 c -0.229158,0.3018142 -0.486958,0.5222574 -0.773394,0.6613229 -0.28645,0.1361143 -0.634957,0.2041671 -1.04552,0.2041671 -0.553788,0 -1.004145,-0.1494246 -1.351053,-0.448281 -0.343734,-0.3018076 -0.515601,-0.6923881 -0.515601,-1.1717417 0,-0.582909 0.214833,-1.0104778 0.644494,-1.282705 0.43285,-0.2722153 1.110766,-0.408329 2.033748,-0.4083349 h 1.007326 V 3.1172623 c -7e-6,-0.2515024 -0.106629,-0.434958 -0.319864,-0.5503648 -0.213243,-0.1183527 -0.545834,-0.1775327 -0.997774,-0.1775327 -0.366013,0 -0.706565,0.034029 -1.02165,0.1020839 -0.315084,0.06806 -0.607891,0.1701441 -0.878425,0.306251 V 1.5860126 c 0.366012,-0.082851 0.733617,-0.1449878 1.102811,-0.1864194 0.369188,-0.044374 0.738381,-0.066567 1.107576,-0.066573 0.964352,6e-6 1.659775,0.1775446 2.086261,0.5326099 0.429654,0.35212 0.644488,0.9261555 0.644495,1.7221065"
         id="path22457"
         inkscape:connector-curvature="0"
         class="error"
         style="opacity:0.8" />
      <rect
         style="fill:#00aaff;fill-opacity:0.8;stroke-width:18.3874;stroke-linecap:round;paint-order:stroke fill markers;stop-color:#000000"
         id="rect1015"
         width="0.66667002"
         height="12.66673"
         x="84.000053"
         y="1.3333603" />
    </g>
  </g>
</svg>
