<?xml version="1.0" encoding="UTF-8" standalone="no"?>
<svg
   inkscape:version="1.1 (c68e22c387, 2021-05-23)"
   sodipodi:docname="color-gradient-symbolic.svg"
   viewBox="0 0 16 16"
   height="16"
   width="16"
   id="svg1"
   version="1.1"
   xmlns:inkscape="http://www.inkscape.org/namespaces/inkscape"
   xmlns:sodipodi="http://sodipodi.sourceforge.net/DTD/sodipodi-0.dtd"
   xmlns="http://www.w3.org/2000/svg"
   xmlns:svg="http://www.w3.org/2000/svg"
   xmlns:rdf="http://www.w3.org/1999/02/22-rdf-syntax-ns#"
   xmlns:cc="http://creativecommons.org/ns#"
   xmlns:dc="http://purl.org/dc/elements/1.1/">
  <style
     id="s0">
   .success { fill: #009909; }
   .warning { fill: #FF1990; }
   .error   { fill: #00AAFF; }
  </style>
  <style
     id="s2"> 
     @import '../../highlights.css'; 
  </style>
  <metadata
     id="metadata852">
    <rdf:RDF>
      <cc:Work
         rdf:about="">
        <dc:format>image/svg+xml</dc:format>
        <dc:type
           rdf:resource="http://purl.org/dc/dcmitype/StillImage" />
      </cc:Work>
    </rdf:RDF>
  </metadata>
  <defs
     id="defs850">
    <clipPath
       clipPathUnits="userSpaceOnUse"
       id="clipPath4797">
      <path
         sodipodi:nodetypes="ccccccccsccsccsccscccccsccccsccsccsccsccscccc"
         inkscape:connector-curvature="0"
         id="path4799"
         class="error"
         d="m 926.04,649.9 v 23.26 H 949.3 V 649.9 Z m 14.26513,12.68467 c 0.99812,-0.64743 2.21205,-0.84975 3.33156,-0.60696 0.0135,0 0.027,0 0.0405,0.0135 0.82277,0.16187 1.59159,0.56651 2.22554,1.20046 0.17535,0.17533 0.35069,0.37767 0.48557,0.57998 0.0135,0.0135 0.027,0.027 0.027,0.0405 0.51255,0.74185 0.7958,1.61858 0.7958,2.53577 0,0.48557 -0.0809,0.94417 -0.2158,1.38928 -0.0135,0.027 -0.027,0.0539 -0.027,0.0809 -0.2293,0.63394 -0.57999,1.21393 -1.06556,1.6995 -0.48557,0.48557 -1.06556,0.84975 -1.6995,1.06556 -0.027,0.0135 -0.0675,0.027 -0.0944,0.027 -0.43162,0.14838 -0.90371,0.21581 -1.37579,0.21581 -0.93068,0 -1.80741,-0.26977 -2.54926,-0.78231 -0.0135,-0.0135 -0.027,-0.0405 -0.027,-0.0405 -0.21581,-0.13488 -0.40465,-0.29672 -0.59348,-0.48556 -0.60697,-0.62045 -1.0251,-1.38928 -1.21393,-2.22554 v -0.027 c -0.0674,-0.29674 -0.0944,-0.60696 -0.0944,-0.91719 0,-0.86324 0.24279,-1.68602 0.71487,-2.40089 -2.35593,-2.35592 -1.36642,-1.12478 -3.72235,-3.48071 -0.60697,0.39116 -1.29486,0.62046 -2.03671,0.67441 -0.027,0.0135 -0.0405,0.0135 -0.0674,0.0135 -0.10791,0.0135 -0.31023,0.0135 -0.31023,0.0135 -1.133,0 -2.19856,-0.41813 -3.02134,-1.18695 -0.0135,0 -0.0135,-0.0135 -0.027,-0.027 -0.0405,-0.027 -0.0675,-0.0539 -0.10791,-0.0944 -0.83626,-0.83626 -1.28137,-1.90182 -1.30835,-2.99436 -0.0135,-0.0135 -0.0135,-0.0405 0,-0.0539 -0.0405,-1.18696 0.39116,-2.37391 1.29486,-3.27762 0.86324,-0.86324 2.06369,-1.29486 3.25064,-1.28137 h 0.0539 c 1.11952,0.0405 2.21206,0.4586 3.03483,1.28137 0.0405,0.0405 0.0674,0.0674 0.0944,0.10791 0.0135,0.0135 0.027,0.0135 0.027,0.027 0.76882,0.82278 1.18695,1.90183 1.18695,3.02134 0,0.10791 0,0.21581 -0.0135,0.32372 0,0.0135 0,0.0405 -0.0135,0.0539 -0.054,0.74185 -0.28325,1.42974 -0.6879,2.03671 z" />
    </clipPath>
  </defs>
  <sodipodi:namedview
     inkscape:document-rotation="0"
     inkscape:current-layer="g0"
     inkscape:window-maximized="1"
     inkscape:window-y="32"
     inkscape:window-x="-8"
     inkscape:window-height="1017"
     inkscape:window-width="1920"
     inkscape:cy="7.1373591"
     inkscape:cx="3.9111844"
     inkscape:zoom="22.627417"
     showgrid="true"
     id="namedview"
     guidetolerance="10"
     gridtolerance="10"
     objecttolerance="10"
     inkscape:snap-global="true"
     inkscape:snap-others="false"
     pagecolor="#ffffff"
     bordercolor="#000000"
     borderopacity="1"
     inkscape:pageshadow="0"
     inkscape:pageopacity="0"
     inkscape:pagecheckerboard="0">
    <inkscape:grid
       id="grid"
       type="xygrid"
       spacingx="0.66667"
       spacingy="0.66667" />
  </sodipodi:namedview>
  <g
     inkscape:label="color-gradient"
     id="g0">
    <!--Add this to all icons at dirst place and do not change the id or style-->
    <path
       style="fill:#bfbfbf;fill-opacity:1;stroke:none;stroke-width:0.999999;stroke-miterlimit:4;stroke-dasharray:none;stroke-opacity:1"
       d="M 14.02396,1.976015 H 1.976 v 2.71215 l 1.35609,-1.35608 0.78229,0.7823 -2.13838,2.13839 v 2.71216 l 3.49448,-3.49448 0.78228,0.78232 -4.27676,4.27677 v 2.71215 l 5.63286,-5.63284 0.78228,0.78229 -5.63282,5.63284 h 2.71216 l 4.27676,-4.27674 0.78228,0.7823 -3.49447,3.49444 h 2.71219 l 2.13838,-2.13837 0.78157,0.78157 -1.35682,1.3568 H 14.024 Z"
       id="path5477"
       inkscape:connector-curvature="0" />
  </g>
</svg>
