<?xml version="1.0" encoding="UTF-8" standalone="no"?>
<svg
   inkscape:version="1.1 (c68e22c387, 2021-05-23)"
   sodipodi:docname="dialog-icon-preview-symbolic.svg"
   viewBox="0 0 16 16"
   height="16"
   width="16"
   id="svg1"
   version="1.1"
   xmlns:inkscape="http://www.inkscape.org/namespaces/inkscape"
   xmlns:sodipodi="http://sodipodi.sourceforge.net/DTD/sodipodi-0.dtd"
   xmlns="http://www.w3.org/2000/svg"
   xmlns:svg="http://www.w3.org/2000/svg"
   xmlns:rdf="http://www.w3.org/1999/02/22-rdf-syntax-ns#"
   xmlns:cc="http://creativecommons.org/ns#"
   xmlns:dc="http://purl.org/dc/elements/1.1/">
  <metadata
     id="metadata6418">
    <rdf:RDF>
      <cc:Work
         rdf:about="">
        <dc:format>image/svg+xml</dc:format>
        <dc:type
           rdf:resource="http://purl.org/dc/dcmitype/StillImage" />
      </cc:Work>
    </rdf:RDF>
  </metadata>
  <defs
     id="defs6416" />
  <style
     id="s0">
.success { fill:#009909; }
.warning { fill:#FF1990; }
.error { fill:#00AAFF; }
</style>
  <style
     id="s2">
@import '../../highlights.css';
</style>
  <sodipodi:namedview
     inkscape:document-rotation="0"
     inkscape:current-layer="dialog-icon-preview"
     inkscape:window-maximized="1"
     inkscape:window-y="-9"
     inkscape:window-x="-9"
     inkscape:window-height="1013"
     inkscape:window-width="1920"
     inkscape:cy="9.1644478"
     inkscape:cx="15.354319"
     inkscape:zoom="29.079766"
     showgrid="true"
     id="namedview"
     guidetolerance="10"
     gridtolerance="10"
     objecttolerance="10"
     pagecolor="#ffffff"
     bordercolor="#999999"
     borderopacity="1"
     inkscape:pageshadow="0"
     inkscape:pageopacity="0"
     inkscape:pagecheckerboard="0">
    <inkscape:grid
       id="grid"
       type="xygrid"
       spacingx="0.66666667"
       spacingy="0.66667" />
  </sodipodi:namedview>
  <g
     id="dialog-icon-preview"
     inkscape:label="00041"
     transform="translate(-74.997057,-887.36218)">
    <path
       class="error"
       id="path23473"
       d="m 82.994113,893.58273 c -2.947146,0 -3.557517,1.77876 -5.336276,3.11283 1.778759,1.33407 2.38913,3.11282 5.336276,3.11282 2.947146,0 3.557517,-1.77875 5.336276,-3.11282 -1.778759,-1.33407 -2.38913,-3.11283 -5.336276,-3.11283 z m 0,0.88938 c 1.473569,0 2.668138,0.99548 2.668138,2.22345 0,1.22796 -1.194569,2.22345 -2.668138,2.22345 -1.473568,0 -2.668138,-0.99549 -2.668138,-2.22345 0,-1.22797 1.19457,-2.22345 2.668138,-2.22345 z"
       style="opacity:1;stroke-width:1"
       inkscape:connector-curvature="0" />
    <path
       style="opacity:1;stroke-width:1.35208"
       d="m 84.244114,896.69556 a 1.21875,1.5 0 0 1 -1.21875,1.5 1.21875,1.5 0 0 1 -1.21875,-1.5 1.21875,1.5 0 0 1 1.21875,-1.5 1.21875,1.5 0 0 1 1.21875,1.5 z"
       id="path23477"
       inkscape:connector-curvature="0" />
    <path
       inkscape:connector-curvature="0"
       id="path10291-8-6"
       d="m 76.997071,890.02886 h 11.999987 v 2.00001 H 76.997071 Z"
       class="base"
       sodipodi:nodetypes="ccccc"
       style="opacity:0.5;fill:#616161;stroke-width:1.22474" />
    <path
       inkscape:connector-curvature="0"
       id="rect10298-7-1"
       d="m 76.330391,890.02886 h 0.66668 v 11.33339 h -0.66668 z"
       style="fill:#4d4d4d;stroke-width:0.687193" />
    <path
       inkscape:connector-curvature="0"
       id="rect10300-4-3"
       d="m 76.330406,889.36219 h 13.333326 v 0.66667 H 76.330406 Z"
       style="fill:#4d4d4d;stroke-width:0.707112"
       sodipodi:nodetypes="ccccc" />
    <path
       inkscape:connector-curvature="0"
       id="rect10302-5-4"
       d="m 88.997061,890.02886 h 0.66667 v 11.33339 h -0.66667 z"
       style="fill:#4d4d4d;stroke-width:0.687187"
       sodipodi:nodetypes="ccccc" />
    <path
       inkscape:connector-curvature="0"
       id="rect10304-6-5"
       d="M 76.997066,900.69558 H 88.99706 v 0.66667 H 76.997066 Z"
       style="fill:#4d4d4d;stroke-width:0.707107"
       sodipodi:nodetypes="ccccc" />
    <rect
       id="rect849"
       width="12.000005"
       height="0.66670924"
       x="76.997055"
       y="891.36218"
       class="base"
       style="fill:#616161;stroke-width:0.942837" />
  </g>
</svg>
