<?xml version="1.0" encoding="UTF-8" standalone="no"?>
<svg
   version="1.1"
   id="svg1"
   width="16"
   height="16"
   viewBox="0 0 16 16"
   sodipodi:docname="distribute-vertical-baseline-symbolic.svg"
   inkscape:version="1.1 (c68e22c387, 2021-05-23)"
   xmlns:inkscape="http://www.inkscape.org/namespaces/inkscape"
   xmlns:sodipodi="http://sodipodi.sourceforge.net/DTD/sodipodi-0.dtd"
   xmlns="http://www.w3.org/2000/svg"
   xmlns:svg="http://www.w3.org/2000/svg"
   xmlns:rdf="http://www.w3.org/1999/02/22-rdf-syntax-ns#"
   xmlns:cc="http://creativecommons.org/ns#"
   xmlns:dc="http://purl.org/dc/elements/1.1/">
  <style
     id="s0">
   .success { fill: #009909; }
   .warning { fill: #FF1990; }
   .error   { fill: #00AAFF; }
  </style>
  <style
     id="s2"> 
     @import '../../highlights.css'; 
  </style>
  <metadata
     id="metadata3192">
    <rdf:RDF>
      <cc:Work
         rdf:about="">
        <dc:format>image/svg+xml</dc:format>
        <dc:type
           rdf:resource="http://purl.org/dc/dcmitype/StillImage" />
      </cc:Work>
    </rdf:RDF>
  </metadata>
  <defs
     id="defs3190" />
  <sodipodi:namedview
     objecttolerance="10"
     gridtolerance="10"
     guidetolerance="10"
     id="namedview"
     showgrid="true"
     inkscape:zoom="42.471234"
     inkscape:cx="9.3828213"
     inkscape:cy="7.9465551"
     inkscape:window-width="1920"
     inkscape:window-height="1017"
     inkscape:window-x="-8"
     inkscape:window-y="32"
     inkscape:window-maximized="1"
     inkscape:current-layer="g863"
     inkscape:document-rotation="0"
     pagecolor="#ffffff"
     bordercolor="#000000"
     borderopacity="1"
     inkscape:pageshadow="0"
     inkscape:pageopacity="0"
     inkscape:pagecheckerboard="0">
    <inkscape:grid
       type="xygrid"
       id="grid"
       spacingx="0.66666667"
       spacingy="0.66667" />
  </sodipodi:namedview>
  <g
     transform="matrix(0.666667,0,0,0.666667,-721.33333,-523.57479)"
     inkscape:label="00288"
     id="distribute-vertical-baseline">
    <g
       id="g863"
       transform="translate(-29.999937,-6.0000446)">
      <path
         d="m 1128.3758,796.36186 c -0.5347,0 -0.9381,0.0843 -1.2102,0.25298 -0.2673,0.16867 -0.401,0.41722 -0.401,0.74565 0,0.30182 0.1074,0.53927 0.3222,0.71237 0.2196,0.16866 0.5228,0.253 0.9095,0.253 0.4822,0 0.888,-0.15979 1.2174,-0.47936 0.3294,-0.324 0.4941,-0.72789 0.4941,-1.21168 v -0.27296 h -1.332 m 3.9171,-0.89878 v 4.25422 h -2.5851 v -1.10517 c -0.3437,0.45272 -0.7304,0.78339 -1.1601,0.99198 -0.4297,0.20418 -0.9524,0.30626 -1.5683,0.30626 -0.8307,0 -1.5062,-0.22414 -2.0265,-0.67243 -0.5157,-0.45271 -0.7735,-1.03858 -0.7735,-1.75761 0,-0.87436 0.3223,-1.51571 0.9668,-1.92405 0.6493,-0.40833 1.6661,-0.6125 3.0506,-0.61251 h 1.511 v -0.18641 c 0,-0.37725 -0.16,-0.65244 -0.4798,-0.82555 -0.3199,-0.17753 -0.8188,-0.2663 -1.4967,-0.2663 -0.549,0 -1.0598,0.051 -1.5324,0.15313 -0.4727,0.10209 -0.9119,0.25522 -1.3177,0.45938 v -1.81753 c 0.549,-0.12428 1.1005,-0.21748 1.6542,-0.27963 0.5538,-0.0666 1.1076,-0.0999 1.6614,-0.0999 1.4465,10e-6 2.4897,0.26632 3.1294,0.79892 0.6445,0.52818 0.9667,1.38923 0.9667,2.58316"
         id="path22457-7"
         inkscape:connector-curvature="0"
         class="error"
         style="opacity:1;fill:#000000;stroke-width:1.5;fill-opacity:0.80000001" />
      <path
         sodipodi:nodetypes="ccccccccccccccccc"
         id="path22455-7"
         d="m 1124.6004,802.38082 c 0.7492,-0.56775 2.0229,-0.36422 2.5909,0.29229 0.9385,0.99428 1.2099,2.26617 1.5553,3.45631 0.2561,1.01498 0.4169,2.04572 0.482,3.08038 0.7584,-1.30843 1.6323,-2.7138 1.6481,-4.18721 0.021,-0.74472 -0.493,-1.376 -0.8363,-2.03458 -0.2835,-0.552 0.4972,-1.12638 1.1667,-0.9493 0.8199,0.13902 0.9565,0.92763 0.9328,1.49312 -0.086,1.68182 -0.8775,3.33321 -1.6783,4.87026 -1.1349,2.0298 -2.7593,3.91217 -4.8839,5.34041 -0.8355,0.52339 -2.9486,1.13037 -3.9921,0.81515 -1.9243,-0.8346 -1.9243,-2.50378 0,-2.50378 0.9543,-0.056 2.443,1.04315 3.1512,1.02244 1.1689,-0.007 2.0022,-0.88172 2.3177,-1.71438 0.3206,-1.10156 0.021,-2.23967 -0.1774,-3.33801 -0.3226,-1.42777 -0.6856,-2.88447 -1.536,-4.1761 -0.174,-0.50166 -1.5368,-0.79981 -0.7407,-1.467 z"
         inkscape:connector-curvature="0"
         class="error"
         style="opacity:1;fill:#000000;stroke-width:1.45134;fill-opacity:0.80000001" />
      <rect
         style="fill:#000000;fill-opacity:0.8;stroke-width:27.5811;stroke-linecap:round;paint-order:stroke fill markers;stop-color:#000000"
         id="rect1092"
         width="19.99999"
         height="1.0000045"
         x="1113.9994"
         y="810.36194" />
      <rect
         style="fill:#000000;fill-opacity:0.8;stroke-width:27.5811;stroke-linecap:round;paint-order:stroke fill markers;stop-color:#000000"
         id="rect1238"
         width="19.99999"
         height="1.0000045"
         x="1113.9994"
         y="800.36188" />
    </g>
  </g>
</svg>
