<?xml version="1.0" encoding="UTF-8" standalone="no"?>
<svg
   xmlns:dc="http://purl.org/dc/elements/1.1/"
   xmlns:cc="http://creativecommons.org/ns#"
   xmlns:rdf="http://www.w3.org/1999/02/22-rdf-syntax-ns#"
   xmlns:svg="http://www.w3.org/2000/svg"
   xmlns="http://www.w3.org/2000/svg"
   xmlns:sodipodi="http://sodipodi.sourceforge.net/DTD/sodipodi-0.dtd"
   xmlns:inkscape="http://www.inkscape.org/namespaces/inkscape"
   inkscape:version="1.0.1 (3bc2e813f5, 2020-09-07)"
   sodipodi:docname="document-new-symbolic.svg"
   viewBox="0 0 16 16"
   height="16"
   width="16"
   id="svg1"
   version="1.1">
  <style
     id="s0">
.success { fill:#009909; }
.warning { fill:#FF1990; }
.error { fill:#00AAFF; }
</style>
  <style
     id="s2">
@import '../../highlights.css';
</style>
  <metadata
     id="metadata1976">
    <rdf:RDF>
      <cc:Work
         rdf:about="">
        <dc:format>image/svg+xml</dc:format>
        <dc:type
           rdf:resource="http://purl.org/dc/dcmitype/StillImage" />
        <dc:title />
      </cc:Work>
    </rdf:RDF>
  </metadata>
  <defs
     id="defs1974">
    <inkscape:path-effect
       effect="join_type"
       id="path-effect848"
       is_visible="true"
       lpeversion="1"
       linecap_type="round"
       line_width="1.33"
       linejoin_type="round"
       miter_limit="100"
       attempt_force_join="true" />
    <inkscape:path-effect
       effect="offset"
       id="path-effect846"
       is_visible="false"
       lpeversion="1"
       linejoin_type="round"
       unit="px"
       offset="1.2597165"
       miter_limit="4"
       attempt_force_join="true"
       update_on_knot_move="true" />
    <inkscape:path-effect
       effect="fillet_chamfer"
       id="path-effect844"
       is_visible="true"
       lpeversion="1"
       satellites_param="F,0,0,1,0,0.2,0,1 @ F,0,0,1,0,0.2,0,1 @ F,0,0,1,0,0.2,0,1 @ F,0,0,1,0,0.2,0,1 @ F,0,0,1,0,0.2,0,1"
       unit="px"
       method="auto"
       mode="F"
       radius="0.2"
       chamfer_steps="1"
       flexible="false"
       use_knot_distance="true"
       apply_no_radius="true"
       apply_with_radius="true"
       only_selected="false"
       hide_knots="false" />
    <inkscape:path-effect
       effect="fillet_chamfer"
       id="path-effect851"
       is_visible="true"
       lpeversion="1"
       satellites_param="F,0,0,1,0,0.2,0,1 @ F,0,0,1,0,0.2,0,1 @ F,0,0,1,0,0.2,0,1 @ F,0,0,1,0,0.2,0,1 @ F,0,0,1,0,0.2,0,1"
       unit="px"
       method="auto"
       mode="F"
       radius="0.2"
       chamfer_steps="1"
       flexible="false"
       use_knot_distance="true"
       apply_no_radius="true"
       apply_with_radius="true"
       only_selected="false"
       hide_knots="false" />
    <inkscape:path-effect
       effect="join_type"
       id="path-effect1422"
       is_visible="true"
       lpeversion="1"
       linecap_type="butt"
       line_width="1"
       linejoin_type="extrp_arc"
       miter_limit="100"
       attempt_force_join="true" />
    <inkscape:path-effect
       effect="join_type"
       id="path-effect843"
       is_visible="true"
       lpeversion="1"
       linecap_type="round"
       line_width="1.33"
       linejoin_type="round"
       miter_limit="100"
       attempt_force_join="true" />
    <inkscape:path-effect
       effect="offset"
       id="path-effect840"
       is_visible="false"
       lpeversion="1"
       linejoin_type="round"
       unit="px"
       offset="1.2597165"
       miter_limit="4"
       attempt_force_join="true"
       update_on_knot_move="true" />
    <inkscape:path-effect
       effect="join_type"
       id="path-effect838"
       is_visible="false"
       lpeversion="1"
       linecap_type="round"
       line_width="1"
       linejoin_type="round"
       miter_limit="100"
       attempt_force_join="true" />
    <inkscape:path-effect
       hide_knots="false"
       only_selected="false"
       apply_with_radius="true"
       apply_no_radius="true"
       use_knot_distance="true"
       flexible="false"
       chamfer_steps="1"
       radius="0.2"
       mode="F"
       method="arc"
       unit="px"
       satellites_param="F,0,0,1,0,0.2,0,1 @ F,0,0,1,0,0.051107036,0,1 @ F,0,0,1,0,0.072695804,0,1 @ F,0,0,1,0,0.2,0,1 @ F,0,0,1,0,0.2,0,1"
       lpeversion="1"
       is_visible="true"
       id="path-effect842"
       effect="fillet_chamfer" />
  </defs>
  <sodipodi:namedview
     inkscape:document-rotation="0"
     inkscape:current-layer="document-new"
     inkscape:window-maximized="1"
     inkscape:window-y="-9"
     inkscape:window-x="-9"
     inkscape:window-height="1013"
     inkscape:window-width="1920"
     inkscape:cy="8.9933541"
     inkscape:cx="11.713293"
     inkscape:zoom="24.285314"
     showgrid="true"
     id="namedview"
     guidetolerance="10"
     gridtolerance="10"
     objecttolerance="10"
     inkscape:snap-others="true"
     inkscape:snap-global="true">
    <inkscape:grid
       spacingy="0.66667"
       spacingx="0.66667"
       id="grid"
       type="xygrid" />
  </sodipodi:namedview>
  <g
     inkscape:label="00376"
     id="document-new"
     transform="matrix(0.996941,0,0,1,-284.12818,-1131.3621)">
    <g
       id="g851">
      <rect
         id="rect928"
         width="16.049093"
         height="16"
         x="285"
         y="1131.3621"
         class="error"
         style="opacity:0.8;fill:#00aaff;fill-opacity:0;stroke-width:2.31293" />
      <path
         d="m 288.34728,1144.4955 c 0,0.4811 0.38392,0.865 0.865,0.865 h 8.29331 c 0.48108,0 0.865,-0.3839 0.865,-0.865 l 1e-5,-6.9334 c 0,-0.3048 -0.12125,-0.5969 -0.33714,-0.8122 l -3.0603,-3.0508 c -0.21542,-0.2148 -0.50696,-0.3353 -0.81114,-0.3353 h -4.94973 c -0.48108,0 -0.865,0.3839 -0.865,0.865 z m 1.32395,-10.1921 c 0,0 -0.0155,0.065 -0.0155,0.065 0,0 -0.0214,0.055 -0.0214,0.055 0,0 -0.0248,0.046 -0.0248,0.046 0,0 -0.0263,0.039 -0.0263,0.039 0,0 -0.0267,0.032 -0.0267,0.032 0,0 -0.0264,0.027 -0.0264,0.027 0,0 -0.0256,0.022 -0.0256,0.022 0,0 -0.29219,0.1033 -0.29219,0.1033 h 4.94973 c 0,0 -0.12786,-0.053 -0.12786,-0.053 l 3.0603,3.0508 c 0,0 -0.0539,-0.1297 -0.0539,-0.1297 l -1e-5,6.9334 c 0,0 0.006,-0.075 0.006,-0.075 0,0 0.0155,-0.065 0.0155,-0.065 0,0 0.0215,-0.055 0.0215,-0.055 0,0 0.0248,-0.047 0.0248,-0.047 0,0 0.0263,-0.039 0.0263,-0.039 0,0 0.0267,-0.032 0.0267,-0.032 0,0 0.0264,-0.027 0.0264,-0.027 0,0 0.0256,-0.022 0.0256,-0.022 0,0 0.29219,-0.1033 0.29219,-0.1033 h -8.29331 c 0,0 0.0746,0.01 0.0746,0.01 0,0 0.0652,0.016 0.0652,0.016 0,0 0.0554,0.021 0.0554,0.021 0,0 0.0465,0.025 0.0465,0.025 0,0 0.0388,0.026 0.0388,0.026 0,0 0.0322,0.027 0.0322,0.027 0,0 0.0268,0.026 0.0268,0.026 0,0 0.0222,0.026 0.0222,0.026 0,0 0.10328,0.2922 0.10328,0.2922 l 1e-5,-10.2667 c 0,0 -0.006,0.075 -0.006,0.075 z"
         id="path841"
         inkscape:path-effect="#path-effect844;#path-effect846;#path-effect848"
         inkscape:original-d="m 289.01229,1134.0288 -1e-5,10.6667 h 8.69331 l 1e-5,-7.3334 -3.34358,-3.3333 z"
         class="base"
         sodipodi:nodetypes="cccccc" />
    </g>
  </g>
</svg>
