<?xml version="1.0" encoding="UTF-8" standalone="no"?>
<svg
   xmlns:dc="http://purl.org/dc/elements/1.1/"
   xmlns:cc="http://creativecommons.org/ns#"
   xmlns:rdf="http://www.w3.org/1999/02/22-rdf-syntax-ns#"
   xmlns:svg="http://www.w3.org/2000/svg"
   xmlns="http://www.w3.org/2000/svg"
   xmlns:sodipodi="http://sodipodi.sourceforge.net/DTD/sodipodi-0.dtd"
   xmlns:inkscape="http://www.inkscape.org/namespaces/inkscape"
   version="1.1"
   id="svg1"
   width="16"
   height="16"
   viewBox="0 0 16 16"
   sodipodi:docname="draw-trace-background-symbolic.svg"
   inkscape:version="1.0.1 (3bc2e813f5, 2020-09-07)">
  <style
     id="s0">
.success { fill:#009909; }
.warning { fill:#FF1990; }
.error { fill:#00AAFF; }
</style>
  <style
     id="s2">
@import '../../highlights.css';
</style>
  <metadata
     id="metadata3663">
    <rdf:RDF>
      <cc:Work
         rdf:about="">
        <dc:format>image/svg+xml</dc:format>
        <dc:type
           rdf:resource="http://purl.org/dc/dcmitype/StillImage" />
        <dc:title></dc:title>
      </cc:Work>
    </rdf:RDF>
  </metadata>
  <defs
     id="defs3661">
    <inkscape:path-effect
       effect="powerstroke"
       id="path-effect903"
       is_visible="true"
       lpeversion="1"
       offset_points="0.79268683,0.28853992 | 9.1445934,0.21958145 | 14.207543,0.51849768"
       sort_points="true"
       interpolator_type="CentripetalCatmullRom"
       interpolator_beta="0.29966887"
       start_linecap_type="zerowidth"
       linejoin_type="round"
       miter_limit="4"
       scale_width="1"
       end_linecap_type="zerowidth" />
    <inkscape:path-effect
       effect="simplify"
       id="path-effect901"
       is_visible="true"
       lpeversion="1"
       steps="1"
       threshold="0.000408163"
       smooth_angles="360"
       helper_size="0"
       simplify_individual_paths="false"
       simplify_just_coalesce="false" />
    <inkscape:path-effect
       effect="simplify"
       id="path-effect892"
       is_visible="true"
       lpeversion="1"
       steps="1"
       threshold="0.000408163"
       smooth_angles="360"
       helper_size="0"
       simplify_individual_paths="false"
       simplify_just_coalesce="false" />
    <inkscape:path-effect
       effect="powerstroke"
       id="path-effect894"
       is_visible="true"
       lpeversion="1"
       offset_points="0.8254086,0.29587966 | 4.9098766,0.79609901 | 9.3626268,0.30104653"
       sort_points="true"
       interpolator_type="CentripetalCatmullRom"
       interpolator_beta="0.29966887"
       start_linecap_type="zerowidth"
       linejoin_type="round"
       miter_limit="4"
       scale_width="1"
       end_linecap_type="zerowidth" />
  </defs>
  <sodipodi:namedview
     objecttolerance="10"
     gridtolerance="10"
     guidetolerance="10"
     id="namedview"
     showgrid="true"
     inkscape:zoom="24.285314"
     inkscape:cx="26.904695"
     inkscape:cy="8.4691475"
     inkscape:window-width="1920"
     inkscape:window-height="1013"
     inkscape:window-x="-9"
     inkscape:window-y="-9"
     inkscape:window-maximized="1"
     inkscape:current-layer="svg1"
     inkscape:document-rotation="0"
     inkscape:snap-global="false">
    <inkscape:grid
       type="xygrid"
       id="grid"
       spacingx="0.66666667"
       spacingy="0.66667" />
  </sodipodi:namedview>
  <g
     id="g915"
     transform="matrix(0,-1.125,1.1249944,0,1.499888,17.000085)"
     style="stroke-width:0.888891">
    <g
       id="g951"
       transform="translate(-0.66667,-0.66667)"
       style="stroke-width:0.888891">
      <g
         id="g883"
         transform="matrix(1.2222223,0,0,1.2222222,-1.9259357,20.296375)"
         style="stroke-width:0.727275">
        <g
           id="g894"
           transform="matrix(0.95238099,0,0,0.95238098,0.42424404,-0.55122428)"
           style="stroke-width:0.763639">
          <path
             d="M 3.3333499,-15.696948 4.3030517,-16.66665 H 6.00003 l -2.66668,2.66668 z"
             id="path856"
             class="error"
             style="opacity:0.8;stroke-width:0.763639"
             sodipodi:nodetypes="ccccc" />
          <path
             d="m 3.33335,-13.99997 2.66668,-2.66668 h 2.00001 l -4.66669,4.66669 z"
             id="path858"
             class="error"
             style="opacity:0.7;stroke-width:0.763639"
             sodipodi:nodetypes="ccccc" />
          <path
             d="m 3.33335,-11.99996 4.66669,-4.66669 h 2.00001 l -6.6667,6.6667 z"
             id="path860"
             class="error"
             style="opacity:0.6;stroke-width:0.763639"
             sodipodi:nodetypes="ccccc" />
          <path
             d="m 3.33335,-9.99995 6.6667,-6.6667 h 2.00001 l -8.66671,8.66671 z"
             id="path862"
             class="error"
             style="opacity:0.5;stroke-width:0.763639"
             sodipodi:nodetypes="ccccc" />
          <path
             d="m 3.33335,-7.99994 8.66671,-8.66671 h 1.030307 l 0.484851,0.484851 -9.6970172,9.6970179 -0.4848509,-0.4848509 z"
             id="path864"
             sodipodi:nodetypes="ccccccc"
             class="error"
             style="opacity:0.4;stroke-width:0.763639" />
          <path
             d="m 14.000069,-15.696948 4e-6,1.030308 -8.66671,8.66671 -1.0303113,-2e-7 -0.4848509,-0.4848509 9.6970172,-9.6970179 z"
             id="path898"
             class="error"
             style="opacity:0.3;stroke-width:0.763639"
             sodipodi:nodetypes="ccccccc" />
          <path
             d="m 14.00007,-14.66664 v 2.00001 l -6.6667,6.6667 H 5.33336 Z"
             id="path900"
             class="error"
             style="opacity:0.2;stroke-width:0.763639"
             sodipodi:nodetypes="ccccc" />
          <path
             d="m 7.33337,-5.99993 6.6667,-6.6667 v 2.00001 l -4.66669,4.66669 z"
             id="path902"
             class="error"
             style="opacity:0.1;stroke-width:0.763639"
             sodipodi:nodetypes="ccccc" />
          <path
             d="m 9.33338,-5.99993 4.66669,-4.66669 v 2.00001 l -2.66668,2.66668 z"
             id="path904"
             class="error"
             style="opacity:0.05;stroke-width:0.763639"
             sodipodi:nodetypes="ccccc" />
        </g>
      </g>
    </g>
  </g>
  <path
     id="path865-5"
     style="fill:#000000;fill-rule:nonzero;stroke:none;stroke-width:1px;stroke-linecap:butt;stroke-linejoin:miter;stroke-opacity:1"
     d="M 8.8203125,1.9511719 C 8.1868052,1.9547356 7.5629449,2.1228601 7.0234375,2.4355469 6.5656997,2.6951875 6.1795647,3.023065 5.8535156,3.3691406 5.5110057,3.7326881 5.2273814,4.1264083 4.9921875,4.5 4.1642996,5.7625256 3.6722472,7.1598075 3.3730469,8.1152344 3.2713911,8.4241248 3.1830912,8.7159095 3.1054688,8.9882812 c -0.00842,0.02955 -0.013267,0.054599 -0.021484,0.083984 -0.0074,0.025044 -0.018239,0.057434 -0.025391,0.082031 C 2.4909533,11.106796 2.4300672,12.642613 2.3828125,13.220703 2.5009322,12.698163 2.9387404,11.170907 3.59375,9.3769531 c 0.00582,-0.015941 0.00782,-0.026986 0.013672,-0.042969 0.00964,-0.026313 0.023297,-0.061018 0.033203,-0.087891 0.00924,-0.02394 0.01605,-0.044303 0.025391,-0.068359 0.00472,-0.012162 0.010852,-0.02682 0.015625,-0.039063 C 3.7780574,8.8913786 3.8837328,8.6290101 4.0019531,8.3515625 4.4067764,7.4384839 4.9968598,6.1833469 5.8398438,5.1054688 6.092429,4.7959188 6.3725152,4.4931723 6.6816406,4.2285156 6.9755378,3.9768967 7.2899297,3.7649459 7.6308594,3.6113281 8.11733,3.4045583 8.6638188,3.3666906 9.15625,3.4902344 c 0.263571,0.065539 0.5052424,0.1613995 0.7109375,0.2832031 0.1751695,0.1037277 0.3161485,0.2224385 0.4277345,0.3496094 0.0253,0.028837 0.04962,0.057648 0.07227,0.087891 0.100396,0.1337976 0.175749,0.2959901 0.220703,0.4804687 0.04585,0.1881522 0.05774,0.3947134 0.03516,0.5996094 -0.04357,0.310446 -0.153295,0.6185825 -0.326172,0.921875 C 10.125465,6.513609 9.896235,6.8020551 9.6289062,7.0644531 9.4643028,7.2383063 9.2741101,7.397782 9.0546875,7.5566406 8.8405133,7.7116994 8.6121752,7.8565858 8.3613281,8.0097656 8.0628607,8.1852374 7.7497813,8.3903064 7.4609375,8.6347656 7.1842951,8.8688983 6.9204255,9.1468044 6.7109375,9.4804688 6.6174701,9.636448 6.5389729,9.809364 6.484375,9.9921875 6.4643825,10.059133 6.4467296,10.1277 6.4335938,10.199219 c -0.044559,0.242602 -0.044844,0.513538 0.039062,0.785156 0.00321,0.01039 0.010207,0.019 0.013672,0.0293 0.064796,0.253103 0.197589,0.480485 0.375,0.658203 0.189596,0.189924 0.4309798,0.331697 0.6972657,0.400391 0.2142041,0.0586 0.4300725,0.0713 0.6347656,0.05859 0.2086131,-0.01295 0.4095658,-0.05301 0.59375,-0.103515 0.3058833,-0.0939 0.5788703,-0.235416 0.8183594,-0.369141 0.2605756,-0.145498 0.4542062,-0.265194 0.6777342,-0.373047 0.112083,-0.04914 0.22831,-0.08003 0.341797,-0.09375 0.114172,-0.0138 0.226689,-0.01065 0.332031,0.0098 0.03674,0.0069 0.07333,0.01607 0.109375,0.02734 0.04984,0.01558 0.09818,0.03601 0.146485,0.06055 0.07884,0.04004 0.15379,0.09349 0.216797,0.160157 0.105485,0.133603 0.193784,0.288126 0.283203,0.474609 0.08822,0.183984 0.30515,0.586988 0.402332,0.790998 0.270311,0.611213 0.513276,0.906874 0.953136,1.265643 0.116252,0.01118 0.213078,0.01272 0.265625,0.01953 -0.01341,-0.05182 -0.02425,-0.146938 -0.03125,-0.257812 -0.322503,-0.392857 -0.570574,-0.791012 -0.708592,-1.3504 -0.0431,-0.198375 -0.06813,-0.507938 -0.125392,-0.735538 -0.05656,-0.224804 -0.133625,-0.46505 -0.261719,-0.699219 -0.107417,-0.202526 -0.257813,-0.370459 -0.429687,-0.5 -0.10457,-0.07881 -0.21652,-0.14405 -0.332032,-0.193359 -0.08359,-0.03568 -0.170744,-0.06473 -0.259765,-0.08594 -0.240897,-0.05699 -0.486504,-0.05982 -0.720703,-0.01953 -0.231598,0.03984 -0.452309,0.121546 -0.652344,0.238281 -0.2541371,0.145107 -0.4940915,0.319885 -0.7011719,0.462891 -0.2115606,0.1461 -0.4071281,0.273395 -0.6132812,0.363281 -0.134615,0.06391 -0.272961,0.117646 -0.4101563,0.152344 -0.1336611,0.0338 -0.2664008,0.04812 -0.3964844,0.03711 -0.150207,-0.01523 -0.3038129,-0.07439 -0.4355468,-0.175781 -0.1237523,-0.09525 -0.2229115,-0.225056 -0.2773438,-0.375 -0.00102,-0.0045 -0.00297,-0.0092 -0.00391,-0.01367 -0.037856,-0.178544 -0.020884,-0.356104 0.027344,-0.517578 0.014283,-0.04782 0.031576,-0.09381 0.050781,-0.138672 C 7.1054138,10.06835 7.1764066,9.9540013 7.2578125,9.8554688 7.4438152,9.6132174 7.6748831,9.4149804 7.9257812,9.25 8.1887327,9.0770938 8.4789726,8.9371238 8.7675781,8.8183594 9.0393653,8.7091073 9.3156325,8.5973352 9.5878906,8.4667969 9.8687312,8.3321436 10.148301,8.1768949 10.414062,7.9824219 10.786563,7.6972926 11.137652,7.3548148 11.425781,6.9589844 11.716935,6.5589986 11.949771,6.0954989 12.070312,5.5761719 12.161818,5.2029328 12.183776,4.8000495 12.119141,4.4023438 12.055458,4.0105 11.906554,3.6135827 11.646484,3.2617188 11.596354,3.1939171 11.543589,3.1286256 11.488281,3.0664062 11.243167,2.7906612 10.949959,2.5693087 10.630859,2.3984375 10.25961,2.1996414 9.8563316,2.0722197 9.4550781,2.0039062 9.2445264,1.9676548 9.0314816,1.949984 8.8203125,1.9511719 Z"
     sodipodi:nodetypes="scsccscccsscssccsccsscscscscscssscscscscscsscscccccscsscscscscsccsscscscscscsscs" />
</svg>
