<?xml version="1.0" encoding="UTF-8" standalone="no"?>
<svg
   xmlns:dc="http://purl.org/dc/elements/1.1/"
   xmlns:cc="http://creativecommons.org/ns#"
   xmlns:rdf="http://www.w3.org/1999/02/22-rdf-syntax-ns#"
   xmlns:svg="http://www.w3.org/2000/svg"
   xmlns="http://www.w3.org/2000/svg"
   xmlns:sodipodi="http://sodipodi.sourceforge.net/DTD/sodipodi-0.dtd"
   xmlns:inkscape="http://www.inkscape.org/namespaces/inkscape"
   inkscape:version="1.0.1 (3bc2e813f5, 2020-09-07)"
   sodipodi:docname="object-tweak-blur-symbolic.svg"
   viewBox="0 0 16 16"
   height="16"
   width="16"
   id="svg1"
   version="1.1">
  <metadata
     id="metadata4887">
    <rdf:RDF>
      <cc:Work
         rdf:about="">
        <dc:format>image/svg+xml</dc:format>
        <dc:type
           rdf:resource="http://purl.org/dc/dcmitype/StillImage" />
        <dc:title />
      </cc:Work>
    </rdf:RDF>
  </metadata>
  <defs
     id="defs4885">
    <inkscape:path-effect
       effect="offset"
       id="path-effect877"
       is_visible="true"
       lpeversion="1"
       linejoin_type="round"
       unit="px"
       offset="1.6"
       miter_limit="4"
       attempt_force_join="true"
       update_on_knot_move="true" />
    <inkscape:path-effect
       effect="offset"
       id="path-effect875"
       is_visible="false"
       lpeversion="1"
       linejoin_type="miter"
       unit="px"
       offset="0"
       miter_limit="4"
       attempt_force_join="true"
       update_on_knot_move="true" />
    <inkscape:path-effect
       effect="offset"
       id="path-effect869"
       is_visible="true"
       lpeversion="1"
       linejoin_type="round"
       unit="px"
       offset="2.1"
       miter_limit="4"
       attempt_force_join="true"
       update_on_knot_move="true" />
    <inkscape:path-effect
       effect="offset"
       id="path-effect867"
       is_visible="true"
       lpeversion="1"
       linejoin_type="miter"
       unit="px"
       offset="0.4"
       miter_limit="4"
       attempt_force_join="true"
       update_on_knot_move="true" />
    <inkscape:path-effect
       effect="offset"
       id="path-effect861"
       is_visible="true"
       lpeversion="1"
       linejoin_type="round"
       unit="px"
       offset="0.6"
       miter_limit="4"
       attempt_force_join="true"
       update_on_knot_move="true" />
    <inkscape:path-effect
       effect="offset"
       id="path-effect859"
       is_visible="false"
       lpeversion="1"
       linejoin_type="miter"
       unit="px"
       offset="0"
       miter_limit="4"
       attempt_force_join="true"
       update_on_knot_move="true" />
    <inkscape:path-effect
       effect="mirror_symmetry"
       start_point="15.33341,8.00004"
       end_point="0.66667,8.00004"
       center_point="8.00004,8.00004"
       id="path-effect1096"
       is_visible="true"
       lpeversion="1"
       mode="free"
       discard_orig_path="false"
       fuse_paths="false"
       oposite_fuse="false"
       split_items="false" />
    <inkscape:path-effect
       effect="mirror_symmetry"
       start_point="8.00004,0.66667"
       end_point="8.00004,4.66669"
       center_point="8.00004,2.66668"
       id="path-effect1094"
       is_visible="true"
       lpeversion="1"
       mode="free"
       discard_orig_path="false"
       fuse_paths="false"
       oposite_fuse="false"
       split_items="false" />
    <inkscape:path-effect
       effect="offset"
       id="path-effect1045"
       is_visible="true"
       lpeversion="1"
       linejoin_type="miter"
       unit="px"
       offset="4.1189291"
       miter_limit="4"
       attempt_force_join="true"
       update_on_knot_move="true" />
    <inkscape:path-effect
       effect="offset"
       id="path-effect1043"
       is_visible="false"
       lpeversion="1"
       linejoin_type="miter"
       unit="px"
       offset="0"
       miter_limit="4"
       attempt_force_join="true"
       update_on_knot_move="true" />
    <inkscape:path-effect
       effect="offset"
       id="path-effect1037"
       is_visible="true"
       lpeversion="1"
       linejoin_type="miter"
       unit="px"
       offset="1.8897638"
       miter_limit="4"
       attempt_force_join="true"
       update_on_knot_move="true" />
    <inkscape:path-effect
       effect="offset"
       id="path-effect1035"
       is_visible="false"
       lpeversion="1"
       linejoin_type="miter"
       unit="px"
       offset="0"
       miter_limit="4"
       attempt_force_join="true"
       update_on_knot_move="true" />
    <inkscape:path-effect
       effect="offset"
       id="path-effect1029"
       is_visible="false"
       lpeversion="1"
       linejoin_type="miter"
       unit="px"
       offset="0"
       miter_limit="4"
       attempt_force_join="true"
       update_on_knot_move="true" />
    <inkscape:path-effect
       effect="join_type"
       id="path-effect1020"
       is_visible="true"
       lpeversion="1"
       linecap_type="butt"
       line_width="1.3329999"
       linejoin_type="extrp_arc"
       miter_limit="100"
       attempt_force_join="true" />
    <inkscape:path-effect
       effect="join_type"
       id="path-effect1018"
       is_visible="true"
       lpeversion="1"
       linecap_type="butt"
       line_width="1.3329999"
       linejoin_type="extrp_arc"
       miter_limit="100"
       attempt_force_join="true" />
    <inkscape:path-effect
       effect="spiro"
       id="path-effect1002"
       is_visible="true"
       lpeversion="1" />
    <inkscape:path-effect
       effect="join_type"
       id="path-effect964"
       is_visible="true"
       lpeversion="1"
       linecap_type="butt"
       line_width="1.3329999"
       linejoin_type="extrp_arc"
       miter_limit="100"
       attempt_force_join="true" />
    <inkscape:path-effect
       effect="join_type"
       id="path-effect962"
       is_visible="true"
       lpeversion="1"
       linecap_type="butt"
       line_width="1.3329999"
       linejoin_type="extrp_arc"
       miter_limit="100"
       attempt_force_join="true" />
  </defs>
  <style
     id="s0">
.success { fill:#009909; }
.warning { fill:#FF1990; }
.error { fill:#00AAFF; }
</style>
  <style
     id="s2">
@import '../../highlights.css';
</style>
  <sodipodi:namedview
     inkscape:document-rotation="0"
     inkscape:current-layer="svg1"
     inkscape:window-maximized="1"
     inkscape:window-y="-9"
     inkscape:window-x="-9"
     inkscape:window-height="1013"
     inkscape:window-width="1920"
     inkscape:cy="22.941002"
     inkscape:cx="51.893585"
     inkscape:zoom="6.3216663"
     showgrid="true"
     id="namedview"
     guidetolerance="10"
     gridtolerance="10"
     objecttolerance="10"
     inkscape:object-paths="false"
     inkscape:snap-bbox="true"
     inkscape:bbox-paths="true">
    <inkscape:grid
       id="grid"
       type="xygrid"
       spacingx="0.66667"
       spacingy="0.66667" />
  </sodipodi:namedview>
  <g
     id="g865"
     transform="matrix(0.99950591,0,0,0.99950591,9.9970972,-19.988207)"
     class="base"
     style="opacity:0.1">
    <path
       id="path863"
       style="fill:#000000;fill-opacity:1;stroke:none;stroke-width:2.00099;stop-color:#000000"
       d="m -5.0664062,21.498047 a 2.1010381,2.1010381 0 0 0 -2.1015626,2.101562 v 8.800782 a 2.1010381,2.1010381 0 0 0 2.1015626,2.101562 h 1.7304687 c 1.0648785,7.83e-4 1.2493912,1.06e-4 2.25,-0.002 a 2.1010381,2.1010381 0 0 0 0.017578,0 c 2.6243296,-0.02564 4.9160155,-2.070601 4.9160156,-4.833984 0,-0.6459 -0.1726044,-1.186641 -0.3867187,-1.666016 0.2141143,-0.479375 0.3867188,-1.020116 0.3867187,-1.666016 0,-2.7627 -2.2932673,-4.808291 -4.921875,-4.833984 -0.2567866,-0.002 -0.9023595,-0.002 -2.2597656,-0.002 z"
       sodipodi:nodetypes="ccccscscccccsccccccsscc" />
  </g>
  <g
     id="g873"
     transform="matrix(0.99950591,0,0,0.99950591,9.9970972,-19.988207)"
     class="base"
     style="opacity:0.2">
    <path
       id="path871"
       style="fill:#000000;fill-opacity:1;stroke:none;stroke-width:2.00099;stop-color:#000000"
       d="M -4.6660156,22.398438 A 1.6007909,1.6007909 0 0 0 -6.2675781,24 v 8 a 1.6007909,1.6007909 0 0 0 1.6015625,1.601562 h 1.3300781 c 1.0642659,7.83e-4 1.2484093,4.3e-5 2.2460937,-0.002 a 1.6007909,1.6007909 0 0 0 0.011719,0 C 1.0738524,33.578588 2.9472656,31.911734 2.9472656,29.666016 2.9472656,29.06097 2.792054,28.504643 2.546875,28 c 0.2451791,-0.504643 0.4003906,-1.06097 0.4003906,-1.666016 0,-2.245721 -1.8724287,-3.912532 -4.0273437,-3.933593 -0.2507881,-0.002 -0.8965124,-0.002 -2.2539063,-0.002 z"
       sodipodi:nodetypes="ccccscscccccsccccccsscc" />
  </g>
  <g
     id="g857"
     transform="matrix(0.99950591,0,0,0.99950591,9.9970972,-19.988207)"
     class="base"
     style="opacity:0.4">
    <path
       id="path855"
       style="fill:#000000;fill-opacity:1;stroke:none;stroke-width:2.00099;stop-color:#000000"
       d="M -4.6660156,23.400391 A 0.6002966,0.6002966 0 0 0 -5.265625,24 v 8 a 0.6002966,0.6002966 0 0 0 0.5996094,0.599609 h 1.3320312 c 1.0634474,7.83e-4 1.2433658,7.1e-5 2.2460938,-0.002 1.63621086,-0.01598 3.0332031,-1.268737 3.0332031,-2.93164 0,-0.641767 -0.2546613,-1.191716 -0.6074219,-1.666016 0.3527606,-0.474299 0.6074219,-1.024248 0.6074219,-1.666016 0,-1.662902 -1.39784686,-2.915636 -3.0351563,-2.93164 -0.2437582,-0.0019 -0.8867598,-0.002 -2.2441406,-0.002 z m 1.9316406,2.533203 h 1.6210938 c 0.35507433,0.0029 0.5273437,0.248268 0.5273437,0.40039 0,0.152347 -0.17214638,0.396134 -0.5234375,0.398438 -0.00383,-1.2e-5 -0.00781,-3e-6 -0.011719,0 -0.5374496,0.0017 -1.0753178,0.0019 -1.6132812,0.002 z m 0,3.333984 h 1.6210938 c 0.35626868,0.0029 0.5273437,0.246312 0.5273437,0.398438 0,0.153559 -0.17422485,0.40039 -0.5332031,0.40039 H -2.734375 Z"
       sodipodi:nodetypes="ccccscscccccsccccccsscc" />
  </g>
  <g
     id="g1016"
     transform="matrix(0.99950591,0,0,0.99950591,9.9970972,-19.988207)"
     class="base">
    <path
       id="rect1004"
       style="fill:#000000;fill-opacity:1;stroke:none;stroke-width:2.00099;stop-color:#000000"
       d="m -4.6660426,24.0001 v 8 h 1.3320312 c 1.0629562,7.82e-4 1.2419411,-3e-6 2.2402348,-0.002 1.326751,-0.01296 2.439453,-1.018816 2.439453,-2.332031 0,-0.663389 -0.283985,-1.247534 -0.736328,-1.666016 0.452343,-0.418482 0.736328,-1.002626 0.736328,-1.666016 0,-1.313211 -1.112707,-2.319062 -2.439453,-2.332031 -0.2395404,-0.0019 -0.8828614,-0.002 -2.2402344,-0.002 z m 1.3320312,1.333984 h 2.2246094 c 0.6447747,0.0052 1.123047,0.48326 1.123047,1 0,0.517285 -0.4791969,0.993862 -1.1250001,0.998047 -0.00264,-8e-6 -0.00517,0 -0.00781,0 -0.7382798,0.0023 -1.4765615,0.002 -2.2148438,0.002 z m 0,3.333985 h 2.2246094 c 0.6447747,0.0052 1.123047,0.481305 1.123047,0.998047 0,0.519559 -0.4827031,1 -1.1328126,1 h -2.2148438 z"
       inkscape:path-effect="#path-effect1029"
       inkscape:original-d="m -4.6660426,24.0001 v 8 h 1.3320312 c 1.0629562,7.82e-4 1.2419411,-3e-6 2.2402348,-0.002 1.326751,-0.01296 2.439453,-1.018816 2.439453,-2.332031 0,-0.663389 -0.283985,-1.247534 -0.736328,-1.666016 0.452343,-0.418482 0.736328,-1.002626 0.736328,-1.666016 0,-1.313211 -1.112707,-2.319062 -2.439453,-2.332031 -0.2395404,-0.0019 -0.8828614,-0.002 -2.2402344,-0.002 z m 1.3320312,1.333984 h 2.2246094 c 0.6447747,0.0052 1.123047,0.48326 1.123047,1 0,0.517285 -0.4791969,0.993862 -1.1250001,0.998047 -0.00264,-8e-6 -0.00517,0 -0.00781,0 -0.7382798,0.0023 -1.4765615,0.002 -2.2148438,0.002 z m 0,3.333985 h 2.2246094 c 0.6447747,0.0052 1.123047,0.481305 1.123047,0.998047 0,0.519559 -0.4827031,1 -1.1328126,1 h -2.2148438 z"
       sodipodi:nodetypes="ccccscscccccsccccccsscc" />
  </g>
</svg>
