<?xml version="1.0" encoding="UTF-8" standalone="no"?>
<svg
   inkscape:version="1.1 (c68e22c387, 2021-05-23)"
   sodipodi:docname="paint-pattern-symbolic.svg"
   viewBox="0 0 16 16"
   height="16"
   width="16"
   id="svg1"
   version="1.1"
   xmlns:inkscape="http://www.inkscape.org/namespaces/inkscape"
   xmlns:sodipodi="http://sodipodi.sourceforge.net/DTD/sodipodi-0.dtd"
   xmlns="http://www.w3.org/2000/svg"
   xmlns:svg="http://www.w3.org/2000/svg"
   xmlns:rdf="http://www.w3.org/1999/02/22-rdf-syntax-ns#"
   xmlns:cc="http://creativecommons.org/ns#"
   xmlns:dc="http://purl.org/dc/elements/1.1/">
  <metadata
     id="metadata10972">
    <rdf:RDF>
      <cc:Work
         rdf:about="">
        <dc:format>image/svg+xml</dc:format>
        <dc:type
           rdf:resource="http://purl.org/dc/dcmitype/StillImage" />
        <dc:title />
      </cc:Work>
    </rdf:RDF>
  </metadata>
  <defs
     id="defs10970" />
  <style
     id="s0">
.success { fill:#009909; }
.warning { fill:#FF1990; }
.error { fill:#00AAFF; }
</style>
  <style
     id="s2">
@import '../../highlights.css';
</style>
  <sodipodi:namedview
     inkscape:document-rotation="0"
     inkscape:current-layer="paint-pattern"
     inkscape:window-maximized="1"
     inkscape:window-y="32"
     inkscape:window-x="-8"
     inkscape:window-height="1017"
     inkscape:window-width="1920"
     inkscape:cy="2.0992232"
     inkscape:cx="6.9163879"
     inkscape:zoom="22.627418"
     showgrid="true"
     id="namedview"
     guidetolerance="10"
     gridtolerance="10"
     objecttolerance="10"
     pagecolor="#ffffff"
     bordercolor="#999999"
     borderopacity="1"
     inkscape:pageshadow="0"
     inkscape:pageopacity="0"
     inkscape:pagecheckerboard="0"
     inkscape:snap-page="true"
     inkscape:snap-grids="true">
    <inkscape:grid
       id="grid"
       type="xygrid" />
  </sodipodi:namedview>
  <g
     id="paint-pattern"
     inkscape:label="00305"
     transform="matrix(0.8,0,0,0.8,-944,-743.48976)">
    <path
       id="path4139"
       style="fill:#000000;fill-opacity:0.7019608;fill-rule:evenodd;stroke-width:1"
       d="M 7.9960938 1.484375 A 3.5028725 3.5028725 0 0 0 4.4921875 4.9882812 A 3.5028725 3.5028725 0 0 0 7.9960938 8.4902344 A 3.5028725 3.5028725 0 0 0 11.498047 4.9882812 A 3.5028725 3.5028725 0 0 0 7.9960938 1.484375 z "
       transform="matrix(1.25,0,0,1.25,1180,929.3622)" />
    <path
       id="circle8470"
       style="fill:#000000;fill-opacity:0.50196081;fill-rule:evenodd;stroke-width:1.25"
       d="m 1186.25,938.1122 a 4.3785906,4.3785906 0 0 0 -4.3775,4.37988 4.3785906,4.3785906 0 0 0 4.3775,4.37744 4.3785906,4.3785906 0 0 0 4.3798,-4.37744 4.3785906,4.3785906 0 0 0 -4.3798,-4.37988 z" />
    <path
       id="circle8472"
       style="fill:#000000;fill-opacity:0.09803922;fill-rule:evenodd;stroke-width:1.25"
       d="m 1193.75,938.1122 a 4.3785906,4.3785906 0 0 0 -4.3799,4.37988 4.3785906,4.3785906 0 0 0 4.3799,4.37744 4.3785906,4.3785906 0 0 0 4.3774,-4.37744 4.3785906,4.3785906 0 0 0 -4.3774,-4.37988 z" />
  </g>
</svg>
