<?xml version="1.0" encoding="UTF-8" standalone="no"?>
<svg
   inkscape:version="1.1 (c68e22c387, 2021-05-23)"
   sodipodi:docname="snap-nodes-cusp-symbolic.svg"
   viewBox="0 0 16 16"
   height="16"
   width="16"
   id="svg1"
   version="1.1"
   xmlns:inkscape="http://www.inkscape.org/namespaces/inkscape"
   xmlns:sodipodi="http://sodipodi.sourceforge.net/DTD/sodipodi-0.dtd"
   xmlns="http://www.w3.org/2000/svg"
   xmlns:svg="http://www.w3.org/2000/svg"
   xmlns:rdf="http://www.w3.org/1999/02/22-rdf-syntax-ns#"
   xmlns:cc="http://creativecommons.org/ns#"
   xmlns:dc="http://purl.org/dc/elements/1.1/">
  <style
     id="s0">
   .success { fill: #009909; }
   .warning { fill: #FF1990; }
   .error   { fill: #00AAFF; }
  </style>
  <style
     id="s2"> 
     @import '../../highlights.css'; 
  </style>
  <metadata
     id="metadata1830">
    <rdf:RDF>
      <cc:Work
         rdf:about="">
        <dc:format>image/svg+xml</dc:format>
        <dc:type
           rdf:resource="http://purl.org/dc/dcmitype/StillImage" />
      </cc:Work>
    </rdf:RDF>
  </metadata>
  <defs
     id="defs1828" />
  <sodipodi:namedview
     inkscape:snap-to-guides="true"
     inkscape:snap-grids="true"
     inkscape:snap-others="false"
     inkscape:document-rotation="0"
     inkscape:current-layer="snap-nodes-cusp"
     inkscape:window-maximized="1"
     inkscape:window-y="32"
     inkscape:window-x="-8"
     inkscape:window-height="1017"
     inkscape:window-width="1920"
     inkscape:cy="1.8782524"
     inkscape:cx="6.5186406"
     inkscape:zoom="22.627417"
     showgrid="true"
     id="namedview"
     guidetolerance="10"
     gridtolerance="10"
     objecttolerance="10"
     pagecolor="#ffffff"
     bordercolor="#999999"
     borderopacity="1"
     inkscape:pageshadow="0"
     inkscape:pageopacity="0"
     inkscape:pagecheckerboard="0"
     inkscape:snap-page="true"
     inkscape:snap-smooth-nodes="true"
     inkscape:object-nodes="true">
    <inkscape:grid
       id="grid"
       type="xygrid" />
  </sodipodi:namedview>
  <g
     id="snap-nodes-cusp"
     inkscape:label="00200"
     transform="matrix(0.999999,0,0,1,-798.99887,-527.36241)">
    <path
       style="opacity:0;fill:none"
       d="m 799,527.36267 h 16 v 16 h -16 z"
       id="rect17717"
       inkscape:connector-curvature="0" />
    <path
       id="path2125"
       style="stroke-width:1"
       d="m 811.78352,533.73107 a 0.42995236,0.44929844 7.2368795 0 0 -0.45233,0.39932 c 0,0 -0.12003,0.97699 -0.91749,1.89169 -0.47209,0.54207 -1.26669,0.99274 -2.41402,1.21141 l 0.72922,0.8624 c 1.04055,-0.32654 1.79577,-0.86321 2.31104,-1.45485 0.97896,-1.124 1.14377,-2.40239 1.14377,-2.40239 a 0.42995236,0.44929844 7.2368795 0 0 -0.40019,-0.50758 z" />
    <path
       id="path2193"
       style="stroke-width:1"
       d="m 799.43475,527.36278 a 0.42995237,0.44929844 0 1 0 0.041,0.89648 c 0,0 3.15394,0.47299 5.40039,1.9668 1.12329,0.74696 1.98907,1.70689 2.20313,2.97461 0.13513,0.79989 0.0258,1.7555 -0.49219,2.90039 l 0.57422,0.52734 c 0.67371,-1.33596 0.9519,-2.53457 0.77734,-3.56835 -0.26955,-1.59625 -1.3369,-2.76826 -2.57812,-3.59375 -2.48262,-1.65082 -5.77734,-2.07618 -5.77734,-2.07618 a 0.42995237,0.44929844 0 0 0 -0.14844,-0.0273 z" />
    <rect
       style="fill:#bfbfbf;fill-opacity:1;stroke-width:0.65;paint-order:stroke fill markers;stop-color:#000000"
       id="rect889"
       width="5.9999971"
       height="6.0000029"
       x="947.97162"
       y="-191.54053"
       transform="rotate(44.999971)" />
  </g>
</svg>
