<?xml version="1.0" encoding="UTF-8" standalone="no"?>
<svg
   inkscape:version="1.1 (c68e22c387, 2021-05-23)"
   sodipodi:docname="snap-nodes-intersection-symbolic.svg"
   viewBox="0 0 16 16"
   height="16"
   width="16"
   id="svg1"
   version="1.1"
   xmlns:inkscape="http://www.inkscape.org/namespaces/inkscape"
   xmlns:sodipodi="http://sodipodi.sourceforge.net/DTD/sodipodi-0.dtd"
   xmlns="http://www.w3.org/2000/svg"
   xmlns:svg="http://www.w3.org/2000/svg"
   xmlns:rdf="http://www.w3.org/1999/02/22-rdf-syntax-ns#"
   xmlns:cc="http://creativecommons.org/ns#"
   xmlns:dc="http://purl.org/dc/elements/1.1/">
  <style
     id="s0">
   .success { fill: #009909; }
   .warning { fill: #FF1990; }
   .error   { fill: #00AAFF; }
  </style>
  <style
     id="s2"> 
     @import '../../highlights.css'; 
  </style>
  <metadata
     id="metadata2484">
    <rdf:RDF>
      <cc:Work
         rdf:about="">
        <dc:format>image/svg+xml</dc:format>
        <dc:type
           rdf:resource="http://purl.org/dc/dcmitype/StillImage" />
      </cc:Work>
    </rdf:RDF>
  </metadata>
  <defs
     id="defs2482" />
  <sodipodi:namedview
     inkscape:snap-others="false"
     inkscape:snap-nodes="true"
     inkscape:document-rotation="0"
     inkscape:current-layer="snap-nodes-intersection"
     inkscape:window-maximized="1"
     inkscape:window-y="32"
     inkscape:window-x="-8"
     inkscape:window-height="1017"
     inkscape:window-width="1920"
     inkscape:cy="3.453125"
     inkscape:cx="8.234375"
     inkscape:zoom="32"
     showgrid="true"
     id="namedview"
     guidetolerance="10"
     gridtolerance="10"
     objecttolerance="10"
     pagecolor="#ffffff"
     bordercolor="#999999"
     borderopacity="1"
     inkscape:pageshadow="0"
     inkscape:pageopacity="0"
     inkscape:pagecheckerboard="0"
     inkscape:object-nodes="false">
    <inkscape:grid
       id="grid"
       type="xygrid" />
  </sodipodi:namedview>
  <g
     inkscape:label="00330"
     id="snap-nodes-intersection"
     transform="translate(-889,-506.36221)">
    <path
       id="path22821"
       d="M 15.068359 0.45507812 C 14.940059 0.45446813 14.798323 0.50827813 14.664062 0.64257812 L 9.7558594 5.5507812 L 5.5703125 9.7363281 L 0.6640625 14.642578 C 0.1482425 15.158398 0.7583625 15.923278 1.3515625 15.330078 L 6.2578125 10.423828 L 10.443359 6.2382812 L 15.351562 1.3300781 C 15.722823 0.95880813 15.453259 0.45689812 15.068359 0.45507812 z "
       transform="translate(889,506.36221)"
       style="opacity:0.8" />
    <path
       id="path22823"
       d="m 890.22589,511.36221 c -0.46225,0.0157 -0.72078,0.69201 -0.14337,0.91759 l 3.72962,1.41461 5.8573,2.22134 3.73727,1.41844 c 0.5104,0.19992 0.93659,-0.67344 0.22748,-0.90994 l -3.62066,-1.3783 -5.8764,-2.23854 -3.70287,-1.40888 c -0.0725,-0.028 -0.14233,-0.0386 -0.20837,-0.0363 z"
       style="stroke-width:1;opacity:0.8" />
    <path
       class="error"
       style="fill:#05a2eb;stroke-width:0.799297"
       d="m 899.99712,514.36221 a 2.9971172,2.9999982 0 0 1 -2.99712,3 2.9971172,2.9999982 0 0 1 -2.99712,-3 2.9971172,2.9999982 0 0 1 2.99712,-3 2.9971172,2.9999982 0 0 1 2.99712,3 z"
       id="path22731"
       inkscape:connector-curvature="0" />
  </g>
</svg>
