<?xml version="1.0" encoding="UTF-8" standalone="no"?>
<svg
   inkscape:version="1.1 (c68e22c387, 2021-05-23)"
   sodipodi:docname="tool-spray-symbolic.svg"
   viewBox="0 0 16 16"
   height="16"
   width="16"
   id="svg1"
   version="1.1"
   xmlns:inkscape="http://www.inkscape.org/namespaces/inkscape"
   xmlns:sodipodi="http://sodipodi.sourceforge.net/DTD/sodipodi-0.dtd"
   xmlns="http://www.w3.org/2000/svg"
   xmlns:svg="http://www.w3.org/2000/svg"
   xmlns:rdf="http://www.w3.org/1999/02/22-rdf-syntax-ns#"
   xmlns:cc="http://creativecommons.org/ns#"
   xmlns:dc="http://purl.org/dc/elements/1.1/">
  <style
     id="s0">
   .success { fill: #009909; }
   .warning { fill: #FF1990; }
   .error   { fill: #00AAFF; }
  </style>
  <style
     id="s2"> 
     @import '../../highlights.css'; 
  </style>
  <metadata
     id="metadata2833">
    <rdf:RDF>
      <cc:Work
         rdf:about="">
        <dc:format>image/svg+xml</dc:format>
        <dc:type
           rdf:resource="http://purl.org/dc/dcmitype/StillImage" />
        <dc:title />
      </cc:Work>
    </rdf:RDF>
  </metadata>
  <defs
     id="defs2831" />
  <sodipodi:namedview
     inkscape:snap-global="true"
     inkscape:document-rotation="0"
     inkscape:current-layer="g0"
     inkscape:window-maximized="1"
     inkscape:window-y="32"
     inkscape:window-x="-8"
     inkscape:window-height="1017"
     inkscape:window-width="1920"
     inkscape:cy="3.557631"
     inkscape:cx="1.7235728"
     inkscape:zoom="22.627417"
     showgrid="true"
     id="namedview"
     guidetolerance="10"
     gridtolerance="10"
     objecttolerance="10"
     inkscape:snap-bbox="true"
     inkscape:bbox-nodes="true"
     pagecolor="#505050"
     bordercolor="#eeeeee"
     borderopacity="1"
     inkscape:pageshadow="0"
     inkscape:pageopacity="0"
     inkscape:pagecheckerboard="0">
    <inkscape:grid
       id="grid"
       type="xygrid"
       spacingx="0.66666667"
       spacingy="0.66667" />
  </sodipodi:namedview>
  <g
     id="g0"
     inkscape:label="tool-spray">
    <path
       inkscape:connector-curvature="0"
       style="opacity:0"
       d="M -3.3137084,8 7.9999998,-3.3137084 19.313708,7.9999998 8,19.313708 Z"
       id="background" />
    <g
       id="g942"
       transform="translate(-22.333335,0.3420202)">
      <path
         inkscape:connector-curvature="0"
         id="path936"
         d="M 12.645365,7.6794665 H 7.9605 c -0.912863,0 -1.663069,0.7316262 -1.657568,1.6389964 l 0.0304,5.0147371 h 8.000001 l -0.03041,-5.0147371 c -0.0055,-0.9073702 -0.7447,-1.6389964 -1.657565,-1.6389964 z"
         sodipodi:nodetypes="sssccsss"
         style="stroke-width:0.999993"
         class="base" />
      <path
         id="path938"
         d="M 13.000001,6.99983 12.333335,5.66649 H 8.333334 L 7.666668,6.99983 Z"
         inkscape:connector-curvature="0"
         sodipodi:nodetypes="ccccc"
         class="base"
         style="opacity:0.9" />
      <path
         inkscape:connector-curvature="0"
         id="path940"
         d="m 11.666668,3.66648 c 0,-0.66667 -2.666667,-0.66667 -2.666667,0 v 1.33334 h 2.666667 z"
         sodipodi:nodetypes="zzccz"
         class="base" />
    </g>
    <g
       id="g958"
       transform="translate(-22.333335,0.3420202)">
      <path
         style="opacity:1;fill:#616161;fill-opacity:1;stroke-width:0.999995"
         id="path944"
         d="m 5.666668,4.99982 a 0.66699998,0.66700002 0 0 1 -0.6669999,0.667 0.66699998,0.66700002 0 0 1 -0.667,-0.667 0.66699998,0.66700002 0 0 1 0.6669999,-0.6670001 0.66699998,0.66700002 0 0 1 0.667,0.6670001"
         inkscape:connector-curvature="0" />
      <path
         style="opacity:1;fill:#616161;fill-opacity:1;stroke-width:1"
         id="path946"
         d="M 7.0000014,3.66648 A 0.66072562,0.66072562 0 0 1 6.3392758,4.3272055 0.66072562,0.66072562 0 0 1 5.6785502,3.66648 0.66072562,0.66072562 0 0 1 6.3392758,3.0057543 0.66072562,0.66072562 0 0 1 7.0000014,3.66648"
         inkscape:connector-curvature="0" />
      <path
         id="path948"
         d="m 4.999668,2.6667999 a 1,0.99999993 0 0 1 -1,1 1,0.99999993 0 0 1 -1,-1 1,0.99999993 0 0 1 1,-0.9999999 1,0.99999993 0 0 1 1,0.9999999"
         inkscape:connector-curvature="0"
         style="opacity:1;fill:#616161;fill-opacity:1;stroke-width:1" />
      <path
         id="path950"
         d="m 5.666668,7.3246898 a 1,0.99999993 0 0 1 -1,1 1,0.99999993 0 0 1 -1,-1 1,0.99999993 0 0 1 1,-0.9999999 1,0.99999993 0 0 1 1,0.9999999"
         inkscape:connector-curvature="0"
         style="opacity:1;fill:#616161;fill-opacity:1;stroke-width:1" />
      <path
         id="path952"
         d="m 3.666668,5.3327999 a 1,0.99999993 0 0 1 -1,1 1,0.99999993 0 0 1 -1,-1 1,0.99999993 0 0 1 1,-0.9999999 1,0.99999993 0 0 1 1,0.9999999"
         inkscape:connector-curvature="0"
         style="opacity:1;fill:#616161;fill-opacity:1;stroke-width:1" />
      <path
         id="path954"
         d="m 8.3333347,4.6663001 a 0.33350008,0.33349999 0 0 1 -0.3335,0.3335 0.33350008,0.33349999 0 0 1 -0.3335,-0.3335 0.33350008,0.33349999 0 0 1 0.3335,-0.3335001 0.33350008,0.33349999 0 0 1 0.3335,0.3335001"
         inkscape:connector-curvature="0"
         style="opacity:1;fill:#616161;fill-opacity:1;stroke-width:1" />
      <path
         id="path956"
         d="m 7.000668,5.3333001 a 0.33350008,0.33349999 0 0 1 -0.3335,0.3335 0.33350008,0.33349999 0 0 1 -0.3335,-0.3335 0.33350008,0.33349999 0 0 1 0.3335,-0.3335001 0.33350008,0.33349999 0 0 1 0.3335,0.3335001"
         inkscape:connector-curvature="0"
         style="opacity:1;fill:#616161;fill-opacity:1;stroke-width:1" />
    </g>
    <g
       id="g3261"
       transform="translate(-0.0935382,0.76979315)">
      <path
         style="fill:#616161;fill-opacity:1;stroke-width:1"
         id="path915"
         d="m 14.666667,10.66672 a 1.7001321,1.7001321 0 0 1 -1.700132,1.700132 1.7001321,1.7001321 0 0 1 -1.700131,-1.700132 1.7001321,1.7001321 0 0 1 1.700131,-1.700132 1.7001321,1.7001321 0 0 1 1.700132,1.700132"
         inkscape:connector-curvature="0" />
      <path
         id="path917"
         d="M 12.666667,4.66669 A 2.5731287,2.5731285 0 0 1 10.093539,7.2398187 2.5731287,2.5731285 0 0 1 7.5204099,4.66669 2.5731287,2.5731285 0 0 1 10.093539,2.0935617 2.5731287,2.5731285 0 0 1 12.666667,4.66669"
         inkscape:connector-curvature="0"
         style="fill:#616161;fill-opacity:1;stroke-width:1" />
      <path
         id="path921"
         d="M 6.6666667,9.33338 A 2.5731287,2.5731285 0 0 1 4.0935381,11.906508 2.5731287,2.5731285 0 0 1 1.5204094,9.33338 2.5731287,2.5731285 0 0 1 4.0935381,6.7602515 2.5731287,2.5731285 0 0 1 6.6666667,9.33338"
         inkscape:connector-curvature="0"
         style="fill:#616161;fill-opacity:1;stroke-width:1" />
    </g>
    <g
       id="g1369">
      <path
         style="fill:#616161;fill-opacity:1;stroke-width:0.999996"
         id="path1348"
         d="M 30.001642,8.0028001 A 1.3349748,1.3349749 0 0 1 28.666667,9.337775 1.3349748,1.3349749 0 0 1 27.331692,8.0028001 1.3349748,1.3349749 0 0 1 28.666667,6.667825 1.3349748,1.3349749 0 0 1 30.001642,8.0028001"
         inkscape:connector-curvature="0" />
      <path
         style="fill:#616161;fill-opacity:1;stroke-width:1"
         id="path1350"
         d="M 32.670257,5.3341713 A 1.322417,1.322417 0 0 1 31.34784,6.656588 1.322417,1.322417 0 0 1 30.025424,5.3341713 1.322417,1.322417 0 0 1 31.34784,4.0117542 1.322417,1.322417 0 0 1 32.670257,5.3341713"
         inkscape:connector-curvature="0" />
      <path
         id="path1352"
         d="M 28.666667,3.33335 A 2.0014616,2.0014615 0 0 1 26.665205,5.3348116 2.0014616,2.0014615 0 0 1 24.663744,3.33335 2.0014616,2.0014615 0 0 1 26.665205,1.3318886 2.0014616,2.0014615 0 0 1 28.666667,3.33335"
         inkscape:connector-curvature="0"
         style="fill:#616161;fill-opacity:1;stroke-width:1" />
      <path
         id="path1354"
         d="m 30.001642,12.655938 a 2.0014616,2.0014615 0 0 1 -2.001462,2.001461 2.0014616,2.0014615 0 0 1 -2.001461,-2.001461 2.0014616,2.0014615 0 0 1 2.001461,-2.001462 2.0014616,2.0014615 0 0 1 2.001462,2.001462"
         inkscape:connector-curvature="0"
         style="fill:#616161;fill-opacity:1;stroke-width:1" />
      <path
         id="path1356"
         d="M 25.998719,8.6692466 A 2.0014616,2.0014615 0 0 1 23.997257,10.670708 2.0014616,2.0014615 0 0 1 21.995795,8.6692466 2.0014616,2.0014615 0 0 1 23.997257,6.6677852 2.0014616,2.0014615 0 0 1 25.998719,8.6692466"
         inkscape:connector-curvature="0"
         style="fill:#616161;fill-opacity:1;stroke-width:1" />
      <path
         id="path1358"
         d="M 35.338873,7.3352729 A 0.6674876,0.66748742 0 0 1 34.671385,8.0027603 0.6674876,0.66748742 0 0 1 34.003898,7.3352729 0.6674876,0.66748742 0 0 1 34.671385,6.6677852 0.6674876,0.66748742 0 0 1 35.338873,7.3352729"
         inkscape:connector-curvature="0"
         style="fill:#616161;fill-opacity:1;stroke-width:1" />
      <path
         id="path1360"
         d="M 32.671591,8.6702478 A 0.6674876,0.66748742 0 0 1 32.004104,9.3377352 0.6674876,0.66748742 0 0 1 31.336617,8.6702478 0.6674876,0.66748742 0 0 1 32.004104,8.0027601 0.6674876,0.66748742 0 0 1 32.671591,8.6702478"
         inkscape:connector-curvature="0"
         style="fill:#616161;fill-opacity:1;stroke-width:1" />
    </g>
  </g>
</svg>
